<svg width="151" height="150" viewBox="0 0 151 150" fill="none" xmlns="http://www.w3.org/2000/svg">
<path d="M148.779 64.0694C144.686 37.3084 127.906 4.43065 94.7545 0.989769C94.7545 0.989769 69.5843 -2.06861 44.7718 2.56691C30.0455 5.31779 17.133 13.5072 8.96229 25.2768C0.791544 37.047 -1.93758 51.3987 1.37448 65.0813C3.52603 73.9683 4.97934 83.1659 4.58035 92.2982C3.88587 108.191 4.2854 123.027 19.7259 132.505C33.5126 140.968 50.8628 148.432 67.4156 149.739C78.6646 150.628 91.2794 149.19 102.121 146.265C157.374 131.354 152.872 90.8303 148.779 64.0694Z" fill="#F4F7FA"/>
<path d="M145.473 47.6033H104.007V51.1165H145.473V47.6033Z" fill="#BFC8D6"/>
<path d="M126.221 47.6033H122.889V123.79H126.221V47.6033Z" fill="#BFC8D6"/>
<path d="M107.895 47.6198C107.895 48.0189 107.571 48.3419 107.172 48.3419H105.101C104.701 48.3419 104.378 48.0183 104.378 47.6198V47.5849C104.378 47.1858 104.702 46.8628 105.101 46.8628H107.172C107.571 46.8628 107.895 47.1864 107.895 47.5849V47.6198Z" fill="#BFC8D6"/>
<path d="M107.895 46.3258C107.895 46.7249 107.571 47.0479 107.172 47.0479H105.101C104.701 47.0479 104.378 46.7244 104.378 46.3258V46.291C104.378 45.8919 104.702 45.5688 105.101 45.5688H107.172C107.571 45.5688 107.895 45.8924 107.895 46.291V46.3258Z" fill="#BFC8D6"/>
<path d="M144.548 47.6198C144.548 48.0189 144.224 48.3419 143.825 48.3419H141.754C141.354 48.3419 141.031 48.0183 141.031 47.6198V47.5849C141.031 47.1858 141.355 46.8628 141.754 46.8628H143.825C144.224 46.8628 144.548 47.1864 144.548 47.5849V47.6198Z" fill="#BFC8D6"/>
<path d="M144.548 46.3258C144.548 46.7249 144.224 47.0479 143.825 47.0479H141.754C141.354 47.0479 141.031 46.7244 141.031 46.3258V46.291C141.031 45.8919 141.355 45.5688 141.754 45.5688H143.825C144.224 45.5688 144.548 45.8924 144.548 46.291V46.3258Z" fill="#BFC8D6"/>
<path d="M145.473 59.8073H104.007V62.766H145.473V59.8073Z" fill="#BFC8D6"/>
<path d="M107.895 59.4548C107.895 59.8539 107.571 60.1769 107.172 60.1769H105.101C104.701 60.1769 104.378 59.8533 104.378 59.4548V59.42C104.378 59.0209 104.702 58.6978 105.101 58.6978H107.172C107.571 58.6978 107.895 59.0214 107.895 59.42V59.4548Z" fill="#BFC8D6"/>
<path d="M107.895 57.976C107.895 58.3751 107.571 58.6982 107.172 58.6982H105.101C104.701 58.6982 104.378 58.3746 104.378 57.976V57.9412C104.378 57.5421 104.702 57.2191 105.101 57.2191H107.172C107.571 57.2191 107.895 57.5426 107.895 57.9412V57.976Z" fill="#BFC8D6"/>
<path d="M144.548 59.4548C144.548 59.8539 144.224 60.1769 143.825 60.1769H141.754C141.354 60.1769 141.031 59.8533 141.031 59.4548V59.42C141.031 59.0209 141.355 58.6978 141.754 58.6978H143.825C144.224 58.6978 144.548 59.0214 144.548 59.42V59.4548Z" fill="#BFC8D6"/>
<path d="M144.548 57.976C144.548 58.3751 144.224 58.6982 143.825 58.6982H141.754C141.354 58.6982 141.031 58.3746 141.031 57.976V57.9412C141.031 57.5421 141.355 57.2191 141.754 57.2191H143.825C144.224 57.2191 144.548 57.5426 144.548 57.9412V57.976Z" fill="#BFC8D6"/>
<path d="M94.0115 24.6725H52.3604V28.0009H94.0115V24.6725Z" fill="#BFC8D6"/>
<path d="M74.7591 24.6725H71.4272V100.859H74.7591V24.6725Z" fill="#BFC8D6"/>
<path d="M56.2479 24.6894C56.2479 25.0885 55.924 25.4115 55.525 25.4115H53.4539C53.0543 25.4115 52.731 25.088 52.731 24.6894V24.6546C52.731 24.2555 53.0549 23.9325 53.4539 23.9325H55.525C55.9245 23.9325 56.2479 24.2561 56.2479 24.6546V24.6894Z" fill="#BFC8D6"/>
<path d="M56.2479 23.3953C56.2479 23.7944 55.924 24.1174 55.525 24.1174H53.4539C53.0543 24.1174 52.731 23.7938 52.731 23.3953V23.3604C52.731 22.9613 53.0549 22.6383 53.4539 22.6383H55.525C55.9245 22.6383 56.2479 22.9619 56.2479 23.3604V23.3953Z" fill="#BFC8D6"/>
<path d="M93.0862 24.6894C93.0862 25.0885 92.7623 25.4115 92.3633 25.4115H90.2922C89.8927 25.4115 89.5693 25.088 89.5693 24.6894V24.6546C89.5693 24.2555 89.8932 23.9325 90.2922 23.9325H92.3633C92.7629 23.9325 93.0862 24.2561 93.0862 24.6546V24.6894Z" fill="#BFC8D6"/>
<path d="M93.0862 23.3953C93.0862 23.7944 92.7623 24.1174 92.3633 24.1174H90.2922C89.8927 24.1174 89.5693 23.7938 89.5693 23.3953V23.3604C89.5693 22.9613 89.8932 22.6383 90.2922 22.6383H92.3633C92.7629 22.6383 93.0862 22.9619 93.0862 23.3604V23.3953Z" fill="#BFC8D6"/>
<path d="M94.0115 36.5072H52.3604V39.8356H94.0115V36.5072Z" fill="#BFC8D6"/>
<path d="M56.2479 36.3394C56.2479 36.7385 55.924 37.0615 55.525 37.0615H53.4539C53.0543 37.0615 52.731 36.7379 52.731 36.3394V36.3045C52.731 35.9054 53.0549 35.5824 53.4539 35.5824H55.525C55.9245 35.5824 56.2479 35.906 56.2479 36.3045V36.3394Z" fill="#BFC8D6"/>
<path d="M56.2479 35.0452C56.2479 35.4443 55.924 35.7674 55.525 35.7674H53.4539C53.0543 35.7674 52.731 35.4438 52.731 35.0452V35.0104C52.731 34.6113 53.0549 34.2883 53.4539 34.2883H55.525C55.9245 34.2883 56.2479 34.6118 56.2479 35.0104V35.0452Z" fill="#BFC8D6"/>
<path d="M93.0862 36.3394C93.0862 36.7385 92.7623 37.0615 92.3633 37.0615H90.2922C89.8927 37.0615 89.5693 36.7379 89.5693 36.3394V36.3045C89.5693 35.9054 89.8932 35.5824 90.2922 35.5824H92.3633C92.7629 35.5824 93.0862 35.906 93.0862 36.3045V36.3394Z" fill="#BFC8D6"/>
<path d="M93.0862 35.0452C93.0862 35.4443 92.7623 35.7674 92.3633 35.7674H90.2922C89.8927 35.7674 89.5693 35.4438 89.5693 35.0452V35.0104C89.5693 34.6113 89.8932 34.2883 90.2922 34.2883H92.3633C92.7629 34.2883 93.0862 34.6118 93.0862 35.0104V35.0452Z" fill="#BFC8D6"/>
<path d="M96.9785 61.4059C92.7977 61.4059 88.6581 60.8113 84.5964 59.6236C78.9698 57.9779 73.4831 55.197 68.2887 51.3576C59.4509 44.8251 54.4522 37.3803 54.4023 37.3058L54.8818 36.9882C54.9306 37.0621 59.8842 44.4346 68.6464 50.907C76.7163 56.8679 89.765 63.2643 106.105 59.8845L106.221 60.447C103.13 61.0861 100.043 61.4059 96.9785 61.4059Z" fill="#BFC8D6"/>
<path d="M135.241 60.7307C126.692 60.7307 119.28 59.8741 113.127 58.1694C106.577 56.355 101.429 53.5811 97.8277 49.9254C91.7795 43.7856 92.1983 37.3934 92.2187 37.1245L92.7925 37.1684C92.7877 37.2322 92.3823 43.589 98.2524 49.537C101.785 53.1161 106.847 55.8359 113.298 57.6203C121.411 59.8644 131.743 60.6246 144.009 59.8784L144.044 60.4521C140.99 60.638 138.054 60.7307 135.241 60.7307Z" fill="#BFC8D6"/>
<path d="M105.685 48.7427C98.1043 48.7427 90.7991 47.592 83.9471 45.3163C78.0775 43.3669 72.5255 40.5924 67.4464 37.0701C58.7941 31.0701 54.4492 24.8853 54.4062 24.8232L54.8792 24.4958C54.9216 24.5569 59.2204 30.671 67.7955 36.6126C75.704 42.0924 88.9801 48.5424 107.283 48.1513L107.295 48.7256C106.757 48.7374 106.22 48.7427 105.685 48.7427Z" fill="#BFC8D6"/>
<path d="M144.013 48.7257C134.45 48.2784 125.782 46.7864 118.248 44.29C112.213 42.2908 106.887 39.6459 102.419 36.4295C94.7915 30.9379 92.345 25.7581 92.2441 25.5401L92.7665 25.2996C92.7906 25.3521 95.2704 30.586 102.793 35.9908C109.743 40.9841 122.541 47.147 144.04 48.152L144.013 48.7257Z" fill="#BFC8D6"/>
<path opacity="0.75" d="M46.7031 31.5178C46.7031 21.981 38.5753 14.2502 28.5496 14.2502C18.5233 14.2502 10.396 21.981 10.396 31.5178C10.396 37.3051 13.3895 42.4276 17.9843 45.5604C19.9337 46.8895 21.1157 49.0806 21.1157 51.4377V52.7593C21.1157 55.6302 23.4458 57.9579 26.3197 57.9579H30.7799C33.6539 57.9579 35.984 55.6302 35.984 52.7593V51.4377C35.984 49.0801 37.166 46.8895 39.1153 45.5604C43.7096 42.4276 46.7031 37.3056 46.7031 31.5178Z" fill="#F4F7FA"/>
<path d="M32.5767 65.6571C32.5767 66.8335 30.7738 67.7871 28.5498 67.7871C26.3259 67.7871 24.5229 66.8335 24.5229 65.6571C24.5229 64.4807 26.3259 63.5276 28.5498 63.5276C30.7738 63.5276 32.5767 64.4807 32.5767 65.6571Z" fill="url(#paint0_linear_8_1561)"/>
<path d="M23.1992 61.8527V64.0276C23.1992 64.7637 23.6186 65.4376 24.2836 65.7542C25.2065 66.1941 26.7413 66.6767 28.9717 66.6194C30.7811 66.5733 31.9609 66.2782 32.7112 65.968C33.4357 65.6685 33.9001 64.9528 33.9001 64.1691V62.9659L23.1992 61.8527Z" fill="url(#paint1_linear_8_1561)"/>
<path opacity="0.3" d="M23.1992 63.7577C23.3622 63.9162 23.551 64.0502 23.7634 64.1514C24.7989 64.6448 31.5818 65.7468 33.218 65.1328C33.4303 65.053 33.6218 64.9464 33.7891 64.8178C33.8604 64.6126 33.9001 64.3935 33.9001 64.1691V62.9659L23.1992 61.8527V63.7577Z" fill="url(#paint2_linear_8_1561)"/>
<path d="M23.6741 60.373C23.0714 60.3103 22.5469 60.7823 22.5469 61.3876V61.4492C22.5469 62.2748 23.0172 63.0312 23.7632 63.3864C24.7987 63.8798 31.5816 64.9817 33.2178 64.3678C34.0415 64.0587 34.5521 63.3521 34.5521 62.4735V62.4237C34.5521 61.9008 34.1568 61.4632 33.6366 61.409L23.6741 60.373Z" fill="url(#paint3_linear_8_1561)"/>
<path opacity="0.3" d="M33.6363 61.409L23.6738 60.3729C23.2807 60.3322 22.922 60.5192 22.7192 60.8218C22.9193 61.2927 23.2839 61.687 23.7628 61.9153C24.7984 62.4086 31.8703 63.6547 33.2175 63.0204C33.742 62.7735 34.1533 62.3567 34.3737 61.8499C34.2101 61.6094 33.9458 61.4411 33.6363 61.409Z" fill="url(#paint4_linear_8_1561)"/>
<path d="M23.2843 56.849C22.8772 56.849 22.5469 57.179 22.5469 57.5856V59.2892C22.5469 60.1147 23.0172 60.8711 23.7632 61.2263C24.7987 61.7197 31.8707 62.9657 33.2178 62.3314C34.0136 61.957 34.5521 61.192 34.5521 60.3134V57.5856C34.5521 57.179 34.2217 56.849 33.8147 56.849H23.2843Z" fill="url(#paint5_linear_8_1561)"/>
<path d="M34.4034 57.3796C34.4034 58.143 31.7826 58.7623 28.5493 58.7623C25.3161 58.7623 22.6953 58.1435 22.6953 57.3796C22.6953 56.6162 25.3161 55.9969 28.5493 55.9969C31.7826 55.9969 34.4034 56.6162 34.4034 57.3796Z" fill="url(#paint6_linear_8_1561)"/>
<path d="M46.7031 31.5178C46.7031 21.981 38.5753 14.2502 28.5496 14.2502C18.5233 14.2502 10.396 21.981 10.396 31.5178C10.396 37.3051 13.3895 42.4276 17.9843 45.5604C19.9337 46.8895 21.1157 49.0806 21.1157 51.4377V52.7593C21.1157 55.6302 23.4458 57.9579 26.3197 57.9579H30.7799C33.6539 57.9579 35.984 55.6302 35.984 52.7593V51.4377C35.984 49.0801 37.166 46.8895 39.1153 45.5604C43.7096 42.4276 46.7031 37.3056 46.7031 31.5178Z" fill="url(#paint7_linear_8_1561)"/>
<path opacity="0.5" d="M28.5499 57.3007C30.9154 57.3007 32.8331 56.8478 32.8331 56.2893C32.8331 55.7307 30.9154 55.2778 28.5499 55.2778C26.1843 55.2778 24.2666 55.7307 24.2666 56.2893C24.2666 56.8478 26.1843 57.3007 28.5499 57.3007Z" fill="#F4F7FA"/>
<path opacity="0.3" d="M28.8789 45.1377C29.2677 38.4825 40.4996 36.9247 40.4513 30.9809C40.4218 27.3204 35.9584 24.6017 35.0054 24.0574C27.9828 20.0449 19.339 24.6783 17.5538 21.3992C17.1092 20.5828 17.3178 19.694 17.4363 19.1878C17.616 18.4228 18.0219 17.7103 18.6242 17.0588C13.6695 20.1419 10.3955 25.4658 10.3955 31.5183C10.3955 37.3056 13.389 42.4281 17.9839 45.5609C19.9332 46.89 21.1152 49.0811 21.1152 51.4382V52.7598C21.1152 55.6307 23.4453 57.9584 26.3193 57.9584H30.7795C33.6534 57.9584 35.9836 55.6307 35.9836 52.7598V51.7034C35.3695 52.1732 34.6648 52.5011 33.8915 52.4947C31.2091 52.4722 28.6853 48.45 28.8789 45.1377Z" fill="url(#paint8_linear_8_1561)"/>
<path opacity="0.44" d="M28.8396 47.2408C37.4673 47.2408 44.4614 40.503 44.4614 32.1916C44.4614 23.8801 37.4673 17.1423 28.8396 17.1423C20.2119 17.1423 13.2178 23.8801 13.2178 32.1916C13.2178 40.503 20.2119 47.2408 28.8396 47.2408Z" fill="#F4F7FA"/>
<path d="M34.4666 20.5209L22.3086 33.8923L27.3062 33.8612L23.2546 43.9197L35.3895 30.4766L30.8794 30.4889L34.4666 20.5209Z" fill="white"/>
<path d="M9.11468 137.473C7.38787 137.473 5.77903 136.6 4.91562 135.107C4.05221 133.613 4.05221 131.785 4.91562 130.291L37.5305 73.874C38.3939 72.3804 40.0027 71.459 41.7295 71.459C43.4564 71.459 45.0652 72.3906 45.9286 73.8842L78.5435 130.317C79.4069 131.811 79.4069 133.612 78.5435 135.106C77.6806 136.599 76.0712 137.473 74.3449 137.473H9.11468V137.473Z" fill="url(#paint9_linear_8_1561)"/>
<path d="M76.7229 134.091C76.2327 134.939 75.3253 135.44 74.345 135.44H9.11475C8.1339 135.44 7.22866 134.939 6.73797 134.091C6.2462 133.243 6.2462 132.207 6.73797 131.359L39.3518 74.9336C39.754 74.2388 40.4334 73.7652 41.2041 73.6152C41.3751 73.5809 41.551 73.5654 41.7296 73.5654C42.7105 73.5654 43.6173 74.0888 44.1075 74.9384L76.7223 131.358C77.213 132.207 77.213 133.242 76.7229 134.091Z" fill="url(#paint10_linear_8_1561)"/>
<path d="M47.9903 89.394H40.0952L30.0073 111.701L42.0687 108.615L37.2444 120.106L34.2836 117.692L34.7223 129.342L44.5908 121.385H39.766L50.4025 102.777L40.2046 105.286L47.9903 89.394Z" fill="url(#paint11_linear_8_1561)"/>
<path opacity="0.3" d="M40.205 128.93C33.2248 131.824 28.5259 133.59 25.5919 135.44H9.11476C8.1339 135.44 7.22866 134.939 6.73797 134.091C6.2462 133.243 6.2462 132.207 6.73797 131.359L39.3518 74.9337C39.754 74.2389 40.4335 73.7654 41.2041 73.6154C38.3436 79.251 34.4057 90.8899 44.1724 100.258C57.5783 113.118 55.955 122.4 40.205 128.93Z" fill="url(#paint12_linear_8_1561)"/>
<path d="M118.483 79.1013L141.715 81.2769C143.775 81.6958 147.204 86.3629 146.644 88.0017L136.917 116.497L124.678 141.01C123.913 142.542 121.917 143.217 120.053 142.582L101.225 136.169C99.5239 135.589 95.2042 132.186 95.5609 130.616L104.503 107.617L114.165 81.1815C114.722 79.6595 116.649 78.7279 118.483 79.1013Z" fill="url(#paint13_linear_8_1561)"/>
<path d="M115.165 76.0244L140.595 81.1983C142.655 81.6172 143.886 83.2855 143.326 84.9242L133.599 113.42L121.359 137.932C120.594 139.464 118.598 140.14 116.734 139.505L97.9066 133.091C96.2055 132.512 95.1995 130.888 95.5566 129.318L101.184 104.539L110.848 78.104C111.404 76.5821 113.331 75.651 115.165 76.0244Z" fill="url(#paint14_linear_8_1561)"/>
<path d="M117.009 138.711C118.404 139.184 119.893 138.678 120.464 137.533L132.667 113.116L142.379 84.7251C142.797 83.5026 141.879 82.2517 140.341 81.9362L114.911 76.7211C113.54 76.4398 112.091 77.1384 111.675 78.2784L102.024 104.725L96.4156 129.51C96.1491 130.688 96.9042 131.902 98.18 132.334L117.009 138.711Z" fill="url(#paint15_linear_8_1561)"/>
<path d="M107.872 98.3379L131.391 104.998L138.014 85.8473L114.546 80.2335L107.872 98.3379Z" fill="url(#paint16_linear_8_1561)"/>
<path d="M108.38 98.1275L131.077 104.537L137.47 86.073L114.821 80.6382L108.38 98.1275Z" fill="url(#paint17_linear_8_1561)"/>
<g opacity="0.3">
<path opacity="0.3" d="M131.391 104.998L114.833 100.309C120.259 98.9744 122.9 97.0384 123.712 94.8329C124.932 91.5196 121.555 88.9112 123.175 86.1057C123.879 84.8875 125.324 83.9693 127.342 83.2943L138.013 85.847L131.391 104.998Z" fill="white"/>
</g>
<path d="M103.425 112.036C101.408 117.674 104.369 123.712 110.155 125.529C116.064 127.383 122.605 124.131 124.64 118.258C126.664 112.418 123.401 106.371 117.474 104.752C111.67 103.167 105.432 106.429 103.425 112.036Z" fill="url(#paint18_linear_8_1561)"/>
<path d="M104.484 112.347C102.676 117.411 105.343 122.825 110.537 124.444C115.83 126.094 121.68 123.177 123.503 117.925C125.317 112.699 122.406 107.278 117.099 105.818C111.89 104.384 106.285 107.308 104.484 112.347Z" fill="url(#paint19_linear_8_1561)"/>
<path d="M115.485 109.401C115.485 108.667 114.889 108.072 114.155 108.072H112.558C111.823 108.072 111.228 108.667 111.228 109.401V119.501C111.228 120.235 111.823 120.831 112.558 120.831H114.155C114.889 120.831 115.485 120.235 115.485 119.501V109.401Z" fill="url(#paint20_linear_8_1561)"/>
<path d="M106.485 131.555C107.251 131.555 107.872 130.935 107.872 130.169C107.872 129.404 107.251 128.783 106.485 128.783C105.719 128.783 105.098 129.404 105.098 130.169C105.098 130.935 105.719 131.555 106.485 131.555Z" fill="white"/>
<path d="M102.161 130.337C102.927 130.337 103.548 129.717 103.548 128.951C103.548 128.186 102.927 127.566 102.161 127.566C101.395 127.566 100.773 128.186 100.773 128.951C100.773 129.717 101.395 130.337 102.161 130.337Z" fill="white"/>
<path d="M41.3337 139.915C38.4823 132.498 42.5066 120.342 45.0421 114.833C52.4309 98.7751 66.0063 98.2325 77.1367 97.7873C88.0699 97.3501 98.6238 96.928 106.348 109.245C111.394 117.292 116.034 132.053 112.939 139.915C109.685 148.184 100.648 141.776 79.1564 141.663C55.5177 141.538 44.8941 149.177 41.3337 139.915Z" fill="url(#paint21_linear_8_1561)"/>
<path d="M87.4562 99.4765C87.4562 101.498 82.5144 103.925 76.4185 103.925C70.3227 103.925 65.3809 101.499 65.3809 99.4765C65.3809 97.4548 70.3227 98.3585 76.4185 98.3585C82.515 98.3585 87.4562 97.4548 87.4562 99.4765Z" fill="url(#paint22_linear_8_1561)"/>
<path d="M72.3605 85.3734C70.6825 85.3734 74.556 97.1531 68.4548 98.7705C67.8649 98.9269 67.7678 99.7192 68.3046 100.01C69.9424 100.896 73.0099 102.019 78.0413 102.019C81.3099 102.019 83.7006 100.786 84.9421 99.9538C85.3668 99.6694 85.3244 99.0351 84.8696 98.801C82.9884 97.833 80.3778 94.7526 81.1565 85.6744L72.3605 85.3734Z" fill="url(#paint23_linear_8_1561)"/>
<path d="M67.2617 71.2502C67.2869 71.3981 67.7942 82.1504 70.2547 87.5204C70.961 89.0616 74.4634 88.8768 76.7303 88.6915C78.6989 88.5302 81.7858 89.248 82.6551 87.89C86.15 82.4306 85.5574 68.9081 85.5574 68.9081C85.5574 68.9081 83.7668 64.4092 76.4246 64.5324C69.0824 64.6556 67.2617 71.2502 67.2617 71.2502Z" fill="url(#paint24_linear_8_1561)"/>
<path d="M68.9798 77.0248C68.9798 77.0248 67.4439 75.242 65.9965 75.0041C64.5491 74.7663 63.6063 78.5109 65.5809 80.9478C67.5549 83.3848 69.8373 81.3641 69.8373 81.3641L68.9798 77.0248Z" fill="url(#paint25_linear_8_1561)"/>
<path d="M83.9473 77.0248C83.9473 77.0248 85.4832 75.242 86.9306 75.0041C88.378 74.7663 89.3208 78.5109 87.3462 80.9478C85.3722 83.3848 83.0898 81.3641 83.0898 81.3641L83.9473 77.0248Z" fill="url(#paint26_linear_8_1561)"/>
<path d="M67.7776 76.8905C67.9712 77.2451 68.1927 77.5746 68.3423 77.536C68.9628 77.3742 66.5688 71.3319 68.774 69.2164C69.9141 68.1225 71.1985 69.1194 75.869 68.9084C80.5721 68.6957 81.7755 67.5718 83.1972 68.4327C84.4923 69.2169 85.6518 71.4568 84.6913 78.091C84.9584 78.0294 85.226 77.9678 85.493 77.9062C85.1326 75.7333 85.5257 74.3625 85.9751 73.4984C86.3028 72.8678 86.8965 72.0551 86.8498 70.8809C86.8214 70.1528 86.5795 70.1207 86.5398 69.5244C86.4235 67.7769 88.419 67.3071 88.5155 65.5805C88.5895 64.2514 87.4419 63.9498 87.6516 62.5607C87.8301 61.3795 88.7262 61.1588 88.5841 60.3054C88.4313 59.3845 87.2306 58.6993 86.3881 58.4604C85.529 58.2166 85.2179 58.4872 84.7144 58.14C83.9003 57.5791 84.2912 56.5827 83.7029 56.2131C82.655 55.5547 80.5721 58.1839 79.2255 57.5293C78.4104 57.1329 78.7241 55.95 78.0028 55.6634C76.6085 55.109 74.1448 59.0111 73.1533 58.4931C72.6786 58.245 73.1361 57.2947 72.4711 56.595C71.6898 55.7732 69.8138 55.7748 68.9585 56.6443C68.161 57.4554 68.8384 58.4234 67.9943 59.4509C67.2365 60.3734 66.3607 59.9936 65.5059 60.7329C64.0526 61.9886 64.5589 64.83 64.739 65.8441C65.3606 69.3348 67.2955 70.0409 66.8611 72.4216C66.7501 73.0307 66.4916 73.7078 66.6761 74.7021C66.8579 75.6766 67.3641 76.4116 67.7776 76.8905Z" fill="url(#paint27_linear_8_1561)"/>
<g opacity="0.3">
<path opacity="0.3" d="M85.649 69.351C85.4774 67.6346 86.8084 66.8364 86.5848 65.6117C86.4051 64.6282 85.2913 63.7437 84.245 63.5551C82.0136 63.1523 80.5688 66.4351 78.3492 66.0794C76.6331 65.8046 76.8235 63.7335 74.8865 62.901C71.8168 61.581 68.5992 65.6048 66.5576 64.4905C65.9441 64.1556 65.3236 63.2948 65.2796 60.9596C64.109 62.3026 64.5685 64.8874 64.7385 65.8442C65.3601 69.3349 67.295 70.041 66.8606 72.4217C66.7496 73.0308 66.4911 73.7079 66.6756 74.7017C66.8568 75.6772 67.3631 76.4122 67.7765 76.8911C67.9701 77.2458 68.1916 77.5752 68.3412 77.5367C68.9617 77.3749 66.5678 71.3326 68.7729 69.2171C69.9131 68.1231 71.1974 69.1201 75.8679 68.909C80.571 68.6963 81.7744 67.5724 83.1961 68.4333C84.4912 69.2176 85.6506 71.4574 84.6901 78.0917C84.9572 78.0301 85.2248 77.9685 85.4918 77.9068C85.1315 75.734 85.5246 74.3626 85.974 73.499C86.1091 73.2392 86.2888 72.9478 86.4507 72.6135C86.4164 72.0419 86.3193 71.414 86.1155 70.7546C85.878 69.9799 85.7042 69.9033 85.649 69.351Z" fill="url(#paint28_linear_8_1561)"/>
</g>
<path d="M85.5893 51.9827H67.6003C65.5743 51.9827 63.9316 53.6236 63.9316 55.6475V67.8371H89.2574V55.6475C89.2579 53.6236 87.6153 51.9827 85.5893 51.9827Z" fill="url(#paint29_linear_8_1561)"/>
<path d="M80.1167 67.8371H73.0723V51.042C73.0723 50.6787 73.3672 50.3841 73.7308 50.3841H79.4576C79.8212 50.3841 80.1162 50.6787 80.1162 51.042V67.8371H80.1167Z" fill="url(#paint30_linear_8_1561)"/>
<path d="M90.252 70.7164H62.9377C62.6926 70.7164 62.4937 70.5176 62.4937 70.2728V68.0973C62.4937 67.8524 62.6926 67.6537 62.9377 67.6537H90.252C90.4971 67.6537 90.696 67.8524 90.696 68.0973V70.2728C90.696 70.5176 90.4971 70.7164 90.252 70.7164Z" fill="url(#paint31_linear_8_1561)"/>
<path d="M64.3149 70.5359C64.8459 72.953 70.14 74.8521 76.5946 74.8521C83.0487 74.8521 88.3433 72.9536 88.8742 70.5359H64.3149Z" fill="url(#paint32_linear_8_1561)"/>
<path d="M65.3192 115.648C65.3192 117.285 63.9913 118.611 62.353 118.611H61.806C60.1677 118.611 58.8398 117.285 58.8398 115.648V99.9385C58.8398 98.3019 60.1677 96.9755 61.806 96.9755H62.353C63.9913 96.9755 65.3192 98.3019 65.3192 99.9385V115.648Z" fill="url(#paint33_linear_8_1561)"/>
<path d="M95.1229 115.648C95.1229 117.285 93.7951 118.611 92.1567 118.611H91.6097C89.9714 118.611 88.6436 117.285 88.6436 115.648V99.9385C88.6436 98.3019 89.9714 96.9755 91.6097 96.9755H92.1567C93.7951 96.9755 95.1229 98.3019 95.1229 99.9385V115.648Z" fill="url(#paint34_linear_8_1561)"/>
<path d="M99.7506 141.538C99.7506 143.174 98.4227 144.501 96.7844 144.501H56.808C55.1696 144.501 53.8418 143.174 53.8418 141.538V117.692C53.8418 116.055 55.1696 114.729 56.808 114.729H96.7844C98.4227 114.729 99.7506 116.055 99.7506 117.692V141.538Z" fill="url(#paint35_linear_8_1561)"/>
<path d="M76.5275 129.781C85.8953 130.459 86.6102 120.646 86.6102 120.646H67.9496C67.9496 120.646 67.5678 129.133 76.5275 129.781Z" fill="url(#paint36_linear_8_1561)"/>
<defs>
<linearGradient id="paint0_linear_8_1561" x1="28.1716" y1="68.6789" x2="28.4934" y2="66.1023" gradientUnits="userSpaceOnUse">
<stop offset="0.003597" stop-color="#26264F"/>
<stop offset="1" stop-color="#444B8C"/>
</linearGradient>
<linearGradient id="paint1_linear_8_1561" x1="26.8455" y1="66.3308" x2="30.0644" y2="60.5306" gradientUnits="userSpaceOnUse">
<stop offset="0.003597" stop-color="#26264F"/>
<stop offset="1" stop-color="#444B8C"/>
</linearGradient>
<linearGradient id="paint2_linear_8_1561" x1="23.1992" y1="63.5834" x2="33.9" y2="63.5834" gradientUnits="userSpaceOnUse">
<stop offset="0.003597" stop-color="#26264F"/>
<stop offset="1" stop-color="#444B8C"/>
</linearGradient>
<linearGradient id="paint3_linear_8_1561" x1="27.1522" y1="64.7466" x2="30.3308" y2="58.6244" gradientUnits="userSpaceOnUse">
<stop offset="0.003597" stop-color="#26264F"/>
<stop offset="1" stop-color="#444B8C"/>
</linearGradient>
<linearGradient id="paint4_linear_8_1561" x1="22.7198" y1="61.7818" x2="34.3742" y2="61.7818" gradientUnits="userSpaceOnUse">
<stop offset="0.003597" stop-color="#26264F"/>
<stop offset="1" stop-color="#444B8C"/>
</linearGradient>
<linearGradient id="paint5_linear_8_1561" x1="22.5469" y1="59.6782" x2="34.5519" y2="59.6782" gradientUnits="userSpaceOnUse">
<stop offset="0.003597" stop-color="#26264F"/>
<stop offset="1" stop-color="#444B8C"/>
</linearGradient>
<linearGradient id="paint6_linear_8_1561" x1="28.2511" y1="58.7739" x2="29.4309" y2="53.2445" gradientUnits="userSpaceOnUse">
<stop offset="0.003597" stop-color="#26264F"/>
<stop offset="1" stop-color="#444B8C"/>
</linearGradient>
<linearGradient id="paint7_linear_8_1561" x1="25.9811" y1="27.923" x2="49.4" y2="65.1427" gradientUnits="userSpaceOnUse">
<stop stop-color="#FCB148"/>
<stop offset="0.0521" stop-color="#FDBA46"/>
<stop offset="0.1424" stop-color="#FFC244"/>
<stop offset="0.3183" stop-color="#FFC444"/>
<stop offset="0.4849" stop-color="#FDB946"/>
<stop offset="0.7754" stop-color="#F99C4D"/>
<stop offset="0.8658" stop-color="#F8924F"/>
<stop offset="1" stop-color="#F8924F"/>
</linearGradient>
<linearGradient id="paint8_linear_8_1561" x1="26.8042" y1="19.5383" x2="22.1389" y2="58.0272" gradientUnits="userSpaceOnUse">
<stop stop-color="#FCB148"/>
<stop offset="0.0521" stop-color="#FDBA46"/>
<stop offset="0.1424" stop-color="#FFC244"/>
<stop offset="0.3183" stop-color="#FFC444"/>
<stop offset="0.4849" stop-color="#FDB946"/>
<stop offset="0.7754" stop-color="#F99C4D"/>
<stop offset="0.8658" stop-color="#F8924F"/>
<stop offset="1" stop-color="#F8924F"/>
</linearGradient>
<linearGradient id="paint9_linear_8_1561" x1="4.26836" y1="104.466" x2="79.1914" y2="104.466" gradientUnits="userSpaceOnUse">
<stop offset="0.003597" stop-color="#26264F"/>
<stop offset="1" stop-color="#444B8C"/>
</linearGradient>
<linearGradient id="paint10_linear_8_1561" x1="6.36924" y1="104.502" x2="77.0904" y2="104.502" gradientUnits="userSpaceOnUse">
<stop stop-color="#FCB148"/>
<stop offset="0.0521" stop-color="#FDBA46"/>
<stop offset="0.1424" stop-color="#FFC244"/>
<stop offset="0.3183" stop-color="#FFC444"/>
<stop offset="0.4849" stop-color="#FDB946"/>
<stop offset="0.7754" stop-color="#F99C4D"/>
<stop offset="0.8658" stop-color="#F8924F"/>
<stop offset="1" stop-color="#F8924F"/>
</linearGradient>
<linearGradient id="paint11_linear_8_1561" x1="30.0072" y1="109.368" x2="50.4025" y2="109.368" gradientUnits="userSpaceOnUse">
<stop offset="0.003597" stop-color="#26264F"/>
<stop offset="1" stop-color="#444B8C"/>
</linearGradient>
<linearGradient id="paint12_linear_8_1561" x1="6.36924" y1="104.527" x2="53.2226" y2="104.527" gradientUnits="userSpaceOnUse">
<stop stop-color="#FCB148"/>
<stop offset="0.0521" stop-color="#FDBA46"/>
<stop offset="0.1424" stop-color="#FFC244"/>
<stop offset="0.3183" stop-color="#FFC444"/>
<stop offset="0.4849" stop-color="#FDB946"/>
<stop offset="0.7754" stop-color="#F99C4D"/>
<stop offset="0.8658" stop-color="#F8924F"/>
<stop offset="1" stop-color="#F8924F"/>
</linearGradient>
<linearGradient id="paint13_linear_8_1561" x1="95.1585" y1="78.4253" x2="111.338" y2="102.838" gradientUnits="userSpaceOnUse">
<stop stop-color="#FCB148"/>
<stop offset="0.0521" stop-color="#FDBA46"/>
<stop offset="0.1424" stop-color="#FFC244"/>
<stop offset="0.3183" stop-color="#FFC444"/>
<stop offset="0.4849" stop-color="#FDB946"/>
<stop offset="0.7754" stop-color="#F99C4D"/>
<stop offset="0.8658" stop-color="#F8924F"/>
<stop offset="1" stop-color="#F8924F"/>
</linearGradient>
<linearGradient id="paint14_linear_8_1561" x1="134.032" y1="112.16" x2="102.281" y2="101.325" gradientUnits="userSpaceOnUse">
<stop stop-color="#FCB148"/>
<stop offset="0.0521" stop-color="#FDBA46"/>
<stop offset="0.1424" stop-color="#FFC244"/>
<stop offset="0.3183" stop-color="#FFC444"/>
<stop offset="0.4849" stop-color="#FDB946"/>
<stop offset="0.7754" stop-color="#F99C4D"/>
<stop offset="0.8658" stop-color="#F8924F"/>
<stop offset="1" stop-color="#F8924F"/>
</linearGradient>
<linearGradient id="paint15_linear_8_1561" x1="121.817" y1="129.537" x2="121.406" y2="99.6799" gradientUnits="userSpaceOnUse">
<stop stop-color="#FCB148"/>
<stop offset="0.0521" stop-color="#FDBA46"/>
<stop offset="0.1424" stop-color="#FFC244"/>
<stop offset="0.3183" stop-color="#FFC444"/>
<stop offset="0.4849" stop-color="#FDB946"/>
<stop offset="0.7754" stop-color="#F99C4D"/>
<stop offset="0.8658" stop-color="#F8924F"/>
<stop offset="1" stop-color="#F8924F"/>
</linearGradient>
<linearGradient id="paint16_linear_8_1561" x1="131.157" y1="83.1882" x2="114.285" y2="113.113" gradientUnits="userSpaceOnUse">
<stop stop-color="#444B8C"/>
<stop offset="0.9964" stop-color="#26264F"/>
</linearGradient>
<linearGradient id="paint17_linear_8_1561" x1="125.189" y1="102.91" x2="125.894" y2="91.5373" gradientUnits="userSpaceOnUse">
<stop stop-color="#444B8C"/>
<stop offset="0.9964" stop-color="#26264F"/>
</linearGradient>
<linearGradient id="paint18_linear_8_1561" x1="124.469" y1="118.76" x2="103.565" y2="111.625" gradientUnits="userSpaceOnUse">
<stop stop-color="#FCB148"/>
<stop offset="0.0521" stop-color="#FDBA46"/>
<stop offset="0.1424" stop-color="#FFC244"/>
<stop offset="0.3183" stop-color="#FFC444"/>
<stop offset="0.4849" stop-color="#FDB946"/>
<stop offset="0.7754" stop-color="#F99C4D"/>
<stop offset="0.8658" stop-color="#F8924F"/>
<stop offset="1" stop-color="#F8924F"/>
</linearGradient>
<linearGradient id="paint19_linear_8_1561" x1="119.655" y1="106.16" x2="98.2896" y2="140.187" gradientUnits="userSpaceOnUse">
<stop stop-color="#FF9085"/>
<stop offset="1" stop-color="#FB6FBB"/>
</linearGradient>
<linearGradient id="paint20_linear_8_1561" x1="114.935" y1="107.79" x2="108.992" y2="132.91" gradientUnits="userSpaceOnUse">
<stop stop-color="#FCB148"/>
<stop offset="0.0521" stop-color="#FDBA46"/>
<stop offset="0.1424" stop-color="#FFC244"/>
<stop offset="0.3183" stop-color="#FFC444"/>
<stop offset="0.4849" stop-color="#FDB946"/>
<stop offset="0.7754" stop-color="#F99C4D"/>
<stop offset="0.8658" stop-color="#F8924F"/>
<stop offset="1" stop-color="#F8924F"/>
</linearGradient>
<linearGradient id="paint21_linear_8_1561" x1="40.3533" y1="121.066" x2="113.937" y2="121.066" gradientUnits="userSpaceOnUse">
<stop stop-color="#AA80F9"/>
<stop offset="0.9964" stop-color="#6165D7"/>
</linearGradient>
<linearGradient id="paint22_linear_8_1561" x1="76.5061" y1="104.796" x2="76.226" y2="87.6884" gradientUnits="userSpaceOnUse">
<stop stop-color="#AA80F9"/>
<stop offset="0.9964" stop-color="#6165D7"/>
</linearGradient>
<linearGradient id="paint23_linear_8_1561" x1="76.6397" y1="106.567" x2="76.5462" y2="91.6027" gradientUnits="userSpaceOnUse">
<stop stop-color="#AB316D"/>
<stop offset="1" stop-color="#792D3D"/>
</linearGradient>
<linearGradient id="paint24_linear_8_1561" x1="75.3973" y1="85.154" x2="77.8254" y2="55.8931" gradientUnits="userSpaceOnUse">
<stop stop-color="#AB316D"/>
<stop offset="1" stop-color="#792D3D"/>
</linearGradient>
<linearGradient id="paint25_linear_8_1561" x1="66.7295" y1="84.4348" x2="69.1575" y2="55.1742" gradientUnits="userSpaceOnUse">
<stop stop-color="#AB316D"/>
<stop offset="1" stop-color="#792D3D"/>
</linearGradient>
<linearGradient id="paint26_linear_8_1561" x1="85.2528" y1="85.9718" x2="87.6808" y2="56.7112" gradientUnits="userSpaceOnUse">
<stop stop-color="#AB316D"/>
<stop offset="1" stop-color="#792D3D"/>
</linearGradient>
<linearGradient id="paint27_linear_8_1561" x1="74.7546" y1="71.0458" x2="81.1995" y2="51.0363" gradientUnits="userSpaceOnUse">
<stop stop-color="#311944"/>
<stop offset="1" stop-color="#6B3976"/>
</linearGradient>
<linearGradient id="paint28_linear_8_1561" x1="74.7545" y1="71.046" x2="81.1993" y2="51.0367" gradientUnits="userSpaceOnUse">
<stop stop-color="#311944"/>
<stop offset="1" stop-color="#6B3976"/>
</linearGradient>
<linearGradient id="paint29_linear_8_1561" x1="67.9833" y1="38.2229" x2="84.4097" y2="82.5497" gradientUnits="userSpaceOnUse">
<stop stop-color="#FFC444"/>
<stop offset="0.9964" stop-color="#F36F56"/>
</linearGradient>
<linearGradient id="paint30_linear_8_1561" x1="74.147" y1="52.2065" x2="86.7363" y2="89.2058" gradientUnits="userSpaceOnUse">
<stop stop-color="#FFC444"/>
<stop offset="0.9964" stop-color="#F36F56"/>
</linearGradient>
<linearGradient id="paint31_linear_8_1561" x1="62.4933" y1="69.185" x2="90.6958" y2="69.185" gradientUnits="userSpaceOnUse">
<stop stop-color="#FFC444"/>
<stop offset="0.9964" stop-color="#F36F56"/>
</linearGradient>
<linearGradient id="paint32_linear_8_1561" x1="73.1612" y1="61.3178" x2="80.4571" y2="81.0059" gradientUnits="userSpaceOnUse">
<stop stop-color="#FFC444"/>
<stop offset="0.9964" stop-color="#F36F56"/>
</linearGradient>
<linearGradient id="paint33_linear_8_1561" x1="58.84" y1="107.793" x2="65.3191" y2="107.793" gradientUnits="userSpaceOnUse">
<stop offset="0.003597" stop-color="#26264F"/>
<stop offset="1" stop-color="#444B8C"/>
</linearGradient>
<linearGradient id="paint34_linear_8_1561" x1="88.6436" y1="107.793" x2="95.1226" y2="107.793" gradientUnits="userSpaceOnUse">
<stop offset="0.003597" stop-color="#26264F"/>
<stop offset="1" stop-color="#444B8C"/>
</linearGradient>
<linearGradient id="paint35_linear_8_1561" x1="53.842" y1="129.614" x2="99.7507" y2="129.614" gradientUnits="userSpaceOnUse">
<stop offset="0.003597" stop-color="#26264F"/>
<stop offset="1" stop-color="#444B8C"/>
</linearGradient>
<linearGradient id="paint36_linear_8_1561" x1="72.6683" y1="128.12" x2="56.8704" y2="148.63" gradientUnits="userSpaceOnUse">
<stop offset="0.003597" stop-color="#26264F"/>
<stop offset="0.8332" stop-color="#3F4582"/>
<stop offset="1" stop-color="#444B8C"/>
</linearGradient>
</defs>
</svg>
