<svg width="200" height="187" viewBox="0 0 200 187" fill="none" xmlns="http://www.w3.org/2000/svg">
<path d="M175.141 35.2083C172.184 31.244 146.865 -1.54048 105.824 0.0564484C103.774 0.136495 63.748 2.20637 48.9843 27.9054C38.0636 46.9158 49.6257 63.7823 36.3031 76.7346C24.6945 88.0205 10.4284 80.5501 3.29434 89.6761C-7.57239 103.578 9.73308 141.123 36.321 162.061C63.7753 183.682 116.299 199.543 157.121 170.697C202.954 138.312 202.489 71.8671 175.141 35.2083Z" fill="#F4F7FA"/>
<path d="M109.829 152.839C103.796 147.163 95.8353 137.945 92.233 124.91C87.5089 107.816 94.432 99.1774 93.6509 70.2358C93.1572 51.9364 92.6289 39.1703 83.4269 32.3423C76.2156 26.9912 64.5411 25.9279 57.4557 30.8875C51.5645 35.0112 48.1559 43.7823 47.1159 50.0433C46.2682 55.1456 46.9489 58.8505 44.0153 61.5387C41.0172 64.2856 37.7802 62.7307 34.977 64.7653C29.2915 68.891 32.5837 82.5583 33.1153 84.7676C39.0337 109.339 61.6169 125.911 71.5548 133.02C79.7713 138.899 92.4825 146.732 109.829 152.839Z" fill="url(#paint0_linear_8_1668)"/>
<g opacity="0.5">
<path opacity="0.5" d="M116.729 157.368C106.21 153.361 97.1571 148.58 89.8202 143.159C78.9601 135.135 72.196 125.918 69.7156 115.762C67.776 107.82 68.4953 99.2122 69.4062 88.3152C70.1613 79.2819 71.508 72.9528 72.6964 67.3696C74.236 60.134 75.4523 54.4187 74.608 46.1545C73.751 37.7589 70.9884 29.4101 66.3967 21.3393L66.8106 21.1025C71.4349 29.2313 74.2174 37.6435 75.0817 46.1052C75.9334 54.4434 74.7104 60.1914 73.1615 67.4683C71.9765 73.0376 70.6331 79.3506 69.8799 88.3532C68.9371 99.6318 68.2564 107.781 70.1773 115.647C72.6305 125.691 79.334 134.818 90.1016 142.774C97.4033 148.169 106.419 152.928 116.897 156.92L116.729 157.368Z" fill="white"/>
<path opacity="0.5" d="M70.2086 81.9863L70.1321 81.7275C65.2756 65.3853 56.5553 55.16 50.0953 49.4607C43.1016 43.2904 37.1919 40.9557 37.1333 40.9323L37.3056 40.4868C37.3655 40.5101 43.3538 42.8761 50.41 49.1018C56.882 54.8118 65.6056 65.0291 70.5094 81.326C71.6851 80.763 76.9069 78.0867 82.132 72.6909C87.5767 67.0683 94.1405 57.2539 94.4905 42.4292L94.9669 42.4406C94.6129 57.4293 87.9706 67.3531 82.46 73.0384C76.4897 79.1987 70.5154 81.8523 70.4555 81.8783L70.2086 81.9863Z" fill="white"/>
<path opacity="0.5" d="M68.846 106.368L68.6797 106.32C60.7506 103.987 51.7509 94.8371 41.9308 79.1259C34.6311 67.4464 29.5863 56.3052 29.5364 56.1938L29.9702 55.997C30.0201 56.1077 35.0536 67.2242 42.3366 78.8764C49.0062 89.546 58.9681 102.848 68.6484 105.812C69.4562 104.649 75.0825 96.6708 82.1886 89.6807C89.8742 82.1203 107.764 79.5094 107.943 79.4841L108.01 79.957C107.832 79.9824 90.0958 82.5712 82.5219 90.0216C74.9082 97.5113 69.0011 106.139 68.9425 106.225L68.846 106.368Z" fill="white"/>
<path opacity="0.5" d="M86.8816 140.942L86.4099 140.886C86.3214 140.876 77.4055 139.781 65.7609 135.711C55.0113 131.953 39.6646 124.818 27.6002 112.163L4.30908 87.732L4.65308 87.4018L27.9442 111.833C39.9401 124.415 55.2089 131.515 65.906 135.256C75.9896 138.782 84.0132 140.067 85.9954 140.349C83.5016 135.821 82.6007 131.096 83.3173 126.296C83.9074 122.344 85.5888 118.337 88.3162 114.387C92.9478 107.677 99.0858 103.39 99.1476 103.348L99.4184 103.741C99.3572 103.783 93.2824 108.028 88.7007 114.669C86.018 118.557 84.3652 122.496 83.7877 126.373C83.0671 131.21 84.0285 135.974 86.6448 140.53L86.8816 140.942Z" fill="white"/>
</g>
<path d="M77.4249 152.439C64.3625 152.551 47.7058 150.826 31.743 143.621C27.669 141.783 2.50355 130.426 5.45312 118.938C6.49175 114.892 10.1419 114.247 11.6257 108.861C13.3836 102.479 9.38342 99.3008 6.60087 91.3561C4.94012 86.616 0.0809622 72.7432 8.36276 65.0427C13.3117 60.4413 22.7293 58.2514 29.9033 59.917C40.426 62.3598 44.0609 72.6185 49.9114 90.082C55.0973 105.563 53.7785 109.368 57.7075 120.45C60.6218 128.675 66.1044 139.997 77.4249 152.439Z" fill="url(#paint1_linear_8_1668)"/>
<g opacity="0.5">
<path opacity="0.5" d="M110.106 159.46C103.865 159.46 97.7467 158.745 91.7816 157.313C74.1468 153.081 58.8434 142.529 46.2959 125.951C33.2528 108.717 26.4547 89.2823 23.0481 76.0132C20.6747 66.7685 21.1092 56.5352 24.3382 45.5988L24.7953 45.7342C21.5909 56.5866 21.1584 66.7338 23.5098 75.8938C26.9045 89.1202 33.6799 108.491 46.6752 125.662C59.1541 142.15 74.367 152.643 91.8921 156.849C105.048 160.006 118.968 159.657 133.268 155.813L133.391 156.275C125.495 158.397 117.71 159.459 110.106 159.46Z" fill="white"/>
<path opacity="0.5" d="M32.4404 102.194L32.2601 102.078C4.06927 83.8704 4.31879 62.8721 5.06666 56.87C5.08129 56.7512 5.09194 56.6745 5.09261 56.6411L5.56901 56.6378C5.56967 56.6838 5.56169 56.7485 5.53907 56.9287C4.80118 62.8481 4.56298 83.5295 32.3353 101.558C33.0133 100.674 36.1751 96.393 38.7807 90.2068C41.4714 83.8184 44.1036 74.0306 41.3616 63.6799L41.8221 63.5572C44.6 74.0433 41.9372 83.9458 39.2145 90.4055C36.2669 97.3983 32.6114 101.981 32.5748 102.027L32.4404 102.194Z" fill="white"/>
<path opacity="0.5" d="M35.5813 126.583C24.3567 126.583 16.5107 123.648 11.5517 120.813C7.91752 118.735 5.41309 116.488 3.95261 114.969C2.36439 113.318 1.64646 112.173 1.61719 112.125L2.02173 111.873C2.05034 111.919 4.94866 116.495 11.8152 120.414C23.2502 126.94 36.7497 126.683 46.1061 125.302C46.7701 123.818 53.4317 108.321 51.8402 87.5898L50.1501 65.5655L50.6252 65.5288L52.3152 87.5531C53.9906 109.388 46.5598 125.461 46.484 125.621L46.4294 125.737L46.3037 125.755C42.4333 126.332 38.8629 126.583 35.5813 126.583Z" fill="white"/>
</g>
<path d="M95.9329 159.292V164.208H95.9402C96.2409 167.176 108.621 172.626 126.604 172.727C153.044 172.875 161.972 166.955 162.388 163.925H162.398V159.394L95.9329 159.292Z" fill="url(#paint2_linear_8_1668)"/>
<path d="M162.398 159.413C162.398 162.469 147.143 164.882 128.628 164.804C110.442 164.728 95.9329 162.268 95.9329 159.309C95.9329 156.35 110.441 153.935 128.628 153.915C147.143 153.895 162.398 156.356 162.398 159.413Z" fill="url(#paint3_linear_8_1668)"/>
<path d="M162.14 159.041C162.14 162.074 147.001 164.475 128.624 164.403C110.567 164.333 96.1582 161.895 96.1582 158.957C96.1582 156.018 110.567 153.617 128.624 153.593C147.001 153.569 162.14 156.008 162.14 159.041Z" fill="url(#paint4_linear_8_1668)"/>
<path d="M162.398 163.925V159.395L95.9329 159.292V164.208L162.398 163.925Z" fill="url(#paint5_linear_8_1668)"/>
<path d="M162.398 159.413C162.398 162.469 147.143 164.882 128.628 164.804C110.442 164.728 95.9329 162.268 95.9329 159.309C95.9329 156.35 110.441 153.935 128.628 153.915C147.143 153.895 162.398 156.356 162.398 159.413Z" fill="url(#paint6_linear_8_1668)"/>
<path d="M162.14 159.041C162.14 162.074 147.001 164.475 128.624 164.403C110.567 164.333 96.1582 161.895 96.1582 158.957C96.1582 156.018 110.567 153.617 128.624 153.593C147.001 153.569 162.14 156.008 162.14 159.041Z" fill="url(#paint7_linear_8_1668)"/>
<path d="M95.9329 149.973V154.89H95.9402C96.2409 157.858 108.621 163.05 126.604 162.957C155.099 162.81 161.972 157.638 162.388 154.607H162.398V150.076L95.9329 149.973Z" fill="url(#paint8_linear_8_1668)"/>
<path d="M162.398 150.094C162.398 153.15 147.143 155.563 128.628 155.485C110.442 155.409 95.9329 152.949 95.9329 149.99C95.9329 147.031 110.441 144.617 128.628 144.597C147.143 144.577 162.398 147.037 162.398 150.094Z" fill="url(#paint9_linear_8_1668)"/>
<path d="M162.14 149.722C162.14 152.755 147.001 155.156 128.624 155.085C110.567 155.015 96.1582 152.577 96.1582 149.639C96.1582 146.7 110.567 144.299 128.624 144.275C147.001 144.25 162.14 146.689 162.14 149.722Z" fill="url(#paint10_linear_8_1668)"/>
<path d="M162.398 154.607V150.077L95.9329 149.973V154.89L162.398 154.607Z" fill="url(#paint11_linear_8_1668)"/>
<path d="M162.398 150.094C162.398 153.15 147.143 155.563 128.628 155.485C110.442 155.409 95.9329 152.949 95.9329 149.99C95.9329 147.031 110.441 144.617 128.628 144.597C147.143 144.577 162.398 147.037 162.398 150.094Z" fill="url(#paint12_linear_8_1668)"/>
<path d="M162.14 149.722C162.14 152.755 147.001 155.156 128.624 155.085C110.567 155.015 96.1582 152.577 96.1582 149.639C96.1582 146.7 110.567 144.299 128.624 144.275C147.001 144.25 162.14 146.689 162.14 149.722Z" fill="url(#paint13_linear_8_1668)"/>
<path d="M95.9329 140.632V145.549H95.9402C96.2409 148.516 108.621 153.708 126.604 153.615C155.099 153.468 161.972 148.296 162.388 145.265H162.398V140.735L95.9329 140.632Z" fill="url(#paint14_linear_8_1668)"/>
<path d="M162.398 140.752C162.398 143.809 147.143 146.222 128.628 146.144C110.442 146.068 95.9329 143.608 95.9329 140.649C95.9329 137.69 110.441 135.275 128.628 135.256C147.143 135.234 162.398 137.696 162.398 140.752Z" fill="url(#paint15_linear_8_1668)"/>
<path d="M162.14 140.381C162.14 143.414 147.001 145.814 128.624 145.743C110.567 145.673 96.1582 143.235 96.1582 140.297C96.1582 137.359 110.567 134.957 128.624 134.933C147.001 134.909 162.14 137.348 162.14 140.381Z" fill="url(#paint16_linear_8_1668)"/>
<path d="M162.398 145.265V140.735L95.9329 140.632V145.549L162.398 145.265Z" fill="url(#paint17_linear_8_1668)"/>
<path d="M162.398 140.752C162.398 143.809 147.143 146.222 128.628 146.144C110.442 146.068 95.9329 143.608 95.9329 140.649C95.9329 137.69 110.441 135.275 128.628 135.256C147.143 135.234 162.398 137.696 162.398 140.752Z" fill="url(#paint18_linear_8_1668)"/>
<path d="M162.14 140.381C162.14 143.414 147.001 145.814 128.624 145.743C110.567 145.673 96.1582 143.235 96.1582 140.297C96.1582 137.359 110.567 134.957 128.624 134.933C147.001 134.909 162.14 137.348 162.14 140.381Z" fill="url(#paint19_linear_8_1668)"/>
<path d="M95.9329 131.289V136.206H95.9402C96.2409 139.174 108.621 144.366 126.604 144.273C155.099 144.126 161.972 138.954 162.388 135.923H162.398V131.392L95.9329 131.289Z" fill="url(#paint20_linear_8_1668)"/>
<path d="M162.398 131.41C162.398 134.467 147.143 136.88 128.628 136.802C110.442 136.725 95.9329 134.266 95.9329 131.307C95.9329 128.348 110.441 125.933 128.628 125.914C147.143 125.893 162.398 128.354 162.398 131.41Z" fill="url(#paint21_linear_8_1668)"/>
<path d="M162.14 131.039C162.14 134.073 147.001 136.473 128.624 136.402C110.567 136.332 96.1582 133.894 96.1582 130.956C96.1582 128.018 110.567 125.616 128.624 125.592C147.001 125.567 162.14 128.006 162.14 131.039Z" fill="url(#paint22_linear_8_1668)"/>
<path d="M162.398 135.923V131.393L95.9329 131.289V136.206L162.398 135.923Z" fill="url(#paint23_linear_8_1668)"/>
<path d="M162.398 131.41C162.398 134.467 147.143 136.88 128.628 136.802C110.442 136.725 95.9329 134.266 95.9329 131.307C95.9329 128.348 110.441 125.933 128.628 125.914C147.143 125.893 162.398 128.354 162.398 131.41Z" fill="url(#paint24_linear_8_1668)"/>
<path d="M162.14 131.039C162.14 134.073 147.001 136.473 128.624 136.402C110.567 136.332 96.1582 133.894 96.1582 130.956C96.1582 128.018 110.567 125.616 128.624 125.592C147.001 125.567 162.14 128.006 162.14 131.039Z" fill="url(#paint25_linear_8_1668)"/>
<path d="M95.9329 121.948V126.865H95.9402C96.2409 129.833 108.621 135.024 126.604 134.932C155.099 134.785 161.972 129.612 162.388 126.581H162.398V122.051L95.9329 121.948Z" fill="url(#paint26_linear_8_1668)"/>
<path d="M162.398 122.069C162.398 125.125 147.143 127.539 128.628 127.46C110.442 127.384 95.9329 124.924 95.9329 121.965C95.9329 119.006 110.441 116.591 128.628 116.572C147.143 116.551 162.398 119.012 162.398 122.069Z" fill="url(#paint27_linear_8_1668)"/>
<path d="M162.14 121.697C162.14 124.73 147.001 127.131 128.624 127.06C110.567 126.99 96.1582 124.552 96.1582 121.614C96.1582 118.676 110.567 116.274 128.624 116.25C147.001 116.225 162.14 118.664 162.14 121.697Z" fill="url(#paint28_linear_8_1668)"/>
<path d="M162.398 126.582V122.051L95.9329 121.948V126.865L162.398 126.582Z" fill="url(#paint29_linear_8_1668)"/>
<path d="M162.398 122.069C162.398 125.125 147.143 127.539 128.628 127.46C110.442 127.384 95.9329 124.924 95.9329 121.965C95.9329 119.006 110.441 116.591 128.628 116.572C147.143 116.551 162.398 119.012 162.398 122.069Z" fill="url(#paint30_linear_8_1668)"/>
<path d="M162.14 121.697C162.14 124.73 147.001 127.131 128.624 127.06C110.567 126.99 96.1582 124.552 96.1582 121.614C96.1582 118.676 110.567 116.274 128.624 116.25C147.001 116.225 162.14 118.664 162.14 121.697Z" fill="url(#paint31_linear_8_1668)"/>
<path d="M95.9329 112.607V117.523H95.9402C96.2409 120.491 108.621 125.683 126.604 125.59C155.099 125.443 161.972 120.271 162.388 117.24H162.398V112.709L95.9329 112.607Z" fill="url(#paint32_linear_8_1668)"/>
<path d="M162.398 112.727C162.398 115.783 147.143 118.197 128.628 118.119C110.442 118.042 95.9329 115.582 95.9329 112.623C95.9329 109.664 110.441 107.249 128.628 107.229C147.143 107.209 162.398 109.671 162.398 112.727Z" fill="url(#paint33_linear_8_1668)"/>
<path d="M162.14 112.356C162.14 115.389 147.001 117.79 128.624 117.718C110.567 117.648 96.1582 115.21 96.1582 112.272C96.1582 109.334 110.567 106.933 128.624 106.909C147.001 106.884 162.14 109.323 162.14 112.356Z" fill="url(#paint34_linear_8_1668)"/>
<path d="M162.398 117.24V112.709L95.9329 112.607V117.524L162.398 117.24Z" fill="url(#paint35_linear_8_1668)"/>
<path d="M162.398 112.727C162.398 115.783 147.143 118.197 128.628 118.119C110.442 118.042 95.9329 115.582 95.9329 112.623C95.9329 109.664 110.441 107.249 128.628 107.229C147.143 107.209 162.398 109.671 162.398 112.727Z" fill="url(#paint36_linear_8_1668)"/>
<path d="M162.14 112.356C162.14 115.389 147.001 117.79 128.624 117.718C110.567 117.648 96.1582 115.21 96.1582 112.272C96.1582 109.334 110.567 106.933 128.624 106.909C147.001 106.884 162.14 109.323 162.14 112.356Z" fill="url(#paint37_linear_8_1668)"/>
<path d="M95.9329 103.264V108.181H95.9402C96.2409 111.149 108.621 116.341 126.604 116.248C155.099 116.101 161.972 110.929 162.388 107.898H162.398V103.367L95.9329 103.264Z" fill="url(#paint38_linear_8_1668)"/>
<path d="M162.398 103.385C162.398 106.441 147.143 108.855 128.628 108.777C110.442 108.7 95.9329 106.241 95.9329 103.281C95.9329 100.322 110.441 97.9075 128.628 97.8875C147.143 97.8675 162.398 100.328 162.398 103.385Z" fill="url(#paint39_linear_8_1668)"/>
<path d="M162.14 103.014C162.14 106.047 147.001 108.448 128.624 108.377C110.567 108.307 96.1582 105.869 96.1582 102.931C96.1582 99.9926 110.567 97.5912 128.624 97.5672C147.001 97.5419 162.14 99.9806 162.14 103.014Z" fill="url(#paint40_linear_8_1668)"/>
<path d="M162.398 107.898V103.368L95.9329 103.264V108.181L162.398 107.898Z" fill="url(#paint41_linear_8_1668)"/>
<path d="M162.398 103.385C162.398 106.441 147.143 108.855 128.628 108.777C110.442 108.7 95.9329 106.241 95.9329 103.281C95.9329 100.322 110.441 97.9075 128.628 97.8875C147.143 97.8675 162.398 100.328 162.398 103.385Z" fill="url(#paint42_linear_8_1668)"/>
<path d="M162.14 103.014C162.14 106.047 147.001 108.448 128.624 108.377C110.567 108.307 96.1582 105.869 96.1582 102.931C96.1582 99.9926 110.567 97.5912 128.624 97.5672C147.001 97.5419 162.14 99.9806 162.14 103.014Z" fill="url(#paint43_linear_8_1668)"/>
<path d="M57.4205 156.21H48V145.364H59.3042L62.3396 127.219H51.8725V116.373H64.2238L67.05 99.9999H78.2497L75.4235 116.373H92.5893L95.3106 99.9999H106.51L103.684 116.373H113V127.219H101.8L98.7654 145.364H109.232V156.21H96.8812L93.9504 173H82.7507L85.6815 156.21H68.5156L65.6894 173H54.4897L57.4205 156.21ZM87.5657 145.364L90.7055 127.218H73.5397L70.3994 145.364H87.5657Z" fill="#FF7536"/>
<path d="M122.675 66.0095C121.634 65.3331 122.582 63.3647 122.638 59.1369C122.707 53.9565 121.335 52.9906 122.437 50.9581C123.785 48.4727 127.178 47.4441 129.426 47.3961C129.921 47.3854 130.037 47.1139 134.191 48.1925C141.674 50.1356 143.548 48.0524 146.899 50.133C150.137 52.1435 148.719 54.3448 151.864 56.7021C156.96 60.5237 162.319 56.392 165.962 59.5885C169.407 62.6122 169.487 70.3154 165.863 74.5191C161.755 79.2846 154.347 77.8531 149.382 76.9079C148.337 76.7091 143.061 75.5984 137.567 71.5327C134.528 69.2841 132.441 66.882 131.114 65.1123C130.802 64.7608 130.316 64.3346 129.674 64.2665C128.903 64.1838 128.284 64.6567 127.986 64.8635C126.42 65.9522 123.697 66.6746 122.675 66.0095Z" fill="url(#paint44_linear_8_1668)"/>
<path d="M126.857 63.1709C125.519 61.9481 120.743 64.3042 117.577 67.4313C113.859 71.1048 114.145 74.0839 110.9 78.6472C109.286 80.9159 106.52 83.9703 101.62 86.6459C101.967 87.5151 102.314 88.3849 102.661 89.2541C105.03 89.3968 109.682 89.3128 114.022 86.4718C117.036 84.498 118.587 81.8831 121.567 76.7335C124.557 71.5664 128.53 64.6991 126.857 63.1709Z" fill="url(#paint45_linear_8_1668)"/>
<path d="M96.6923 133.044L100.42 130.798H102.103C102.103 130.798 102.676 132.938 102.611 133.044C101.862 134.276 98.371 135.213 96.1932 135.29C95.8313 135.303 95.3269 135.305 95.1965 135.042C94.9749 134.597 95.9617 133.664 96.6923 133.044Z" fill="url(#paint46_linear_8_1668)"/>
<path d="M100.486 128.347C100.726 129.737 100.423 130.463 100.095 130.869C99.8653 131.154 99.661 131.236 98.2963 132.419C97.8452 132.811 97.615 133.02 97.6675 133.129C97.7274 133.255 98.1253 133.187 98.9856 132.979C100.861 132.527 101.802 132.292 102.032 131.84C102.241 131.43 102.056 131.246 102.068 130.13C102.076 129.395 102.225 128.804 102.342 128.433C101.724 128.405 101.106 128.376 100.486 128.347Z" fill="url(#paint47_linear_8_1668)"/>
<path d="M97.7916 117.327C97.7916 117.327 96.1069 119.343 96.381 121.551C96.6551 123.76 99.6054 120.531 100.017 119.439C100.428 118.348 100.908 116.793 100.908 116.793C100.908 116.793 98.8395 115.503 97.7916 117.327Z" fill="url(#paint48_linear_8_1668)"/>
<path d="M98.4335 114.175C98.4335 114.175 98.8906 116.522 98.019 117.762C97.5852 118.379 96.9996 118.902 97.1713 119.405C97.2864 119.741 97.7249 119.983 98.0962 119.945C98.8068 119.872 99.2007 118.78 99.4788 118.009C99.8893 116.871 100.118 114.437 100.118 114.437L98.4335 114.175Z" fill="url(#paint49_linear_8_1668)"/>
<path d="M99.7763 116.154C99.2579 115.964 98.7403 115.775 98.2219 115.586C97.4135 113.735 96.4274 110.696 96.7568 107.002C97.6038 97.5007 106.369 92.4658 107.343 91.9268C109.731 93.1282 112.15 94.8225 112.237 96.9591C112.347 99.6406 108.703 101.058 105.278 104.98C103.222 107.334 101.025 110.841 99.7763 116.154Z" fill="url(#paint50_linear_8_1668)"/>
<path d="M100.335 129.434C98.6232 122.731 99.0604 117.261 99.5541 114.11C100.301 109.347 101.818 99.6593 108.27 96.0466C109.679 95.2575 111.694 94.5511 114.148 92.3578C116.198 90.5261 117.501 88.6003 118.287 87.2428C126.916 84.7053 134.874 85.7339 138.386 90.3726C138.792 90.9089 139.808 92.0716 140.004 93.7859C140.448 97.6542 136.656 102.312 132.402 103.284C126.995 104.52 123.858 98.9543 119.068 100.806C117.728 101.324 116.592 102.608 114.32 105.175C111.429 108.441 109.805 111.455 109.19 112.661C107.359 116.252 105.972 118.903 105.769 122.338C105.721 123.138 105.693 124.755 104.759 126.499C104.041 127.838 103.068 128.73 102.344 129.282C101.674 129.333 101.004 129.383 100.335 129.434Z" fill="url(#paint51_linear_8_1668)"/>
<path opacity="0.3" d="M140.004 93.7868C139.808 92.0725 138.792 90.9098 138.386 90.3735C134.874 85.7341 126.916 84.7055 118.288 87.2437C117.501 88.6005 116.198 90.5269 114.148 92.3587C111.694 94.552 109.679 95.2584 108.27 96.0475C104.331 98.2535 102.232 102.724 101.025 106.957C102.817 104.17 104.351 103.43 105.538 103.417C107.238 103.398 107.998 104.854 110.026 104.655C112.195 104.442 112.691 102.645 114.45 102.438C114.976 102.376 115.623 102.457 116.401 102.873C117.439 101.784 118.212 101.139 119.068 100.808C123.859 98.9559 126.995 104.522 132.402 103.286C136.656 102.313 140.448 97.6551 140.004 93.7868Z" fill="url(#paint52_linear_8_1668)"/>
<path d="M104.805 99.0443C105.782 98.9923 107.286 98.9623 109.1 99.1417C117.709 99.9949 120.082 104.264 127.199 105.306C128.882 105.553 136.376 106.65 139.622 102.306C141.952 99.1878 141.6 93.8146 139.051 91.7013C137.973 90.8068 136.905 90.8315 129.996 90.8942C127.394 90.9175 124.792 90.9262 122.19 90.9596C111.177 91.1003 109.071 90.3359 107.067 92.1616C106.132 93.0141 104.764 94.8439 104.805 99.0443Z" fill="url(#paint53_linear_8_1668)"/>
<path d="M128.056 63.6186C128.056 63.6186 140.907 59.8611 142.24 69.2933C143.518 78.3339 136.972 82.4829 139.951 91.6403C140.296 92.7015 115.487 87.8394 115.487 87.8394C118.798 83.6976 119.568 80.2803 119.647 77.9043C119.734 75.2994 118.985 74.1154 119.647 71.0363C119.647 71.0363 120.386 67.6003 123.052 64.6506C123.434 64.2263 123.89 63.7854 128.056 63.6186Z" fill="url(#paint54_linear_8_1668)"/>
<path d="M130.847 57.9656C130.729 58.5173 130.129 61.4764 131.337 62.2375C131.599 62.4029 132.102 62.497 133.108 62.6857C133.766 62.8098 134.319 62.8852 134.708 62.9319C134.652 63.4282 134.486 64.236 133.914 64.9704C132.313 67.0296 129.103 66.4966 128.645 66.4133C127.03 66.1184 125.441 65.6181 125.057 65.3126C124.473 64.847 124.013 64.4981 123.742 64.1433C124.367 63.8404 125.628 63.042 126.475 62.7811C127.108 62.5857 127.702 62.4469 128.242 62.3469C128.331 61.7752 128.42 61.2035 128.509 60.6319C129.288 59.7434 130.068 58.8548 130.847 57.9656Z" fill="url(#paint55_linear_8_1668)"/>
<path d="M130.903 59.4403C130.903 59.4403 130.685 61.6089 128.582 61.9911C126.7 62.3333 125.283 57.7727 126.246 56.5927C126.568 56.1991 127.361 55.8249 128.049 55.8449C128.533 55.859 130.167 56.4826 130.394 58.1216C130.72 57.7781 131.125 57.6793 131.325 57.8227C131.579 58.0055 131.443 58.5358 131.412 58.6565C131.305 59.0728 131.034 59.3316 130.903 59.4403Z" fill="url(#paint56_linear_8_1668)"/>
<path d="M112.866 88.8983L132.536 89.8581C132.807 89.8715 133.054 90.0169 133.197 90.2477L133.741 91.1235C134.012 91.5598 133.686 92.1214 133.174 92.1021L112.339 91.3063L112.866 88.8983Z" fill="url(#paint57_linear_8_1668)"/>
<path d="M92.4086 77.9171L112.729 78.312C113.331 78.324 113.881 78.6522 114.179 79.1765L121.215 91.5883L99.7542 90.7312C99.1653 90.7078 98.6277 90.3876 98.325 89.8807L91.8051 78.961C91.5276 78.4961 91.8683 77.9064 92.4086 77.9171Z" fill="url(#paint58_linear_8_1668)"/>
<path opacity="0.3" d="M114.179 79.1757C113.881 78.6514 113.331 78.3232 112.73 78.3112L112.284 78.3025C112.218 78.9602 112.017 79.5619 111.615 80.0475C110.362 81.5637 108.28 80.6285 106.729 82.2335C105.024 83.9965 106.599 86.0944 105.075 87.7353C103.47 89.4623 100.877 88.0562 97.8953 89.1615L98.3244 89.8806C98.6272 90.3876 99.1648 90.7077 99.7536 90.7311L121.215 91.5883L114.179 79.1757Z" fill="url(#paint59_linear_8_1668)"/>
<path d="M130.934 88.2401C130.677 87.5624 130.421 86.8847 130.166 86.2069C132.996 85.4291 136.909 84.2798 140.923 82.8423C141.552 82.6168 142.298 82.338 142.543 81.6749C143.23 79.8145 138.866 77.8867 137.169 73.825C135.601 70.0681 136.464 64.8544 138.285 64.2387C142.073 62.9573 155.509 79.7225 150.71 86.7899C147.997 90.7843 139.635 91.4207 130.934 88.2401Z" fill="url(#paint60_linear_8_1668)"/>
<path d="M130.165 86.2059C128.389 85.26 126.262 86.2299 126.126 86.2946C125.736 86.4794 125.168 86.8083 124.594 87.3959C124.529 87.4846 123.758 88.5553 124.039 88.8981C124.264 89.173 125.135 88.9448 126.183 88.2924C126.622 88.2311 127.275 88.1744 128.058 88.2464C129.496 88.3792 130.155 88.8348 130.676 88.4419C131.058 88.1544 131.189 87.546 131.051 87.0937C130.903 86.6075 130.466 86.366 130.165 86.2059Z" fill="url(#paint61_linear_8_1668)"/>
<path d="M53.6505 169.502C53.6505 169.502 59.5602 172.195 59.6567 172.625C59.7532 173.054 55.8562 172.48 54.2653 172.542C52.6744 172.605 51.3656 172.133 51.5093 171.458C51.6537 170.782 52.21 169.083 52.21 169.083L53.6505 169.502Z" fill="url(#paint62_linear_8_1668)"/>
<path d="M53.8668 167.316L53.5075 169.984C53.5075 169.984 52.572 170.318 51.9432 169.923L51.675 166.998L53.8668 167.316Z" fill="url(#paint63_linear_8_1668)"/>
<path d="M34.5778 167.037L34.0388 168.223C33.8885 168.555 33.8798 168.932 34.0162 169.269C34.3735 170.15 35.0808 171.866 35.3489 172.302C35.7142 172.897 39.5547 172.775 39.5547 172.775C39.5547 172.775 39.8308 172.254 38.9685 171.781C38.1062 171.308 37.5879 171.283 37.1993 170.469C36.8107 169.655 36.3117 167.274 36.3117 167.274L34.5778 167.037Z" fill="url(#paint64_linear_8_1668)"/>
<path d="M37.0517 163.878C36.8288 164.109 36.0935 167.975 36.0935 167.975C36.0935 167.975 35.7648 168.532 34.9192 167.884C34.0728 167.236 34.5366 167.594 34.5366 167.594L34.2019 163.93L37.0517 163.878Z" fill="url(#paint65_linear_8_1668)"/>
<path d="M57.1184 113.723C57.4305 121.68 57.4431 130.325 56.986 139.561C56.4717 149.961 55.4383 159.574 54.1362 168.288C53.6518 168.303 53.1435 168.306 52.6119 168.291C52.2532 168.281 51.9052 168.263 51.5692 168.24C50.8932 166.433 50.0948 164.057 49.3795 161.219C48.6276 158.235 48.1738 155.558 47.8505 152.999C46.7127 143.986 48.0461 143.2 47.1226 136.52C46.3048 130.605 45.1411 130.374 43.7757 121.975C42.294 112.863 43.3971 111.495 43.9334 111.001C46.217 108.898 51.5812 110.33 57.1184 113.723Z" fill="url(#paint66_linear_8_1668)"/>
<path opacity="0.3" d="M43.934 111.001C46.1117 108.996 51.0927 110.21 56.3531 113.271C50.3016 119.825 49.6415 124.078 50.3674 126.836C51.1872 129.955 53.6803 130.853 53.671 134.263C53.659 138.453 49.887 139.563 49.9676 143.997C50.0208 146.929 51.6782 146.899 52.0694 150.52C52.5325 154.805 50.3674 156.282 51.0687 159.452C51.3708 160.816 52.2318 162.597 54.6843 164.433C54.5074 165.735 54.3264 167.024 54.1374 168.288C53.6537 168.303 53.1447 168.306 52.6131 168.291C52.2544 168.281 51.9064 168.263 51.5704 168.24C50.8944 166.433 50.096 164.058 49.3807 161.219C48.6288 158.235 48.175 155.558 47.8517 152.998C46.7139 143.986 48.0473 143.199 47.1238 136.52C46.306 130.605 45.1423 130.373 43.777 121.975C42.2945 112.862 43.3977 111.495 43.934 111.001Z" fill="url(#paint67_linear_8_1668)"/>
<path d="M54.7325 110.15C50.5533 118.406 46.2092 128.568 42.6967 140.511C40.0419 149.537 38.3545 157.906 37.2793 165.308C37.0245 165.469 36.417 165.805 35.5846 165.804C34.4495 165.802 33.6876 165.175 33.4867 164.999C32.0036 159.988 31.5285 155.642 31.3981 152.476C31.3143 150.45 31.1939 147.073 31.9304 142.789C32.7555 137.989 33.703 137.602 34.9279 132.478C36.1994 127.16 35.5666 125.957 36.5906 119.376C37.0111 116.673 37.7783 112.631 39.2734 107.721C44.4266 108.531 49.5792 109.341 54.7325 110.15Z" fill="url(#paint68_linear_8_1668)"/>
<path d="M43.5462 84.3376C49.2997 80.9682 51.7655 81.3565 53.4336 78.33C55.083 75.3369 55.0797 70.5874 52.3497 68.0713C52.1494 67.8865 50.0695 66.0294 47.2556 66.3476C42.4544 66.8906 41.9094 73.3551 37.9119 73.8594C34.7228 74.2616 34.0641 70.3113 28.4564 67.9806C21.9278 65.2676 15.5064 67.5823 14.4857 67.9672C8.6538 70.1652 5.64701 74.5705 4.74877 75.9266C-0.838973 84.3622 0.117158 96.2499 5.64768 102.81C6.59782 103.937 8.36769 105.581 11.0405 106.715C15.7592 108.717 21.5852 104.902 23.1747 103.861C27.7045 100.895 26.9826 98.9982 32.8232 93.052C35.1287 90.704 38.4509 87.3213 43.5462 84.3376Z" fill="url(#paint69_linear_8_1668)"/>
<path d="M87.5597 93.3076C87.5597 93.3076 86.9661 91.5272 86.8171 90.1584C86.668 88.7896 89.0202 88.7429 89.5824 88.3653C89.6862 88.2953 89.7721 88.292 89.8393 88.3367C90.0036 88.4474 89.81 89.0364 89.4653 90.1904C88.9051 92.0655 88.8871 92.2476 88.605 92.5285C88.2477 92.8853 87.5597 93.3076 87.5597 93.3076Z" fill="url(#paint70_linear_8_1668)"/>
<path d="M86.1481 89.1088C86.6265 89.7485 87.1055 90.3882 87.5839 91.0279C87.2612 92.37 86.2 96.0074 82.798 98.9445C82.3242 99.3534 78.2575 102.758 72.4283 102.543C63.5843 102.217 58.9414 93.8622 58.7085 93.4266C57.3225 90.6236 52.3143 80.1756 54.9765 78.0897C56.8282 76.6389 61.996 79.5426 64.9303 81.9113C69.5572 85.6468 69.0888 88.425 73.7843 91.2673C75.441 92.2699 78.8883 94.3578 82.2397 93.0264C84.4913 92.1325 85.6637 90.106 86.1481 89.1088Z" fill="white"/>
<path opacity="0.33" d="M86.1481 89.1088C86.6265 89.7485 87.1055 90.3882 87.5839 91.0279C87.2612 92.37 86.2 96.0074 82.798 98.9445C82.3242 99.3534 78.2575 102.758 72.4283 102.543C63.5843 102.217 58.9414 93.8622 58.7085 93.4266C57.3225 90.6236 52.3143 80.1756 54.9765 78.0897C56.8282 76.6389 61.996 79.5426 64.9303 81.9113C69.5572 85.6468 69.0888 88.425 73.7843 91.2673C75.441 92.2699 78.8883 94.3578 82.2397 93.0264C84.4913 92.1325 85.6637 90.106 86.1481 89.1088Z" fill="url(#paint71_linear_8_1668)"/>
<path d="M62.9364 127.894C64.5319 126.854 64.824 124.647 64.9391 123.343C65.6351 115.47 62.6756 108.918 62.2185 99.4252C62.0801 96.5535 62.2923 95.9411 62.0588 91.4285C61.579 82.1578 60.4612 80.4708 59.5064 79.5129C57.1936 77.1942 53.8309 77.1429 51.8488 77.1128C51.0603 77.1008 43.7765 77.0842 40.9035 81.6488C38.7291 85.1042 41.6574 87.0907 40.7611 93.5071C39.6673 101.337 33.9937 107.779 32.7049 109.181C30.8465 111.202 29.0913 112.548 27.6002 115.659C26.1331 118.718 26.833 119.499 25.4464 122.056C22.9007 126.75 18.6344 127.634 19.0649 129.333C19.3963 130.641 22.1848 131.148 24.0106 131.092C26.7186 131.011 27.4432 129.689 29.7706 129.089C34.2771 127.926 35.7722 131.793 40.3626 131.332C45.5085 130.816 45.8804 125.731 50.4927 125.895C53.0211 125.985 53.946 127.55 59.2669 128.293C60.76 128.502 61.9257 128.552 62.9364 127.894Z" fill="white"/>
<path opacity="0.15" d="M62.9364 127.893C64.5319 126.854 64.824 124.647 64.9391 123.343C65.6351 115.469 62.6756 108.917 62.2185 99.4246C62.0801 96.5529 62.2923 95.9406 62.0588 91.4279C61.6768 84.0543 61.5278 81.3067 59.5064 79.5123C58.5749 78.6852 56.7957 77.6313 55.7571 78.2329C53.8375 79.3449 57.0566 84.6073 54.8795 88.709C53.0251 92.2031 49.52 90.5888 44.1911 94.1469C38.3751 98.0298 40.6241 101.239 32.7049 109.181C30.9876 110.903 29.09 112.551 27.6002 115.659C26.1331 118.718 26.833 119.499 25.4464 122.056C22.9007 126.75 18.6344 127.634 19.0649 129.333C19.3963 130.641 22.1848 131.148 24.0106 131.092C26.7186 131.011 27.4432 129.69 29.7706 129.089C34.2771 127.926 35.7722 131.793 40.3626 131.332C45.5085 130.816 45.8804 125.731 50.4927 125.895C53.0211 125.985 53.946 127.55 59.2669 128.293C60.76 128.502 61.9257 128.552 62.9364 127.893Z" fill="url(#paint72_linear_8_1668)"/>
<path opacity="0.15" d="M22.4155 129.493C25.5121 128.55 26.0504 125.881 29.6739 125.175C33.0986 124.508 34.1512 126.592 36.9324 125.654C40.2586 124.534 39.6298 121.258 42.8349 119.817C46.9854 117.95 50.9889 122.116 53.4434 120.057C55.0037 118.748 53.5639 116.916 55.2778 113.899C57.1562 110.594 59.8748 111.053 61.2601 108.302C62.5835 105.674 61.0559 103.365 60.3825 99.5851C59.8762 96.7414 59.7784 92.597 61.7405 87.1185C61.8636 88.3365 61.9714 89.7573 62.0579 91.4283C62.2915 95.941 62.0792 96.5533 62.2176 99.425C62.6747 108.918 65.6342 115.47 64.9383 123.343C64.8232 124.648 64.5311 126.854 62.9355 127.894C61.9248 128.552 60.7591 128.502 59.266 128.293C53.9451 127.549 53.0203 125.985 50.4919 125.894C45.8796 125.73 45.5076 130.816 40.3617 131.332C35.7713 131.793 34.2763 127.926 29.7698 129.089C27.4423 129.689 26.7177 131.011 24.0097 131.092C22.3629 131.142 19.937 130.732 19.2344 129.691C20.5205 129.881 21.5671 129.751 22.4155 129.493Z" fill="url(#paint73_linear_8_1668)"/>
<path d="M49.0832 72.7153C49.0832 72.7153 49.2961 76.2681 48.4185 76.9344C47.863 77.356 46.9567 77.7856 46.3659 78.0444C46.1876 78.1225 46.2135 78.3833 46.4038 78.4266L51.4898 79.5766C51.732 79.6374 51.9882 79.578 52.1798 79.4172L54.136 77.7729C54.269 77.6609 54.1972 77.4427 54.0235 77.4327L52.3595 77.3367C51.6136 77.1786 51.0327 76.5909 50.8817 75.8418L50.4066 73.4838L49.0832 72.7153Z" fill="url(#paint74_linear_8_1668)"/>
<path d="M49.1547 73.9395C49.1547 73.9395 50.0602 75.1855 51.4801 74.6659C52.7516 74.2009 51.9925 70.909 50.9844 70.5334C50.6478 70.408 50.0303 70.4634 49.6171 70.7215C49.327 70.903 48.5512 71.8689 48.9957 72.9515C48.6743 72.8581 48.3915 72.9429 48.321 73.1023C48.2312 73.3044 48.5033 73.5799 48.5645 73.6426C48.7788 73.8587 49.0363 73.9194 49.1547 73.9395Z" fill="url(#paint75_linear_8_1668)"/>
<path d="M59.5783 90.7791L58.9868 88.3584C58.895 87.9835 59.0533 87.5979 59.4113 87.3344C60.2729 86.7007 60.4858 86.2078 60.9962 86.0697C61.9277 85.8175 62.3828 86.5053 61.7008 86.7895C61.0188 87.0736 60.4958 87.6333 60.7759 88.6232C61.0554 89.6131 60.5231 90.4563 59.5783 90.7791Z" fill="url(#paint76_linear_8_1668)"/>
<path d="M61.1287 90.8413C60.3137 90.3257 59.4979 89.8107 58.6828 89.2951C58.3096 90.1236 57.0733 92.579 54.2695 93.9331C51.807 95.1225 47.8893 95.5814 46.1334 93.6663C44.3249 91.6945 44.627 88.1024 45.0701 84.0167C45.3988 80.9849 46.0342 79.2486 45.2298 78.7123C44.4214 78.174 42.7786 79.2566 40.9754 80.4453C39.988 81.0963 38.1603 82.301 36.9287 83.8086C34.1388 87.2232 33.1654 93.7077 36.3492 98.8913C38.7445 102.791 43.2703 105.574 48.0443 105.328C54.6281 104.988 60.5905 98.9407 61.1287 90.8413Z" fill="white"/>
<path d="M64.8405 73.9098L80.3103 70.1476L91.2955 81.6977L86.8102 97.0101L71.3404 100.773L60.3552 89.2222L64.8405 73.9098Z" fill="url(#paint77_linear_8_1668)"/>
<path d="M71.6131 81.031L77.5448 79.5881L81.7566 84.0167L80.0373 89.8882L74.1056 91.331L69.8938 86.9024L71.6131 81.031Z" fill="white"/>
<path opacity="0.3" d="M64.8405 73.9099L71.6132 81.0314L69.8939 86.9028L60.3552 89.2222L64.8405 73.9099Z" fill="white"/>
<path d="M80.0376 89.8885L74.1058 91.3314L71.3406 100.773L86.8103 97.01L80.0376 89.8885Z" fill="url(#paint78_linear_8_1668)"/>
<path d="M81.7569 84.017L77.5452 79.5884L80.3104 70.1476L91.2956 81.6977L81.7569 84.017Z" fill="url(#paint79_linear_8_1668)"/>
<path d="M83.9984 74.918L76.5463 85.6068L67.3743 94.8555L74.827 84.1666L83.9984 74.918Z" fill="white"/>
<path d="M66.9578 75.7759L76.3534 84.7952L84.0656 95.2974L74.67 86.2781L66.9578 75.7759Z" fill="white"/>
<path d="M75.5726 87.434C76.6229 87.399 77.4461 86.517 77.4112 85.464C77.3763 84.411 76.4965 83.5858 75.4462 83.6207C74.3959 83.6557 73.5727 84.5377 73.6076 85.5907C73.6425 86.6437 74.5222 87.469 75.5726 87.434Z" fill="white"/>
<path d="M73.9059 94.8303C74.6074 94.8303 75.1761 94.2602 75.1761 93.5569C75.1761 92.8536 74.6074 92.2835 73.9059 92.2835C73.2044 92.2835 72.6357 92.8536 72.6357 93.5569C72.6357 94.2602 73.2044 94.8303 73.9059 94.8303Z" fill="white"/>
<path d="M197.606 84.4945C197.128 85.7826 196.299 87.2775 195.43 87.649C194.445 88.0706 194.034 88.6663 194.034 88.6663L193.238 88.2033L192.288 87.6497C192.288 87.6497 192.31 87.5443 192.357 87.3715C192.403 87.2001 192.474 86.9613 192.571 86.6965C192.571 86.6965 192.863 86.3209 192.684 85.8486C192.505 85.377 192.541 84.6486 192.846 84.2037C193.151 83.7594 193.445 82.6655 193.629 82.6982C194.073 82.7749 193.41 84.2791 193.6 84.5579C193.772 84.81 193.987 84.7233 194.027 84.7047C194.03 84.7033 194.032 84.702 194.034 84.7006C195.281 84.151 196.794 81.188 197.463 81.5875C197.713 81.7363 197.809 83.9455 197.606 84.4945Z" fill="#FFAE73"/>
<path d="M193.292 86.2877L194.854 87.3884C194.965 87.4664 195.118 87.439 195.196 87.3283L199.197 81.6202C199.275 81.5095 199.248 81.3554 199.137 81.278L197.575 80.1774C197.464 80.0993 197.311 80.1267 197.233 80.2368L193.232 85.9448C193.155 86.0562 193.182 86.2103 193.292 86.2877Z" fill="#25468F"/>
<path d="M194.722 87.2956L195.637 87.9406C195.721 88 195.838 87.9793 195.898 87.8953L199.966 82.0913C200.026 82.0072 200.005 81.8898 199.921 81.8304L199.006 81.1854C198.922 81.1261 198.805 81.1467 198.745 81.2308L194.677 87.0348C194.617 87.1188 194.638 87.2362 194.722 87.2956Z" fill="#1E3865"/>
<path d="M170.884 78.0976C170.884 78.0976 178.831 91.9957 181.715 94.5525L192.288 86.6499C192.288 86.6499 193.822 87.1215 194.493 88.6657C194.493 88.6657 188.073 101.779 181.752 102.336C175.43 102.891 166.558 86.6172 166.558 86.6172L170.884 78.0976Z" fill="#6F7DEB"/>
<path d="M152.897 172.625H148.305C147.727 172.31 147.212 171.589 147.049 170.515C146.825 169.031 145.167 168.223 144.807 167.009C144.45 165.797 146.287 164.09 146.287 164.09L146.595 163.692L146.915 163.28L149.963 164C149.963 164 150.038 164.727 150.084 165.655C150.117 166.324 150.134 167.096 150.097 167.775C150.007 169.392 150.548 171.134 151.982 171.449C153.042 171.681 152.995 172.311 152.897 172.625Z" fill="#102C52"/>
<path d="M179.549 172.624H169.047C168.542 172.007 168.728 169.726 168.805 168.981C168.82 168.831 168.831 168.744 168.831 168.744C168.831 168.744 172.417 165.868 172.91 168.07C172.924 168.14 172.943 168.207 172.963 168.274C173.584 170.334 176.367 171.269 177.975 171.53C179.02 171.7 179.407 172.244 179.549 172.624Z" fill="#102C52"/>
<path d="M177.548 113.854C177.548 113.854 177.004 120.665 176.364 128.853C175.494 139.975 174.448 153.637 174.344 156.225C174.165 160.719 173.448 167.908 173.448 167.908C173.448 167.908 171.746 169.615 168.338 168.895C168.338 168.895 165.302 158.633 164.435 147.775C164.422 147.597 164.409 147.418 164.395 147.239C163.587 136.186 162.333 112.91 162.333 112.91L177.548 113.854Z" fill="#FF912B"/>
<path d="M177.548 113.854C177.548 113.854 177.004 120.665 176.364 128.853L164.435 147.776C164.422 147.598 164.409 147.418 164.395 147.239C163.587 136.186 162.333 112.91 162.333 112.91L177.548 113.854Z" fill="#FC7600"/>
<path d="M175.061 114.663C175.061 114.663 165.245 139.331 158.791 150.923C152.337 162.516 150.321 165.751 150.321 165.751C150.321 165.751 146.623 164.268 146.287 163.258C146.287 163.258 148.755 140.877 153.077 135.422C155.52 132.34 158.388 123.088 158.522 119.853C158.657 116.618 159.397 110.215 159.397 110.215L175.061 114.663Z" fill="#FF912B"/>
<path d="M172.618 78.7014C168.782 79.9147 162.454 76.4934 162.454 76.4934C162.454 76.4934 165.682 73.9793 165.497 68.4468L168.462 70.8428L170.477 72.4704C170.477 72.4704 170.469 73.4297 170.249 75.1113C170.19 75.5535 170.085 76.244 170.415 76.5975C171.699 77.9716 172.618 78.7014 172.618 78.7014Z" fill="#FFAE73"/>
<path d="M170.477 72.4703C170.477 72.4703 170.469 73.4296 170.249 75.1112C168.017 74.727 165.485 71.1102 165.485 71.1102C166.621 70.7814 167.617 70.722 168.463 70.8427L170.477 72.4703Z" fill="#F9924F"/>
<path d="M171.65 72.3792C171.65 72.3792 165.314 73.4345 164.72 69.4688C164.125 65.5032 162.907 62.9691 166.927 62.1272C170.947 61.2861 171.962 62.6802 172.481 63.9556C173 65.231 173.282 72.003 171.65 72.3792Z" fill="#FFAE73"/>
<path d="M177.971 114.421C177.855 114.517 177.722 114.575 177.568 114.575C176.127 114.555 171.928 115.357 168.373 114.991C165.377 114.703 162.726 113.813 159.878 112.533C159.5 112.363 158.629 111.897 158.649 111.474C158.662 111.009 158.708 110.337 158.765 109.489C158.967 106.542 159.318 101.474 158.976 95.6264C158.914 94.5378 158.882 93.4578 158.878 92.3939C158.849 84.4686 160.416 77.4979 163.566 75.1385C163.835 74.9451 165.487 75.7549 167.005 76.5046C168.407 77.1984 169.506 77.2717 170.831 77.0029L172.459 78.1803C174.072 79.6818 175.839 81.7237 176.607 84.8235C177.261 87.461 177.645 92.2178 177.856 97.1473C177.952 99.3813 178.029 101.634 178.049 103.772V103.849C178.068 104.061 178.068 104.292 178.068 104.504C178.144 109.992 178.067 114.343 177.971 114.421Z" fill="#899BFA"/>
<path d="M158.765 109.49C158.967 106.543 159.318 101.475 158.976 95.6273C158.914 94.5387 158.882 93.4587 158.878 92.3947C160.19 89.2035 161.262 86.8895 161.262 86.8895H164.57C164.57 86.8888 166.994 103.493 158.765 109.49Z" fill="#6F7DEB"/>
<path d="M141.824 128.308L155.93 130.323C157.765 130.585 159.481 129.294 159.743 127.453L160.614 121.325C160.875 119.485 159.587 117.764 157.751 117.502L143.646 115.487C141.811 115.225 140.095 116.516 139.833 118.357L138.962 124.485C138.7 126.325 139.988 128.046 141.824 128.308Z" fill="#1E3865"/>
<path d="M158.549 119.33V119.329C158.153 118.334 157.297 117.549 156.212 117.282H156.211C156.21 117.282 156.209 117.282 156.208 117.282C156.102 117.256 155.994 117.234 155.883 117.218L153.075 116.817L153.262 115.495C153.305 115.2 153.229 114.905 153.049 114.666C152.87 114.427 152.608 114.271 152.314 114.229L151.582 114.125L148.633 113.703L148.101 113.627C147.492 113.54 146.925 113.966 146.838 114.577L146.65 115.9L141.803 115.207C139.96 114.944 138.238 116.24 137.975 118.087L137.094 124.287C136.832 126.134 138.124 127.861 139.967 128.123L154.047 130.135C154.295 130.171 154.541 130.178 154.781 130.159H154.782C154.783 130.159 154.783 130.159 154.783 130.159C155.169 130.129 155.539 130.033 155.882 129.88C156.918 129.422 157.704 128.455 157.875 127.254L158.755 121.055C158.841 120.452 158.76 119.861 158.549 119.33ZM147.53 114.676C147.557 114.491 147.701 114.351 147.877 114.323C147.917 114.317 147.959 114.316 148.002 114.322L148.629 114.411L150.949 114.744L152.214 114.924C152.442 114.957 152.601 115.169 152.568 115.397L152.381 116.719L147.342 115.999L147.53 114.676Z" fill="#25468F"/>
<path d="M152.374 109.824C152.374 109.824 151.712 110.504 151.781 111.444C151.951 113.785 151.673 114.846 150.172 115.087C150.172 115.087 148.39 115.423 148.367 114.373C148.367 114.373 149.206 114.38 149.03 112.91C148.828 111.214 148.848 111.198 149.959 110.312L150.694 109.094L152.374 109.824Z" fill="#FFAE73"/>
<path d="M150.667 110.819C151.858 111.052 153.148 110.958 153.148 110.958C153.148 110.958 156.684 100.007 157.139 99.0073C157.594 98.0074 167.641 86.1678 167.641 86.1678L163.456 75.6663C163.456 75.6663 152.589 93.8643 151.485 96.4218C149.662 100.648 149.029 110.121 149.029 110.121C149.029 110.121 149.731 110.636 150.667 110.819Z" fill="#899BFA"/>
<path d="M164.714 69.0872C164.714 69.0872 165.364 68.9785 165.259 68.0806C165.154 67.1828 165.155 66.0094 165.884 66.2282C166.612 66.447 166.649 67.0314 166.947 66.6898C167.247 66.3483 167.252 64.9108 169.418 64.8107C171.585 64.7107 172.465 65.4665 173.472 65.0229C174.48 64.5786 174.533 63.0504 174.533 63.0504C174.533 63.0504 174.247 63.596 173.814 63.7701C173.814 63.7701 175.495 61.4655 173.548 59.8852C171.602 58.305 169.619 59.3396 168.492 59.4076C166.011 59.5584 164.408 59.7071 163.598 61.3421C162.788 62.9757 163.122 67.5143 164.714 69.0872Z" fill="#25468F"/>
<path d="M151.382 111.239C151.382 111.239 152.095 111.984 152.14 112.294C152.285 113.29 152.617 113.719 152.45 113.828C152.105 114.053 151.648 113.316 151.429 112.655C151.21 111.993 151.382 111.239 151.382 111.239Z" fill="#FFAE73"/>
<defs>
<linearGradient id="paint0_linear_8_1668" x1="31.6856" y1="90.2656" x2="109.83" y2="90.2656" gradientUnits="userSpaceOnUse">
<stop stop-color="#AA80F9"/>
<stop offset="0.9964" stop-color="#6165D7"/>
</linearGradient>
<linearGradient id="paint1_linear_8_1668" x1="57.0222" y1="68.5969" x2="34.1829" y2="129.747" gradientUnits="userSpaceOnUse">
<stop offset="0.00359712" stop-color="#E38DDD"/>
<stop offset="1" stop-color="#9571F6"/>
</linearGradient>
<linearGradient id="paint2_linear_8_1668" x1="108.903" y1="146.255" x2="137.116" y2="168.327" gradientUnits="userSpaceOnUse">
<stop stop-color="#FF9085"/>
<stop offset="1" stop-color="#FB6FBB"/>
</linearGradient>
<linearGradient id="paint3_linear_8_1668" x1="184.468" y1="169.721" x2="102.005" y2="156.099" gradientUnits="userSpaceOnUse">
<stop stop-color="#311944"/>
<stop offset="1" stop-color="#893976"/>
</linearGradient>
<linearGradient id="paint4_linear_8_1668" x1="129.24" y1="163.65" x2="129.267" y2="151.934" gradientUnits="userSpaceOnUse">
<stop stop-color="#FF9085"/>
<stop offset="1" stop-color="#FB6FBB"/>
</linearGradient>
<linearGradient id="paint5_linear_8_1668" x1="109.08" y1="146.008" x2="137.133" y2="167.955" gradientUnits="userSpaceOnUse">
<stop stop-color="#FF9085"/>
<stop offset="1" stop-color="#FB6FBB"/>
</linearGradient>
<linearGradient id="paint6_linear_8_1668" x1="184.468" y1="169.721" x2="102.005" y2="156.099" gradientUnits="userSpaceOnUse">
<stop stop-color="#311944"/>
<stop offset="1" stop-color="#893976"/>
</linearGradient>
<linearGradient id="paint7_linear_8_1668" x1="129.24" y1="163.65" x2="129.267" y2="151.934" gradientUnits="userSpaceOnUse">
<stop stop-color="#FF9085"/>
<stop offset="1" stop-color="#FB6FBB"/>
</linearGradient>
<linearGradient id="paint8_linear_8_1668" x1="108.91" y1="136.93" x2="137.155" y2="159.027" gradientUnits="userSpaceOnUse">
<stop stop-color="#FF9085"/>
<stop offset="1" stop-color="#FB6FBB"/>
</linearGradient>
<linearGradient id="paint9_linear_8_1668" x1="184.468" y1="160.402" x2="102.005" y2="146.779" gradientUnits="userSpaceOnUse">
<stop stop-color="#311944"/>
<stop offset="1" stop-color="#893976"/>
</linearGradient>
<linearGradient id="paint10_linear_8_1668" x1="129.24" y1="154.332" x2="129.267" y2="142.616" gradientUnits="userSpaceOnUse">
<stop stop-color="#FF9085"/>
<stop offset="1" stop-color="#FB6FBB"/>
</linearGradient>
<linearGradient id="paint11_linear_8_1668" x1="109.08" y1="136.69" x2="137.133" y2="158.636" gradientUnits="userSpaceOnUse">
<stop stop-color="#FF9085"/>
<stop offset="1" stop-color="#FB6FBB"/>
</linearGradient>
<linearGradient id="paint12_linear_8_1668" x1="184.468" y1="160.402" x2="102.005" y2="146.779" gradientUnits="userSpaceOnUse">
<stop stop-color="#311944"/>
<stop offset="1" stop-color="#893976"/>
</linearGradient>
<linearGradient id="paint13_linear_8_1668" x1="129.24" y1="154.332" x2="129.267" y2="142.616" gradientUnits="userSpaceOnUse">
<stop stop-color="#FF9085"/>
<stop offset="1" stop-color="#FB6FBB"/>
</linearGradient>
<linearGradient id="paint14_linear_8_1668" x1="108.91" y1="127.589" x2="137.154" y2="149.686" gradientUnits="userSpaceOnUse">
<stop stop-color="#FF9085"/>
<stop offset="1" stop-color="#FB6FBB"/>
</linearGradient>
<linearGradient id="paint15_linear_8_1668" x1="184.468" y1="151.061" x2="102.005" y2="137.438" gradientUnits="userSpaceOnUse">
<stop stop-color="#311944"/>
<stop offset="1" stop-color="#893976"/>
</linearGradient>
<linearGradient id="paint16_linear_8_1668" x1="129.24" y1="144.99" x2="129.267" y2="133.274" gradientUnits="userSpaceOnUse">
<stop stop-color="#FF9085"/>
<stop offset="1" stop-color="#FB6FBB"/>
</linearGradient>
<linearGradient id="paint17_linear_8_1668" x1="109.08" y1="127.348" x2="137.133" y2="149.295" gradientUnits="userSpaceOnUse">
<stop stop-color="#FF9085"/>
<stop offset="1" stop-color="#FB6FBB"/>
</linearGradient>
<linearGradient id="paint18_linear_8_1668" x1="184.468" y1="151.061" x2="102.005" y2="137.438" gradientUnits="userSpaceOnUse">
<stop stop-color="#311944"/>
<stop offset="1" stop-color="#893976"/>
</linearGradient>
<linearGradient id="paint19_linear_8_1668" x1="129.24" y1="144.99" x2="129.267" y2="133.274" gradientUnits="userSpaceOnUse">
<stop stop-color="#FF9085"/>
<stop offset="1" stop-color="#FB6FBB"/>
</linearGradient>
<linearGradient id="paint20_linear_8_1668" x1="108.91" y1="118.247" x2="137.155" y2="140.343" gradientUnits="userSpaceOnUse">
<stop stop-color="#FF9085"/>
<stop offset="1" stop-color="#FB6FBB"/>
</linearGradient>
<linearGradient id="paint21_linear_8_1668" x1="184.468" y1="141.719" x2="102.005" y2="128.096" gradientUnits="userSpaceOnUse">
<stop stop-color="#311944"/>
<stop offset="1" stop-color="#893976"/>
</linearGradient>
<linearGradient id="paint22_linear_8_1668" x1="129.24" y1="135.648" x2="129.267" y2="123.932" gradientUnits="userSpaceOnUse">
<stop stop-color="#FF9085"/>
<stop offset="1" stop-color="#FB6FBB"/>
</linearGradient>
<linearGradient id="paint23_linear_8_1668" x1="109.08" y1="118.006" x2="137.133" y2="139.953" gradientUnits="userSpaceOnUse">
<stop stop-color="#FF9085"/>
<stop offset="1" stop-color="#FB6FBB"/>
</linearGradient>
<linearGradient id="paint24_linear_8_1668" x1="184.468" y1="141.719" x2="102.005" y2="128.096" gradientUnits="userSpaceOnUse">
<stop stop-color="#311944"/>
<stop offset="1" stop-color="#893976"/>
</linearGradient>
<linearGradient id="paint25_linear_8_1668" x1="129.24" y1="135.648" x2="129.267" y2="123.932" gradientUnits="userSpaceOnUse">
<stop stop-color="#FF9085"/>
<stop offset="1" stop-color="#FB6FBB"/>
</linearGradient>
<linearGradient id="paint26_linear_8_1668" x1="108.91" y1="108.905" x2="137.155" y2="131.001" gradientUnits="userSpaceOnUse">
<stop stop-color="#FF9085"/>
<stop offset="1" stop-color="#FB6FBB"/>
</linearGradient>
<linearGradient id="paint27_linear_8_1668" x1="184.468" y1="132.377" x2="102.005" y2="118.755" gradientUnits="userSpaceOnUse">
<stop stop-color="#311944"/>
<stop offset="1" stop-color="#893976"/>
</linearGradient>
<linearGradient id="paint28_linear_8_1668" x1="129.24" y1="126.307" x2="129.267" y2="114.591" gradientUnits="userSpaceOnUse">
<stop stop-color="#FF9085"/>
<stop offset="1" stop-color="#FB6FBB"/>
</linearGradient>
<linearGradient id="paint29_linear_8_1668" x1="109.08" y1="108.664" x2="137.133" y2="130.611" gradientUnits="userSpaceOnUse">
<stop stop-color="#FF9085"/>
<stop offset="1" stop-color="#FB6FBB"/>
</linearGradient>
<linearGradient id="paint30_linear_8_1668" x1="184.468" y1="132.377" x2="102.005" y2="118.755" gradientUnits="userSpaceOnUse">
<stop stop-color="#311944"/>
<stop offset="1" stop-color="#893976"/>
</linearGradient>
<linearGradient id="paint31_linear_8_1668" x1="129.24" y1="126.307" x2="129.267" y2="114.591" gradientUnits="userSpaceOnUse">
<stop stop-color="#FF9085"/>
<stop offset="1" stop-color="#FB6FBB"/>
</linearGradient>
<linearGradient id="paint32_linear_8_1668" x1="108.91" y1="99.564" x2="137.154" y2="121.66" gradientUnits="userSpaceOnUse">
<stop stop-color="#FF9085"/>
<stop offset="1" stop-color="#FB6FBB"/>
</linearGradient>
<linearGradient id="paint33_linear_8_1668" x1="184.468" y1="123.036" x2="102.005" y2="109.413" gradientUnits="userSpaceOnUse">
<stop stop-color="#311944"/>
<stop offset="1" stop-color="#893976"/>
</linearGradient>
<linearGradient id="paint34_linear_8_1668" x1="129.24" y1="116.965" x2="129.267" y2="105.249" gradientUnits="userSpaceOnUse">
<stop stop-color="#FF9085"/>
<stop offset="1" stop-color="#FB6FBB"/>
</linearGradient>
<linearGradient id="paint35_linear_8_1668" x1="109.08" y1="99.3229" x2="137.133" y2="121.27" gradientUnits="userSpaceOnUse">
<stop stop-color="#FF9085"/>
<stop offset="1" stop-color="#FB6FBB"/>
</linearGradient>
<linearGradient id="paint36_linear_8_1668" x1="184.468" y1="123.036" x2="102.005" y2="109.413" gradientUnits="userSpaceOnUse">
<stop stop-color="#311944"/>
<stop offset="1" stop-color="#893976"/>
</linearGradient>
<linearGradient id="paint37_linear_8_1668" x1="129.24" y1="116.965" x2="129.267" y2="105.249" gradientUnits="userSpaceOnUse">
<stop stop-color="#FF9085"/>
<stop offset="1" stop-color="#FB6FBB"/>
</linearGradient>
<linearGradient id="paint38_linear_8_1668" x1="108.91" y1="90.2218" x2="137.155" y2="112.318" gradientUnits="userSpaceOnUse">
<stop stop-color="#FF9085"/>
<stop offset="1" stop-color="#FB6FBB"/>
</linearGradient>
<linearGradient id="paint39_linear_8_1668" x1="184.468" y1="113.694" x2="102.005" y2="100.071" gradientUnits="userSpaceOnUse">
<stop stop-color="#311944"/>
<stop offset="1" stop-color="#893976"/>
</linearGradient>
<linearGradient id="paint40_linear_8_1668" x1="129.24" y1="107.623" x2="129.267" y2="95.9075" gradientUnits="userSpaceOnUse">
<stop stop-color="#FF9085"/>
<stop offset="1" stop-color="#FB6FBB"/>
</linearGradient>
<linearGradient id="paint41_linear_8_1668" x1="109.08" y1="89.981" x2="137.133" y2="111.928" gradientUnits="userSpaceOnUse">
<stop stop-color="#FF9085"/>
<stop offset="1" stop-color="#FB6FBB"/>
</linearGradient>
<linearGradient id="paint42_linear_8_1668" x1="184.468" y1="113.694" x2="102.005" y2="100.071" gradientUnits="userSpaceOnUse">
<stop stop-color="#311944"/>
<stop offset="1" stop-color="#893976"/>
</linearGradient>
<linearGradient id="paint43_linear_8_1668" x1="129.24" y1="107.623" x2="129.267" y2="95.9075" gradientUnits="userSpaceOnUse">
<stop stop-color="#FF9085"/>
<stop offset="1" stop-color="#FB6FBB"/>
</linearGradient>
<linearGradient id="paint44_linear_8_1668" x1="119.635" y1="45.9676" x2="175.055" y2="83.5161" gradientUnits="userSpaceOnUse">
<stop stop-color="#311944"/>
<stop offset="1" stop-color="#6B3976"/>
</linearGradient>
<linearGradient id="paint45_linear_8_1668" x1="131.367" y1="152.844" x2="107.335" y2="43.3916" gradientUnits="userSpaceOnUse">
<stop offset="0.00359712" stop-color="#E38DDD"/>
<stop offset="1" stop-color="#9571F6"/>
</linearGradient>
<linearGradient id="paint46_linear_8_1668" x1="95.1645" y1="133.047" x2="102.616" y2="133.047" gradientUnits="userSpaceOnUse">
<stop stop-color="#311944"/>
<stop offset="1" stop-color="#6B3976"/>
</linearGradient>
<linearGradient id="paint47_linear_8_1668" x1="98.6787" y1="135.991" x2="109.847" y2="102.569" gradientUnits="userSpaceOnUse">
<stop stop-color="#FFC444"/>
<stop offset="0.9964" stop-color="#F36F56"/>
</linearGradient>
<linearGradient id="paint48_linear_8_1668" x1="96.3507" y1="119.329" x2="100.908" y2="119.329" gradientUnits="userSpaceOnUse">
<stop stop-color="#311944"/>
<stop offset="1" stop-color="#6B3976"/>
</linearGradient>
<linearGradient id="paint49_linear_8_1668" x1="93.7093" y1="131.874" x2="101.185" y2="109.504" gradientUnits="userSpaceOnUse">
<stop stop-color="#FFC444"/>
<stop offset="0.9964" stop-color="#F36F56"/>
</linearGradient>
<linearGradient id="paint50_linear_8_1668" x1="102.879" y1="94.1667" x2="108.457" y2="126.332" gradientUnits="userSpaceOnUse">
<stop stop-color="#AB316D"/>
<stop offset="1" stop-color="#792D3D"/>
</linearGradient>
<linearGradient id="paint51_linear_8_1668" x1="110.717" y1="132.293" x2="118.646" y2="107.264" gradientUnits="userSpaceOnUse">
<stop stop-color="#AB316D"/>
<stop offset="1" stop-color="#792D3D"/>
</linearGradient>
<linearGradient id="paint52_linear_8_1668" x1="110.718" y1="132.294" x2="118.647" y2="107.265" gradientUnits="userSpaceOnUse">
<stop stop-color="#AB316D"/>
<stop offset="1" stop-color="#792D3D"/>
</linearGradient>
<linearGradient id="paint53_linear_8_1668" x1="121.823" y1="90.9198" x2="127.388" y2="123.011" gradientUnits="userSpaceOnUse">
<stop stop-color="#AB316D"/>
<stop offset="1" stop-color="#792D3D"/>
</linearGradient>
<linearGradient id="paint54_linear_8_1668" x1="144.474" y1="149.965" x2="120.443" y2="40.5134" gradientUnits="userSpaceOnUse">
<stop offset="0.00359712" stop-color="#E38DDD"/>
<stop offset="1" stop-color="#9571F6"/>
</linearGradient>
<linearGradient id="paint55_linear_8_1668" x1="130.637" y1="69.9595" x2="127.377" y2="55.2039" gradientUnits="userSpaceOnUse">
<stop stop-color="#FFC444"/>
<stop offset="0.9964" stop-color="#F36F56"/>
</linearGradient>
<linearGradient id="paint56_linear_8_1668" x1="128.438" y1="56.8091" x2="132.174" y2="76.0021" gradientUnits="userSpaceOnUse">
<stop stop-color="#FFC444"/>
<stop offset="0.9964" stop-color="#F36F56"/>
</linearGradient>
<linearGradient id="paint57_linear_8_1668" x1="112.34" y1="90.5004" x2="133.839" y2="90.5004" gradientUnits="userSpaceOnUse">
<stop stop-color="#40447E"/>
<stop offset="0.9964" stop-color="#3C3B6B"/>
</linearGradient>
<linearGradient id="paint58_linear_8_1668" x1="98.5915" y1="76.9041" x2="112.722" y2="90.8864" gradientUnits="userSpaceOnUse">
<stop stop-color="#40447E"/>
<stop offset="0.9964" stop-color="#3C3B6B"/>
</linearGradient>
<linearGradient id="paint59_linear_8_1668" x1="98.5916" y1="76.9033" x2="112.723" y2="90.8856" gradientUnits="userSpaceOnUse">
<stop stop-color="#40447E"/>
<stop offset="0.9964" stop-color="#3C3B6B"/>
</linearGradient>
<linearGradient id="paint60_linear_8_1668" x1="154.847" y1="147.688" x2="130.816" y2="38.236" gradientUnits="userSpaceOnUse">
<stop offset="0.00359712" stop-color="#E38DDD"/>
<stop offset="1" stop-color="#9571F6"/>
</linearGradient>
<linearGradient id="paint61_linear_8_1668" x1="125.804" y1="86.2501" x2="132.968" y2="92.9839" gradientUnits="userSpaceOnUse">
<stop stop-color="#FFC444"/>
<stop offset="0.9964" stop-color="#F36F56"/>
</linearGradient>
<linearGradient id="paint62_linear_8_1668" x1="56.5138" y1="160.16" x2="55.0382" y2="178.892" gradientUnits="userSpaceOnUse">
<stop offset="0.003597" stop-color="#26264F"/>
<stop offset="1" stop-color="#444B8C"/>
</linearGradient>
<linearGradient id="paint63_linear_8_1668" x1="52.7237" y1="170.589" x2="52.992" y2="151.187" gradientUnits="userSpaceOnUse">
<stop stop-color="#893976"/>
<stop offset="1" stop-color="#311944"/>
</linearGradient>
<linearGradient id="paint64_linear_8_1668" x1="36.0744" y1="157.355" x2="37.0431" y2="176.12" gradientUnits="userSpaceOnUse">
<stop offset="0.003597" stop-color="#26264F"/>
<stop offset="1" stop-color="#444B8C"/>
</linearGradient>
<linearGradient id="paint65_linear_8_1668" x1="36.1983" y1="169.705" x2="33.9457" y2="150.434" gradientUnits="userSpaceOnUse">
<stop stop-color="#893976"/>
<stop offset="1" stop-color="#311944"/>
</linearGradient>
<linearGradient id="paint66_linear_8_1668" x1="57.3422" y1="139.159" x2="43.0336" y2="139.159" gradientUnits="userSpaceOnUse">
<stop offset="0.003597" stop-color="#26264F"/>
<stop offset="1" stop-color="#444B8C"/>
</linearGradient>
<linearGradient id="paint67_linear_8_1668" x1="56.3526" y1="139.16" x2="43.0335" y2="139.16" gradientUnits="userSpaceOnUse">
<stop offset="0.003597" stop-color="#26264F"/>
<stop offset="1" stop-color="#444B8C"/>
</linearGradient>
<linearGradient id="paint68_linear_8_1668" x1="57.8524" y1="134.102" x2="29.2893" y2="137.823" gradientUnits="userSpaceOnUse">
<stop offset="0.003597" stop-color="#26264F"/>
<stop offset="1" stop-color="#444B8C"/>
</linearGradient>
<linearGradient id="paint69_linear_8_1668" x1="29.8993" y1="76.1533" x2="8.60895" y2="95.5899" gradientUnits="userSpaceOnUse">
<stop offset="0.003597" stop-color="#26264F"/>
<stop offset="1" stop-color="#444B8C"/>
</linearGradient>
<linearGradient id="paint70_linear_8_1668" x1="87.4361" y1="87.1088" x2="93.4586" y2="104.558" gradientUnits="userSpaceOnUse">
<stop stop-color="#FFC444"/>
<stop offset="0.9964" stop-color="#F36F56"/>
</linearGradient>
<linearGradient id="paint71_linear_8_1668" x1="87.5839" y1="90.127" x2="54.2093" y2="90.127" gradientUnits="userSpaceOnUse">
<stop stop-color="#AA80F9"/>
<stop offset="0.9964" stop-color="#6165D7"/>
</linearGradient>
<linearGradient id="paint72_linear_8_1668" x1="65.0448" y1="104.713" x2="19.035" y2="104.713" gradientUnits="userSpaceOnUse">
<stop stop-color="#AA80F9"/>
<stop offset="0.9964" stop-color="#6165D7"/>
</linearGradient>
<linearGradient id="paint73_linear_8_1668" x1="65.0446" y1="109.244" x2="19.2354" y2="109.244" gradientUnits="userSpaceOnUse">
<stop stop-color="#AA80F9"/>
<stop offset="0.9964" stop-color="#6165D7"/>
</linearGradient>
<linearGradient id="paint74_linear_8_1668" x1="51.8704" y1="80.7038" x2="44.5444" y2="68.4051" gradientUnits="userSpaceOnUse">
<stop stop-color="#FFC444"/>
<stop offset="0.9964" stop-color="#F36F56"/>
</linearGradient>
<linearGradient id="paint75_linear_8_1668" x1="51.4104" y1="73.1276" x2="37.179" y2="64.5816" gradientUnits="userSpaceOnUse">
<stop stop-color="#FFC444"/>
<stop offset="0.9964" stop-color="#F36F56"/>
</linearGradient>
<linearGradient id="paint76_linear_8_1668" x1="62.0275" y1="88.3973" x2="58.9609" y2="88.3973" gradientUnits="userSpaceOnUse">
<stop stop-color="#FFC444"/>
<stop offset="0.9964" stop-color="#F36F56"/>
</linearGradient>
<linearGradient id="paint77_linear_8_1668" x1="91.2955" y1="81.6983" x2="60.3463" y2="89.1857" gradientUnits="userSpaceOnUse">
<stop stop-color="#AA80F9"/>
<stop offset="0.9964" stop-color="#6165D7"/>
</linearGradient>
<linearGradient id="paint78_linear_8_1668" x1="75.4198" y1="63.8249" x2="78.9481" y2="97.4985" gradientUnits="userSpaceOnUse">
<stop stop-color="#AA80F9"/>
<stop offset="0.9964" stop-color="#6165D7"/>
</linearGradient>
<linearGradient id="paint79_linear_8_1668" x1="84.0331" y1="69.328" x2="84.554" y2="84.4736" gradientUnits="userSpaceOnUse">
<stop stop-color="#AA80F9"/>
<stop offset="0.9964" stop-color="#6165D7"/>
</linearGradient>
</defs>
</svg>
