<svg width="133" height="150" viewBox="0 0 133 150" fill="none" xmlns="http://www.w3.org/2000/svg">
<path d="M46.9831 26.8625C49.8398 26.8625 52.1556 24.5308 52.1556 21.6547C52.1556 18.7785 49.8398 16.4469 46.9831 16.4469C44.1264 16.4469 41.8105 18.7785 41.8105 21.6547C41.8105 24.5308 44.1264 26.8625 46.9831 26.8625Z" fill="url(#paint0_linear_8_547)"/>
<path d="M46.9832 25.3377C49.0034 25.3377 50.6412 23.6888 50.6412 21.6547C50.6412 19.6207 49.0034 17.9718 46.9832 17.9718C44.9629 17.9718 43.3252 19.6207 43.3252 21.6547C43.3252 23.6888 44.9629 25.3377 46.9832 25.3377Z" fill="#FAFAFA"/>
<path d="M48.9637 21.6547C48.9637 22.7538 48.0781 23.6454 46.9865 23.6454C45.8949 23.6454 45.0093 22.7538 45.0093 21.6547C45.0093 20.5557 45.8949 19.6641 46.9865 19.6641C48.0781 19.6641 48.9637 20.5557 48.9637 21.6547Z" fill="url(#paint1_linear_8_547)"/>
<path d="M22.9022 112.96C26.0584 112.96 28.6169 110.384 28.6169 107.206C28.6169 104.029 26.0584 101.453 22.9022 101.453C19.7461 101.453 17.1875 104.029 17.1875 107.206C17.1875 110.384 19.7461 112.96 22.9022 112.96Z" fill="url(#paint2_linear_8_547)"/>
<path d="M22.9025 111.275C25.1343 111.275 26.9436 109.454 26.9436 107.207C26.9436 104.959 25.1343 103.138 22.9025 103.138C20.6706 103.138 18.8613 104.959 18.8613 107.207C18.8613 109.454 20.6706 111.275 22.9025 111.275Z" fill="#FAFAFA"/>
<path d="M22.9022 109.408C24.1099 109.408 25.089 108.422 25.089 107.206C25.089 105.99 24.1099 105.005 22.9022 105.005C21.6944 105.005 20.7153 105.99 20.7153 107.206C20.7153 108.422 21.6944 109.408 22.9022 109.408Z" fill="url(#paint3_linear_8_547)"/>
<path d="M81.9215 133.376C84.7783 133.376 87.0941 131.045 87.0941 128.168C87.0941 125.292 84.7783 122.961 81.9215 122.961C79.0648 122.961 76.749 125.292 76.749 128.168C76.749 131.045 79.0648 133.376 81.9215 133.376Z" fill="url(#paint4_linear_8_547)"/>
<path d="M83.3374 131.564C85.2019 130.78 86.0826 128.624 85.3046 126.746C84.5267 124.869 82.3845 123.982 80.52 124.766C78.6555 125.549 77.7747 127.706 78.5527 129.583C79.3307 131.46 81.4729 132.347 83.3374 131.564Z" fill="#FAFAFA"/>
<path d="M81.9215 130.159C83.0135 130.159 83.8987 129.268 83.8987 128.169C83.8987 127.069 83.0135 126.178 81.9215 126.178C80.8296 126.178 79.9443 127.069 79.9443 128.169C79.9443 129.268 80.8296 130.159 81.9215 130.159Z" fill="url(#paint5_linear_8_547)"/>
<path d="M127.827 78.7219C130.684 78.7219 133 76.3903 133 73.5141C133 70.6379 130.684 68.3063 127.827 68.3063C124.971 68.3063 122.655 70.6379 122.655 73.5141C122.655 76.3903 124.971 78.7219 127.827 78.7219Z" fill="url(#paint6_linear_8_547)"/>
<path d="M127.827 77.1971C129.848 77.1971 131.485 75.5482 131.485 73.5142C131.485 71.4801 129.848 69.8312 127.827 69.8312C125.807 69.8312 124.169 71.4801 124.169 73.5142C124.169 75.5482 125.807 77.1971 127.827 77.1971Z" fill="#FAFAFA"/>
<path d="M127.827 75.5049C128.919 75.5049 129.804 74.6137 129.804 73.5142C129.804 72.4148 128.919 71.5236 127.827 71.5236C126.735 71.5236 125.85 72.4148 125.85 73.5142C125.85 74.6137 126.735 75.5049 127.827 75.5049Z" fill="url(#paint7_linear_8_547)"/>
<path d="M76.7526 80.0356C79.238 80.0356 81.2528 78.0071 81.2528 75.5048C81.2528 73.0024 79.238 70.9739 76.7526 70.9739C74.2672 70.9739 72.2524 73.0024 72.2524 75.5048C72.2524 78.0071 74.2672 80.0356 76.7526 80.0356Z" fill="url(#paint8_linear_8_547)"/>
<path d="M76.7528 78.7109C78.5116 78.7109 79.9373 77.2754 79.9373 75.5047C79.9373 73.734 78.5116 72.2985 76.7528 72.2985C74.9941 72.2985 73.5684 73.734 73.5684 75.5047C73.5684 77.2754 74.9941 78.7109 76.7528 78.7109Z" fill="#FAFAFA"/>
<path d="M78.473 75.5047C78.473 76.4619 77.7031 77.237 76.7525 77.237C75.8018 77.237 75.0283 76.4619 75.0283 75.5047C75.0283 74.5476 75.7982 73.7725 76.7525 73.7725C77.7031 73.7725 78.473 74.5476 78.473 75.5047Z" fill="url(#paint9_linear_8_547)"/>
<path d="M100.139 28.8568C102.996 28.8568 105.312 26.5252 105.312 23.6491C105.312 20.7729 102.996 18.4413 100.139 18.4413C97.2826 18.4413 94.9668 20.7729 94.9668 23.6491C94.9668 26.5252 97.2826 28.8568 100.139 28.8568Z" fill="url(#paint10_linear_8_547)"/>
<path d="M101.074 27.2136C103.026 26.6925 104.19 24.6762 103.672 22.7101C103.155 20.7441 101.152 19.5727 99.1994 20.0938C97.2466 20.6149 96.0832 22.6312 96.6007 24.5973C97.1183 26.5634 99.121 27.7347 101.074 27.2136Z" fill="#FAFAFA"/>
<path d="M102.117 23.6491C102.117 24.7482 101.231 25.6398 100.139 25.6398C99.0477 25.6398 98.1621 24.7482 98.1621 23.6491C98.1621 22.5501 99.0477 21.6584 100.139 21.6584C101.231 21.6584 102.117 22.5464 102.117 23.6491Z" fill="url(#paint11_linear_8_547)"/>
<path d="M70.2539 122.302C70.1925 121.931 70.1202 121.563 70.0371 121.199C69.9322 120.741 70.178 120.271 70.6082 120.093L72.5384 119.292C73.03 119.088 73.2649 118.517 73.0625 118.022L71.7721 114.874C71.5697 114.379 71.0022 114.143 70.5106 114.347L68.5876 115.147C68.1575 115.325 67.6586 115.176 67.4092 114.78C67.008 114.135 66.5706 113.517 66.1044 112.927C65.8152 112.56 65.8405 112.036 66.1513 111.686L67.5394 110.125C67.8936 109.725 67.8611 109.11 67.4635 108.753L64.9441 106.482C64.5465 106.125 63.9356 106.158 63.5813 106.559L62.1861 108.127C61.8752 108.476 61.3584 108.56 60.968 108.309C60.3318 107.905 59.6739 107.537 58.998 107.206C58.5787 107.003 58.3763 106.518 58.5064 106.067L59.0848 104.047C59.233 103.531 58.9366 102.992 58.4233 102.843L55.1737 101.897C54.6605 101.747 54.1255 102.046 53.9773 102.563L53.399 104.579C53.2688 105.026 52.8423 105.328 52.3796 105.278C51.6386 105.194 50.8868 105.15 50.1277 105.15C49.6614 105.15 49.2711 104.801 49.1915 104.339L48.8445 102.268C48.7542 101.737 48.2554 101.38 47.7312 101.471L44.3986 102.039C43.8708 102.13 43.5166 102.632 43.607 103.159L43.954 105.23C44.0299 105.692 43.7732 106.151 43.3359 106.304C42.6202 106.555 41.9262 106.842 41.2538 107.166C40.8345 107.366 40.3321 107.225 40.0646 106.846L38.861 105.132C38.5537 104.695 37.9501 104.59 37.5127 104.899L34.7547 106.868C34.321 107.177 34.2162 107.785 34.5234 108.225L35.7307 109.939C35.9982 110.322 35.9656 110.846 35.6367 111.177C35.1054 111.712 34.6029 112.279 34.133 112.869C33.8439 113.233 33.327 113.328 32.9221 113.098L31.0931 112.079C30.6268 111.817 30.0377 111.988 29.781 112.458L28.1436 115.435C27.8834 115.904 28.0532 116.497 28.5195 116.756L30.3413 117.771C30.7461 117.997 30.9449 118.484 30.7895 118.928C30.5401 119.642 30.3304 120.37 30.1606 121.112C30.0557 121.567 29.6328 121.876 29.1702 121.847L27.0918 121.727C26.5604 121.698 26.1013 122.105 26.0724 122.644L25.8809 126.043C25.8519 126.578 26.2568 127.04 26.7917 127.069L28.8738 127.189C29.34 127.215 29.7232 127.575 29.7774 128.045C29.8172 128.416 29.8678 128.787 29.9328 129.158C29.9943 129.53 30.0666 129.897 30.1497 130.261C30.2545 130.72 30.0088 131.189 29.5786 131.367L27.6484 132.168C27.1568 132.372 26.9219 132.943 27.1243 133.438L28.4147 136.586C28.6171 137.081 29.1846 137.318 29.6762 137.114L31.5992 136.313C32.0293 136.135 32.5281 136.284 32.7775 136.681C33.1788 137.325 33.6161 137.943 34.0824 138.533C34.3716 138.901 34.3463 139.425 34.0354 139.774L32.6474 141.335C32.2932 141.736 32.3257 142.351 32.7233 142.707L35.2427 144.978C35.6403 145.335 36.2512 145.302 36.6054 144.902L37.9971 143.333C38.3079 142.984 38.8248 142.9 39.2152 143.151C39.8514 143.555 40.5092 143.923 41.1852 144.25C41.6045 144.454 41.8069 144.938 41.6767 145.389L41.0984 147.409C40.9502 147.926 41.2466 148.465 41.7599 148.614L45.0094 149.56C45.5227 149.709 46.0577 149.411 46.2059 148.894L46.7842 146.878C46.9143 146.43 47.3409 146.128 47.8035 146.179C48.5445 146.263 49.2964 146.306 50.0518 146.306C50.5181 146.306 50.9085 146.656 50.988 147.118L51.335 149.189C51.4254 149.72 51.9242 150.077 52.4483 149.986L55.781 149.418C56.3087 149.327 56.663 148.825 56.5726 148.297L56.2256 146.226C56.1497 145.764 56.4063 145.306 56.8437 145.153C57.5594 144.902 58.2534 144.614 58.9293 144.29C59.3486 144.09 59.8511 144.232 60.1185 144.611L61.3222 146.325C61.6295 146.761 62.2331 146.867 62.6705 146.558L65.4284 144.589C65.8622 144.279 65.967 143.672 65.6598 143.231L64.4525 141.517C64.185 141.135 64.2175 140.611 64.5465 140.28C65.0778 139.745 65.5802 139.177 66.0465 138.588C66.3357 138.224 66.8526 138.129 67.2574 138.358L69.0864 139.377C69.5527 139.639 70.1419 139.468 70.3985 138.999L72.0359 136.022C72.2962 135.552 72.1263 134.959 71.66 134.701L69.8383 133.686C69.4334 133.46 69.2346 132.972 69.39 132.528C69.6395 131.815 69.8491 131.087 70.019 130.345C70.1238 129.89 70.5467 129.58 71.0094 129.61L73.0878 129.73C73.6192 129.759 74.0782 129.351 74.1071 128.813L74.2987 125.414C74.3276 124.879 73.9228 124.416 73.3878 124.387L71.3058 124.267C70.8395 124.242 70.4564 123.881 70.4021 123.412C70.366 123.044 70.3154 122.673 70.2539 122.302Z" fill="url(#paint12_linear_8_547)"/>
<path d="M63.496 134.462C68.2858 127.009 66.1671 117.057 58.7638 112.234C51.3605 107.412 41.476 109.545 36.6863 116.999C31.8965 124.453 34.0152 134.405 41.4185 139.227C48.8218 144.049 58.7063 141.916 63.496 134.462Z" stroke="#EAEBF0" stroke-width="1.0556" stroke-miterlimit="10"/>
<path d="M62.9284 132.949C66.8879 125.814 64.3532 116.799 57.2671 112.813C50.181 108.826 41.2268 111.378 37.2674 118.513C33.3079 125.647 35.8426 134.662 42.9287 138.649C50.0148 142.635 58.969 140.083 62.9284 132.949Z" fill="#FAFAFA"/>
<path d="M50.0917 116.967C45.2915 116.967 41.3877 120.897 41.3877 125.73C41.3877 130.563 45.2915 134.493 50.0917 134.493C54.8919 134.493 58.7957 130.563 58.7957 125.73C58.7957 120.897 54.8919 116.967 50.0917 116.967ZM46.3036 119.507C45.953 120.082 45.6566 120.741 45.4144 121.461H44.2107C44.7746 120.679 45.4831 120.013 46.3036 119.507ZM43.3938 122.917H45.0312C44.9011 123.576 44.8144 124.274 44.7782 125.002H42.8697C42.942 124.271 43.1227 123.568 43.3938 122.917ZM43.3938 128.543C43.1227 127.892 42.942 127.189 42.8697 126.458H44.7782C44.8144 127.186 44.9011 127.881 45.0312 128.543H43.3938ZM44.2107 129.999H45.4144C45.6566 130.719 45.953 131.378 46.3036 131.953C45.4831 131.447 44.7746 130.781 44.2107 129.999ZM49.3688 132.903C48.3964 132.539 47.5434 131.469 46.9651 129.999H49.3688V132.903ZM49.3688 128.543H46.5168C46.365 127.888 46.2674 127.186 46.2277 126.458H49.3688V128.543ZM49.3688 125.002H46.2277C46.2674 124.274 46.365 123.572 46.5168 122.917H49.3688V125.002ZM49.3688 121.461H46.9651C47.5434 119.991 48.3964 118.921 49.3688 118.557V121.461ZM56.7896 122.917C57.0607 123.568 57.2414 124.271 57.3137 125.002H55.4052C55.3691 124.274 55.2823 123.576 55.1522 122.917H56.7896ZM55.9727 121.461H54.769C54.5268 120.741 54.2304 120.082 53.8798 119.507C54.7003 120.013 55.4088 120.679 55.9727 121.461ZM50.8146 118.557C51.787 118.921 52.64 119.991 53.2184 121.461H50.8146V118.557ZM50.8146 122.917H53.6666C53.8184 123.572 53.916 124.274 53.9557 125.002H50.8146V122.917ZM50.8146 132.903V129.999H53.2184C52.64 131.469 51.787 132.539 50.8146 132.903ZM50.8146 128.543V126.458H53.9557C53.916 127.186 53.8184 127.888 53.6666 128.543H50.8146ZM53.8798 131.953C54.2304 131.378 54.5268 130.719 54.769 129.999H55.9727C55.4088 130.781 54.7003 131.447 53.8798 131.953ZM56.7896 128.543H55.1522C55.2823 127.881 55.3691 127.186 55.4052 126.458H57.3137C57.2414 127.189 57.0607 127.892 56.7896 128.543Z" fill="url(#paint13_linear_8_547)"/>
<path d="M126.949 89.6905C126.949 89.5849 126.938 89.483 126.935 89.3775L128.33 89.1737C128.558 89.141 128.717 88.9299 128.681 88.7006L128.467 87.1976C128.435 86.9683 128.225 86.8082 127.997 86.8446L126.899 87.0047C126.7 87.0338 126.515 86.9137 126.447 86.7245C126.226 86.0949 125.937 85.4944 125.59 84.9376C125.478 84.7593 125.507 84.53 125.666 84.3954L126.541 83.6348C126.714 83.4819 126.732 83.2199 126.584 83.0452L125.597 81.8988C125.445 81.7241 125.185 81.7059 125.012 81.8552L124.094 82.6558C123.942 82.7904 123.718 82.7904 123.559 82.6631C123.056 82.2664 122.514 81.9207 121.932 81.6368C121.748 81.5458 121.65 81.3384 121.708 81.1419L122.055 79.9445C122.12 79.7226 121.994 79.4896 121.773 79.4241L120.327 78.9983C120.107 78.9328 119.875 79.0602 119.81 79.2822L119.452 80.505C119.395 80.7015 119.203 80.8252 119.001 80.7998C118.69 80.7634 118.375 80.7415 118.054 80.7415C117.732 80.7415 117.417 80.7634 117.107 80.7998C116.904 80.8252 116.713 80.7015 116.655 80.505L116.297 79.2822C116.232 79.0602 116 78.9328 115.78 78.9983L114.334 79.4241C114.114 79.4896 113.987 79.7226 114.052 79.9445L114.399 81.1419C114.457 81.342 114.359 81.5458 114.175 81.6368C113.597 81.9207 113.051 82.2664 112.548 82.6631C112.389 82.7904 112.169 82.7904 112.014 82.6558L111.095 81.8552C110.922 81.7023 110.658 81.7241 110.51 81.8988L109.523 83.0452C109.371 83.2199 109.393 83.4855 109.566 83.6348L110.441 84.3954C110.597 84.5337 110.626 84.7629 110.517 84.9376C110.17 85.4944 109.881 86.0913 109.66 86.7245C109.595 86.9137 109.407 87.0338 109.209 87.0047L108.11 86.8446C107.882 86.8118 107.672 86.972 107.64 87.1976L107.427 88.7006C107.394 88.9299 107.553 89.141 107.777 89.1737L109.172 89.3775C109.169 89.483 109.158 89.5849 109.158 89.6905C109.158 90.4111 109.248 91.1062 109.407 91.7758C109.454 91.9723 109.364 92.1761 109.18 92.2598L108.276 92.6747C108.066 92.7693 107.976 93.0204 108.07 93.2278L108.695 94.6071C108.789 94.8182 109.039 94.9092 109.245 94.8146L110.091 94.4252C110.279 94.3378 110.499 94.407 110.611 94.5816C110.994 95.1712 111.446 95.7135 111.952 96.1975C112.1 96.3358 112.133 96.5578 112.021 96.7288L111.54 97.4821C111.417 97.675 111.471 97.937 111.667 98.0608L112.935 98.8796C113.127 99.0033 113.387 98.9488 113.51 98.7522L113.969 98.0353C114.081 97.8606 114.302 97.7988 114.49 97.8825C115.133 98.1663 115.816 98.3738 116.528 98.4975C116.731 98.5339 116.879 98.7013 116.879 98.9087V99.7458C116.879 99.9787 117.067 100.164 117.294 100.164H118.802C119.033 100.164 119.217 99.975 119.217 99.7458V98.9087C119.217 98.7013 119.366 98.5339 119.568 98.4975C120.28 98.3738 120.963 98.1627 121.607 97.8825C121.795 97.7988 122.015 97.8606 122.127 98.0353L122.586 98.7522C122.709 98.9451 122.966 99.0033 123.161 98.8796L124.43 98.0608C124.621 97.937 124.679 97.675 124.556 97.4821L124.076 96.7288C123.967 96.5578 124 96.3358 124.144 96.1975C124.654 95.7135 125.102 95.1712 125.485 94.5816C125.597 94.407 125.818 94.3378 126.006 94.4252L126.852 94.8146C127.061 94.9092 127.307 94.8182 127.401 94.6071L128.026 93.2278C128.12 93.0168 128.03 92.7693 127.82 92.6747L126.917 92.2598C126.732 92.1761 126.642 91.9723 126.689 91.7758C126.859 91.1062 126.949 90.4074 126.949 89.6905Z" fill="url(#paint14_linear_8_547)"/>
<path d="M118.057 96.3612C121.716 96.3612 124.683 93.3746 124.683 89.6905C124.683 86.0063 121.716 83.0197 118.057 83.0197C114.398 83.0197 111.432 86.0063 111.432 89.6905C111.432 93.3746 114.398 96.3612 118.057 96.3612Z" stroke="#EAEBF0" stroke-width="1.1502" stroke-miterlimit="10"/>
<path d="M123.793 91.065C124.541 87.8767 122.58 84.6817 119.413 83.9288C116.247 83.176 113.073 85.1503 112.326 88.3387C111.578 91.527 113.539 94.722 116.706 95.4749C119.872 96.2277 123.046 94.2534 123.793 91.065Z" fill="#FAFAFA"/>
<path d="M119.239 87.6744C119.239 88.3331 118.708 88.8644 118.057 88.8644C117.403 88.8644 116.875 88.3294 116.875 87.6744C116.875 87.0157 117.406 86.4843 118.057 86.4843C118.711 86.4807 119.239 87.0157 119.239 87.6744Z" fill="url(#paint15_linear_8_547)"/>
<path d="M120.443 92.6675H115.671V91.896C115.671 90.5677 116.741 89.4941 118.057 89.4941C119.376 89.4941 120.443 90.5713 120.443 91.896V92.6675Z" fill="url(#paint16_linear_8_547)"/>
<path d="M105.89 100.932C105.89 100.838 105.883 100.739 105.883 100.645L107.81 100.441C108.019 100.419 108.171 100.23 108.15 100.019L107.846 97.1184C107.824 96.9074 107.636 96.7545 107.427 96.7763L105.793 96.9474C105.601 96.9692 105.428 96.8418 105.384 96.6526C105.131 95.5936 104.788 94.5673 104.358 93.5883C104.278 93.41 104.343 93.1989 104.513 93.1007L105.966 92.2564C106.147 92.1508 106.212 91.9143 106.107 91.7323L104.658 89.2067C104.553 89.0247 104.318 88.9592 104.137 89.0647L102.641 89.9345C102.475 90.0292 102.265 89.9855 102.149 89.8326C101.502 88.9847 100.783 88.195 99.9986 87.4744C99.854 87.3434 99.8323 87.125 99.9444 86.9685L100.978 85.5347C101.101 85.3636 101.065 85.1234 100.895 84.9997L98.5528 83.2856C98.3829 83.1619 98.1443 83.1983 98.0214 83.3693L96.9696 84.825C96.8575 84.9815 96.6479 85.0252 96.478 84.9342C95.5599 84.4247 94.5948 83.9953 93.5899 83.6532C93.4055 83.5913 93.2971 83.4021 93.3369 83.2128L93.7092 81.4405C93.7525 81.2331 93.6224 81.0293 93.4164 80.9856L90.5825 80.3778C90.3765 80.3342 90.1741 80.4652 90.1307 80.6726L89.7548 82.4595C89.715 82.6487 89.5415 82.7761 89.3499 82.7579C88.8294 82.7142 88.3053 82.6888 87.774 82.6888C87.2426 82.6888 86.7185 82.7142 86.198 82.7579C86.0064 82.7761 85.8329 82.6487 85.7932 82.4595L85.4172 80.6726C85.3739 80.4652 85.1714 80.3342 84.9654 80.3778L82.1315 80.9856C81.9255 81.0293 81.7954 81.2331 81.8388 81.4405L82.2147 83.2128C82.2544 83.4021 82.146 83.5913 81.9617 83.6532C80.9568 83.9953 79.9917 84.4283 79.0736 84.9342C78.9037 85.0288 78.694 84.9815 78.582 84.825L77.5301 83.3693C77.4072 83.1983 77.1687 83.1582 76.9988 83.2856L74.6565 84.9997C74.4866 85.1234 74.4469 85.3636 74.5734 85.5347L75.6072 86.9685C75.7228 87.125 75.6975 87.3434 75.5529 87.4744C74.7722 88.195 74.0493 88.9847 73.4022 89.8326C73.2866 89.9855 73.0769 90.0292 72.9107 89.9345L71.4142 89.0647C71.2335 88.9592 70.9985 89.0211 70.8937 89.2067L69.4442 91.7323C69.3394 91.9143 69.4009 92.1508 69.5852 92.2564L71.0383 93.1007C71.2082 93.1989 71.2732 93.4064 71.1937 93.5883C70.7672 94.5673 70.4202 95.5899 70.1671 96.6526C70.1238 96.8418 69.9503 96.9656 69.7587 96.9474L68.1249 96.7763C67.9152 96.7545 67.7273 96.9074 67.7056 97.1184L67.402 100.019C67.3803 100.23 67.5321 100.419 67.7417 100.441L69.6683 100.645C69.6683 100.739 69.6611 100.834 69.6611 100.932C69.6611 102.064 69.7659 103.174 69.9611 104.248C69.9973 104.437 69.8888 104.623 69.7045 104.681L68.2369 105.161C68.0381 105.227 67.9261 105.445 67.9911 105.645L68.8876 108.418C68.9526 108.618 69.1695 108.731 69.3683 108.666L70.7889 108.2C70.9732 108.138 71.172 108.229 71.2515 108.407C71.7034 109.419 72.2492 110.384 72.8709 111.286C72.9793 111.446 72.9576 111.661 72.8167 111.788L71.7287 112.775C71.5732 112.916 71.5588 113.16 71.6998 113.317L73.6372 115.482C73.7782 115.639 74.0203 115.653 74.1758 115.511L75.2349 114.55C75.3794 114.419 75.5963 114.419 75.7409 114.55C76.565 115.289 77.4578 115.952 78.4085 116.53C78.5748 116.632 78.6398 116.836 78.5603 117.014L77.9892 118.303C77.9024 118.495 77.9892 118.725 78.1844 118.808L80.8303 119.995C81.0219 120.082 81.2496 119.995 81.3327 119.798L81.893 118.532C81.9725 118.354 82.1713 118.266 82.3556 118.324C83.4039 118.656 84.4883 118.896 85.6088 119.03C85.8004 119.052 85.945 119.212 85.945 119.409V120.785C85.945 120.996 86.1149 121.17 86.3281 121.17H89.2234C89.4331 121.17 89.6066 120.999 89.6066 120.785V119.409C89.6066 119.216 89.7512 119.052 89.9427 119.03C91.0633 118.896 92.1477 118.656 93.1959 118.324C93.3802 118.266 93.579 118.354 93.6586 118.532L94.2188 119.798C94.3056 119.991 94.5297 120.079 94.7213 119.995L97.3672 118.808C97.5587 118.721 97.6455 118.495 97.5624 118.303L96.9912 117.014C96.9117 116.836 96.9804 116.632 97.1431 116.53C98.0937 115.952 98.9829 115.289 99.8106 114.55C99.9552 114.419 100.172 114.419 100.317 114.55L101.376 115.511C101.531 115.653 101.773 115.642 101.914 115.482L103.852 113.317C103.993 113.16 103.982 112.916 103.823 112.775L102.735 111.788C102.594 111.657 102.569 111.446 102.681 111.286C103.302 110.384 103.845 109.419 104.3 108.407C104.38 108.229 104.578 108.138 104.763 108.2L106.183 108.666C106.382 108.731 106.599 108.622 106.664 108.418L107.56 105.645C107.625 105.445 107.517 105.227 107.315 105.161L105.847 104.681C105.666 104.623 105.558 104.437 105.59 104.248C105.786 103.174 105.89 102.064 105.89 100.932Z" fill="url(#paint17_linear_8_547)"/>
<path d="M97.7737 111.003C103.297 105.442 103.297 96.4252 97.7737 90.8641C92.2502 85.3029 83.2948 85.3029 77.7713 90.8641C72.2477 96.4252 72.2477 105.442 77.7713 111.003C83.2948 116.564 92.2502 116.564 97.7737 111.003Z" stroke="#EAEBF0" stroke-width="1.0556" stroke-miterlimit="10"/>
<path d="M100.61 102.75C101.605 95.6165 96.6679 89.0212 89.5826 88.0192C82.4972 87.0172 75.9467 91.9879 74.9514 99.1215C73.9562 106.255 78.8932 112.85 85.9786 113.852C93.0639 114.854 99.6145 109.884 100.61 102.75Z" fill="#FAFAFA"/>
<path d="M86.9822 109.565C91.3451 109.565 94.8765 106.006 94.8765 101.617C94.8765 100.267 94.3958 98.1958 93.2355 97.2859C93.1849 97.2459 92.6391 97.8136 92.6391 97.8136L91.9162 98.5415C92.4656 99.4367 92.7873 100.488 92.7873 101.617C92.7873 104.845 90.1884 107.461 86.9858 107.461C83.7797 107.461 81.1808 104.845 81.1808 101.617C81.1808 98.3886 83.7797 95.7757 86.9822 95.7757C88.1064 95.7757 89.151 96.0959 90.0402 96.6491L90.6944 95.9904C90.6944 95.9904 91.3884 95.3135 91.3234 95.2516C89.9679 93.9124 88.2907 93.6685 86.9822 93.6685C82.623 93.6685 79.0879 97.2277 79.0879 101.617C79.0843 106.006 82.623 109.565 86.9822 109.565Z" fill="url(#paint18_linear_8_547)"/>
<path d="M86.9824 99.5603C87.033 99.5603 87.0872 99.564 87.1378 99.5676L88.5945 98.101L88.627 98.0683C88.1282 97.8317 87.5716 97.7007 86.9824 97.7007C84.8353 97.7007 83.0967 99.4512 83.0967 101.613C83.0967 103.775 84.8353 105.529 86.9824 105.529C89.1295 105.529 90.8717 103.778 90.8717 101.617C90.8717 101.027 90.7416 100.467 90.5066 99.9607L90.4741 99.9898L89.0138 101.46C89.0174 101.511 89.021 101.562 89.021 101.617C89.021 102.748 88.1102 103.669 86.9788 103.669C85.851 103.669 84.9401 102.748 84.9401 101.617C84.9438 100.481 85.8546 99.5603 86.9824 99.5603Z" fill="url(#paint19_linear_8_547)"/>
<path d="M95.1403 94.4036L95.5668 93.9741C95.762 93.7776 95.762 93.461 95.5668 93.2645L95.274 92.966C95.1764 92.8678 95.0463 92.8205 94.9198 92.8205C94.7969 92.8205 94.6667 92.8714 94.5691 92.966L94.0812 93.4573L93.98 92.1472C93.9727 92.0526 93.8968 91.9907 93.8137 91.9907C93.7703 91.9907 93.7306 92.0053 93.6944 92.0417L91.7714 93.9814C91.5979 94.1561 91.5076 94.3999 91.5256 94.6437L91.5292 94.7202L91.6232 95.932L90.9256 96.6308L89.6749 97.8936L89.646 97.9227L88.4315 99.1419L87.8929 99.6841C87.8206 99.7533 87.7773 99.8479 87.77 99.9498L87.7375 100.376C87.7194 100.623 87.911 100.834 88.1568 100.834H88.1821L88.6267 100.809C88.7315 100.805 88.8291 100.761 88.9014 100.685L92.6823 96.8746L93.7812 96.9583L93.8282 96.9619C93.8498 96.9619 93.8715 96.9619 93.8932 96.9619C94.1173 96.9619 94.327 96.8746 94.4896 96.7145L96.4126 94.7784C96.5138 94.6765 96.4487 94.5018 96.3078 94.4909L95.1403 94.4036Z" fill="url(#paint20_linear_8_547)"/>
<path d="M124.462 62.7855L125.474 57.4649C125.514 57.2575 125.377 57.0537 125.171 57.0137L120.728 56.1584C120.548 56.122 120.417 55.9619 120.421 55.7763C120.443 54.5863 120.352 53.4108 120.164 52.2644C120.136 52.0788 120.237 51.9005 120.414 51.8423L124.686 50.3465C124.885 50.2774 124.99 50.059 124.921 49.8589L123.154 44.7421C123.085 44.5419 122.868 44.4364 122.669 44.5055L118.393 46.0013C118.22 46.0631 118.028 45.9867 117.938 45.8229C117.37 44.7967 116.712 43.8214 115.975 42.9079C115.859 42.7623 115.859 42.5585 115.979 42.4166L118.939 38.9702C119.076 38.8101 119.058 38.5663 118.899 38.428L114.829 34.887C114.67 34.7487 114.428 34.7669 114.291 34.927L111.334 38.3734C111.211 38.5153 111.009 38.5444 110.85 38.4498C109.859 37.853 108.807 37.3362 107.701 36.914C107.528 36.8485 107.427 36.6702 107.459 36.4846L108.308 32.012C108.348 31.8045 108.211 31.6007 108.005 31.5607L102.72 30.5417C102.514 30.5017 102.312 30.64 102.272 30.8474L101.423 35.32C101.386 35.502 101.227 35.633 101.043 35.6294C99.8611 35.6075 98.6936 35.6985 97.555 35.8878C97.3706 35.9169 97.1935 35.815 97.1357 35.6367L95.6501 31.3351C95.5814 31.1349 95.3645 31.0294 95.1657 31.0985L90.0836 32.8781C89.8848 32.9472 89.7799 33.1656 89.8486 33.3658L91.3342 37.671C91.3957 37.8457 91.3198 38.0386 91.1571 38.1295C90.1378 38.7009 89.1691 39.3633 88.2654 40.1057C88.1208 40.2221 87.9184 40.2221 87.7774 40.102L84.3544 37.1215C84.1953 36.9832 83.9532 37.0014 83.8158 37.1615L80.2988 41.2593C80.1614 41.4194 80.1795 41.6633 80.3385 41.8016L83.7616 44.7785C83.9026 44.9022 83.9315 45.106 83.8375 45.2661C83.2447 46.2633 82.7314 47.3223 82.3121 48.4359C82.2471 48.6106 82.0699 48.7125 81.8856 48.6798L77.4432 47.8245C77.2372 47.7845 77.0348 47.9228 76.995 48.1302L75.9829 53.4508C75.9432 53.6583 76.0805 53.8621 76.2866 53.9021L80.7289 54.7573C80.9097 54.7937 81.0398 54.9538 81.0362 55.1394C81.0145 56.3295 81.1049 57.505 81.2928 58.6513C81.3217 58.8369 81.2205 59.0153 81.0434 59.0735L76.7709 60.5692C76.5721 60.6384 76.4673 60.8567 76.536 61.0569L78.3035 66.1737C78.3722 66.3738 78.5891 66.4794 78.7879 66.4102L83.064 64.9145C83.2375 64.8526 83.429 64.929 83.5194 65.0928C84.0869 66.1191 84.7448 67.0944 85.4822 68.0042C85.5978 68.1498 85.5978 68.3536 85.4785 68.4955L82.5182 71.9419C82.3808 72.102 82.3989 72.3459 82.5579 72.4841L86.628 76.0252C86.787 76.1634 87.0292 76.1452 87.1666 75.9851L90.1233 72.5387C90.2462 72.3968 90.4486 72.3677 90.6077 72.4623C91.5981 73.0592 92.6499 73.5759 93.756 73.9981C93.9295 74.0636 94.0307 74.2419 93.9982 74.4275L93.1488 78.9002C93.109 79.1076 93.2464 79.3114 93.4524 79.3514L98.737 80.3704C98.943 80.4104 99.1454 80.2722 99.1852 80.0647L100.035 75.5921C100.071 75.4101 100.23 75.2791 100.414 75.2827C101.596 75.3046 102.764 75.2136 103.902 75.0244C104.087 74.9952 104.264 75.0971 104.322 75.2755L105.807 79.5771C105.876 79.7772 106.093 79.8828 106.292 79.8136L111.374 78.034C111.572 77.9649 111.677 77.7465 111.609 77.5464L110.123 73.2411C110.062 73.0664 110.137 72.8736 110.3 72.7826C111.319 72.2112 112.288 71.5489 113.195 70.8064C113.34 70.69 113.542 70.69 113.683 70.8101L117.106 73.7906C117.266 73.9289 117.508 73.9107 117.645 73.7506L121.162 69.6528C121.299 69.4927 121.281 69.2488 121.122 69.1106L117.699 66.1336C117.558 66.0099 117.529 65.8061 117.623 65.646C118.216 64.6488 118.729 63.5898 119.149 62.4762C119.214 62.3015 119.391 62.1996 119.575 62.2324L124.018 63.0876C124.22 63.1313 124.422 62.993 124.462 62.7855Z" fill="url(#paint21_linear_8_547)"/>
<path d="M113.037 63.8947C117.663 57.0506 115.902 47.7266 109.105 43.069C102.307 38.4113 93.0459 40.1838 88.4198 47.0279C83.7937 53.8719 85.5541 63.1959 92.3519 67.8536C99.1496 72.5113 108.411 70.7388 113.037 63.8947Z" stroke="#EAEBF0" stroke-width="1.1271" stroke-miterlimit="10"/>
<path d="M113.794 59.9711C116.272 52.7037 112.43 44.7897 105.212 42.2947C97.9934 39.7998 90.133 43.6686 87.6549 50.936C85.1768 58.2034 89.0195 66.1174 96.2377 68.6124C103.456 71.1073 111.316 67.2385 113.794 59.9711Z" fill="#FAFAFA"/>
<path d="M100.729 63.779C96.1705 63.779 92.4619 60.0451 92.4619 55.456C92.4619 50.8669 96.1705 47.1331 100.729 47.1331C105.287 47.1331 108.995 50.8669 108.995 55.456C108.995 60.0451 105.287 63.779 100.729 63.779ZM100.729 47.588C96.4199 47.588 92.9137 51.118 92.9137 55.4524C92.9137 59.7904 96.4199 63.3168 100.729 63.3168C105.037 63.3168 108.54 59.7868 108.54 55.4524C108.54 51.118 105.037 47.588 100.729 47.588Z" fill="url(#paint22_linear_8_547)"/>
<path d="M107.264 55.456C107.264 59.0916 104.34 62.0358 100.729 62.0358C97.1212 62.0358 94.1934 59.0916 94.1934 55.456C94.1934 51.824 97.1176 48.8762 100.729 48.8762C104.336 48.8762 107.264 51.8204 107.264 55.456Z" fill="url(#paint23_linear_8_547)"/>
<path d="M103.071 56.8972C103.071 57.3885 102.89 57.8215 102.529 58.2C102.167 58.5749 101.672 58.7932 101.043 58.8514V59.6266H100.501V58.8514C99.89 58.8078 99.402 58.6222 99.0261 58.3019C98.6538 57.9817 98.4658 57.5522 98.4658 57.0245H99.6261C99.6695 57.5668 99.9623 57.8798 100.501 57.9635V55.8563C99.9225 55.7217 99.5177 55.587 99.2827 55.4451C98.9972 55.2777 98.7984 55.0994 98.6935 54.9101C98.5417 54.6408 98.4658 54.3351 98.4658 53.9894C98.4658 53.4471 98.6538 53.0032 99.0261 52.6574C99.402 52.3117 99.89 52.1152 100.501 52.0642V51.2891H101.043V52.0642C101.614 52.1079 102.073 52.2826 102.417 52.5883C102.764 52.8903 102.959 53.3089 103.002 53.8475H101.842C101.824 53.6437 101.741 53.4617 101.6 53.3016C101.455 53.1414 101.271 53.0359 101.043 52.985V55.0557C101.647 55.194 102.048 55.325 102.25 55.4487C102.55 55.6343 102.738 55.7981 102.811 55.9364C102.984 56.2275 103.071 56.5514 103.071 56.8972ZM99.8213 53.2506C99.6514 53.4144 99.5683 53.6327 99.5683 53.913C99.5683 54.1896 99.6478 54.4043 99.8105 54.5498C99.9731 54.6954 100.201 54.8155 100.501 54.9028V52.9486C100.215 52.9886 99.9912 53.0869 99.8213 53.2506ZM101.73 57.6214C101.896 57.4394 101.976 57.2211 101.976 56.959C101.976 56.7006 101.896 56.4968 101.733 56.3513C101.571 56.2057 101.343 56.0856 101.043 55.9983V57.9598C101.336 57.9162 101.564 57.8033 101.73 57.6214Z" fill="#EAEBF0"/>
<path d="M90.987 19.6895C90.987 19.5985 90.9798 19.5075 90.9798 19.4129L92.8088 19.22C93.0184 19.1982 93.1702 19.009 93.1485 18.7979L92.863 16.0502C92.8413 15.8392 92.6533 15.6863 92.4437 15.7081L90.9075 15.8719C90.7159 15.8938 90.5424 15.7664 90.499 15.5771C90.2568 14.5727 89.9315 13.5974 89.5267 12.6694C89.4472 12.491 89.5122 12.28 89.6821 12.1817L91.0485 11.3883C91.2292 11.2828 91.2942 11.0463 91.1894 10.8643L89.8159 8.4733C89.711 8.29134 89.4761 8.22583 89.2954 8.33137L87.8893 9.15021C87.723 9.24483 87.5134 9.20116 87.3977 9.04831C86.7832 8.24403 86.1 7.49434 85.359 6.81016C85.2145 6.67915 85.1928 6.4608 85.3048 6.30431L86.2772 4.95778C86.4001 4.78674 86.3639 4.54655 86.194 4.42281L83.9746 2.7997C83.8048 2.67597 83.5662 2.71236 83.4433 2.8834L82.4529 4.2554C82.3408 4.41189 82.1312 4.45556 81.9613 4.36458C81.0902 3.8842 80.1757 3.47296 79.2214 3.14543C79.0371 3.08356 78.9286 2.89432 78.9684 2.70508L79.319 1.0383C79.3624 0.830863 79.2323 0.627065 79.0262 0.583394L76.3442 0.00839115C76.1382 -0.0352799 75.9357 0.0957331 75.8924 0.303171L75.5381 1.98451C75.4984 2.17375 75.3249 2.30112 75.1333 2.28657C74.6417 2.2429 74.1429 2.22106 73.6368 2.22106C73.1344 2.22106 72.6356 2.2429 72.1404 2.28657C71.9488 2.30476 71.7753 2.17739 71.7355 1.98451L71.3813 0.303171C71.3379 0.0957331 71.1355 -0.0352799 70.9295 0.00839115L68.2474 0.583394C68.0414 0.627065 67.9113 0.830863 67.9546 1.0383L68.3053 2.70508C68.345 2.89432 68.2366 3.08356 68.0522 3.14543C67.098 3.47296 66.1835 3.88056 65.3124 4.36458C65.1425 4.4592 64.9328 4.41189 64.8208 4.2554L63.8304 2.8834C63.7075 2.71236 63.4689 2.67233 63.299 2.7997L61.0796 4.42281C60.9098 4.54655 60.87 4.78674 60.9965 4.95778L61.9688 6.30431C62.0845 6.4608 62.0592 6.67915 61.9146 6.81016C61.1736 7.49434 60.4905 8.24403 59.876 9.04831C59.7603 9.20116 59.5507 9.24483 59.3844 9.15021L57.9783 8.33137C57.7976 8.22583 57.5626 8.2877 57.4578 8.4733L56.0842 10.8643C55.9794 11.0463 56.0409 11.2828 56.2252 11.3883L57.5915 12.1817C57.7614 12.28 57.8265 12.4874 57.747 12.6694C57.3421 13.601 57.0132 14.5727 56.7746 15.5771C56.7313 15.7664 56.5577 15.8901 56.3662 15.8719L54.83 15.7081C54.6203 15.6863 54.4324 15.8392 54.4107 16.0502L54.1251 18.7979C54.1034 19.009 54.2552 19.1982 54.4649 19.22L56.2939 19.4129C56.2939 19.5039 56.2867 19.5949 56.2867 19.6895C56.2867 20.7704 56.3842 21.8294 56.5722 22.8556C56.6084 23.0449 56.4999 23.2305 56.3192 23.2887L54.9384 23.74C54.7396 23.8055 54.6275 24.0239 54.6926 24.224L55.542 26.8516C55.6071 27.0517 55.824 27.1645 56.0228 27.099L57.3566 26.6623C57.5409 26.6004 57.7397 26.6914 57.8193 26.8697C58.2494 27.8305 58.7663 28.744 59.3555 29.6028C59.4639 29.763 59.4422 29.9777 59.2976 30.105L58.2783 31.0294C58.1229 31.1714 58.1084 31.4152 58.2494 31.5717L60.0856 33.6242C60.2266 33.7807 60.4688 33.7953 60.6242 33.6533L61.6182 32.7544C61.7628 32.6234 61.9797 32.6234 62.1243 32.7544C62.9086 33.4568 63.7545 34.0828 64.6545 34.6359C64.8172 34.7378 64.8858 34.9416 64.8063 35.1199L64.2713 36.3282C64.1846 36.5211 64.2713 36.7503 64.4665 36.834L66.9715 37.9586C67.163 38.0459 67.3908 37.9586 67.4739 37.762L67.998 36.5756C68.0775 36.3973 68.2764 36.31 68.4607 36.3682C69.4547 36.6812 70.4885 36.9105 71.5512 37.0378C71.7428 37.0597 71.8874 37.2234 71.8874 37.4163V38.7046C71.8874 38.9157 72.0572 39.0904 72.2705 39.0904H75.014C75.2236 39.0904 75.3971 38.9193 75.3971 38.7046V37.4163C75.3971 37.2234 75.5417 37.0597 75.7333 37.0378C76.796 36.9105 77.8298 36.6812 78.8238 36.3682C79.0082 36.31 79.207 36.3973 79.2865 36.5756L79.8106 37.762C79.8974 37.9549 80.1215 38.0423 80.313 37.9586L82.818 36.834C83.0095 36.7467 83.0963 36.5211 83.0132 36.3282L82.4782 35.1199C82.3987 34.9416 82.4673 34.7378 82.63 34.6359C83.53 34.0864 84.3795 33.4568 85.1602 32.7544C85.3048 32.6234 85.5217 32.6234 85.6663 32.7544L86.6603 33.6533C86.8157 33.7953 87.0579 33.7843 87.1989 33.6242L89.0351 31.5717C89.1761 31.4152 89.1652 31.1714 89.0062 31.0294L87.9833 30.105C87.8423 29.974 87.817 29.763 87.9254 29.6028C88.5146 28.744 89.0315 27.8305 89.4616 26.8697C89.5412 26.6914 89.74 26.6004 89.9243 26.6623L91.2581 27.099C91.4569 27.1645 91.6738 27.0554 91.7388 26.8516L92.5883 24.224C92.6534 24.0239 92.5449 23.8055 92.3425 23.74L90.9617 23.2887C90.781 23.2305 90.6725 23.0449 90.7087 22.8556C90.8894 21.8294 90.987 20.7704 90.987 19.6895Z" fill="url(#paint24_linear_8_547)"/>
<path d="M73.6293 33.2419C81.0635 33.2419 87.0901 27.1742 87.0901 19.6893C87.0901 12.2044 81.0635 6.13672 73.6293 6.13672C66.1951 6.13672 60.1685 12.2044 60.1685 19.6893C60.1685 27.1742 66.1951 33.2419 73.6293 33.2419Z" stroke="#EAEBF0" stroke-width="1.0556" stroke-miterlimit="10"/>
<path d="M73.6295 32.0449C80.407 32.0449 85.9012 26.5133 85.9012 19.6896C85.9012 12.866 80.407 7.33435 73.6295 7.33435C66.8521 7.33435 61.3579 12.866 61.3579 19.6896C61.3579 26.5133 66.8521 32.0449 73.6295 32.0449Z" fill="#FAFAFA"/>
<path d="M73.6294 27.9217C69.7364 27.9217 66.5664 24.7337 66.5664 20.8106C66.5664 16.8875 69.7328 13.6995 73.6294 13.6995C77.5223 13.6995 80.6924 16.8875 80.6924 20.8106C80.6924 24.7337 77.5259 27.9217 73.6294 27.9217ZM73.6294 14.1143C69.9605 14.1143 66.9785 17.1204 66.9785 20.8106C66.9785 24.5008 69.9642 27.5068 73.6294 27.5068C77.2982 27.5068 80.2803 24.5008 80.2803 20.8106C80.2803 17.1204 77.2982 14.1143 73.6294 14.1143Z" fill="url(#paint25_linear_8_547)"/>
<path d="M75.0176 13.9578C74.9055 13.9578 74.8115 13.8668 74.8115 13.7503V12.3383C74.5874 11.887 74.1248 11.5886 73.5862 11.5777C73.0693 11.5668 72.603 11.8288 72.3427 12.2801V13.6594C72.3427 13.7722 72.2524 13.8668 72.1367 13.8668C72.0246 13.8668 71.9307 13.7758 71.9307 13.6594V12.2291C71.9307 12.1964 71.9379 12.1636 71.956 12.1309C72.2777 11.5195 72.9175 11.1519 73.5934 11.1628C74.2802 11.1774 74.8911 11.5741 75.1875 12.1964C75.2091 12.2401 75.22 12.2874 75.22 12.3383V13.7503C75.2236 13.8632 75.1296 13.9578 75.0176 13.9578Z" fill="url(#paint26_linear_8_547)"/>
<path d="M81.5097 22.2516C81.3977 22.2516 81.3037 22.1607 81.3037 22.0442V19.5732C81.3037 19.4603 81.3941 19.3657 81.5097 19.3657C81.6218 19.3657 81.7158 19.4567 81.7158 19.5732V22.0442C81.7158 22.1607 81.6218 22.2516 81.5097 22.2516Z" fill="url(#paint27_linear_8_547)"/>
<path d="M65.7534 22.2516C65.6413 22.2516 65.5474 22.1607 65.5474 22.0442V19.5732C65.5474 19.4603 65.6377 19.3657 65.7534 19.3657C65.8655 19.3657 65.9594 19.4567 65.9594 19.5732V22.0442C65.9558 22.1607 65.8655 22.2516 65.7534 22.2516Z" fill="url(#paint28_linear_8_547)"/>
<path d="M79.2036 20.8103C79.2036 23.911 76.7095 26.4221 73.6299 26.4221C70.5502 26.4221 68.0562 23.911 68.0562 20.8103C68.0562 17.7133 70.5502 15.1986 73.6299 15.1986C76.7095 15.1986 79.2036 17.7133 79.2036 20.8103Z" fill="url(#paint29_linear_8_547)"/>
<path d="M77.1395 21.0178H73.4272V16.527H73.8357V20.6066H77.1395V21.0178Z" fill="#EAEBF0"/>
<path d="M74.8227 68.6156V61.1442C74.8227 60.7184 74.4793 60.3763 74.06 60.3763H68.338C67.9621 60.3763 67.6513 60.0997 67.5862 59.7285C67.2645 57.7997 66.7621 55.9364 66.1006 54.1496C65.9705 53.7965 66.1078 53.3999 66.4295 53.2106L71.3852 50.3283C71.7502 50.1173 71.8768 49.6478 71.6635 49.2802L67.9549 42.8096C67.7452 42.4421 67.2789 42.3147 66.9139 42.5294L61.951 45.4117C61.6257 45.6009 61.2208 45.5209 60.9787 45.2297C59.7569 43.7449 58.3978 42.3766 56.9231 41.1465C56.6339 40.9063 56.558 40.4951 56.7423 40.1675L59.6051 35.1708C59.8148 34.8033 59.6919 34.3338 59.3268 34.1227L52.9 30.3888C52.5349 30.1778 52.0686 30.3015 51.859 30.6691L48.9998 35.6585C48.8118 35.986 48.4215 36.1207 48.0672 35.9897C46.2925 35.3237 44.4382 34.8178 42.526 34.4939C42.1573 34.4321 41.8826 34.1154 41.8826 33.737V27.976C41.8826 27.5502 41.5392 27.2081 41.1199 27.2081H33.6991C33.2762 27.2081 32.9364 27.5539 32.9364 27.976V33.737C32.9364 34.1154 32.6617 34.4284 32.293 34.4939C30.3773 34.8178 28.5266 35.3237 26.7518 35.9897C26.4012 36.1207 26.0072 35.9824 25.8192 35.6585L22.9565 30.6691C22.7468 30.3015 22.2805 30.1741 21.9154 30.3888L15.4887 34.1227C15.1236 34.3338 14.9971 34.8033 15.2103 35.1708L18.0767 40.1675C18.2647 40.4951 18.1852 40.9027 17.896 41.1465C16.4212 42.3766 15.0621 43.7449 13.8404 45.2297C13.6018 45.5209 13.1934 45.5973 12.8681 45.4117L7.90518 42.5294C7.5401 42.3183 7.07382 42.4421 6.86417 42.8096L3.15557 49.2802C2.94592 49.6478 3.06881 50.1173 3.43389 50.3283L8.38954 53.207C8.71485 53.3962 8.84859 53.7893 8.71847 54.1459C8.05699 55.9328 7.55456 57.7997 7.23286 59.7249C7.17141 60.0961 6.85694 60.3727 6.48102 60.3727H0.762685C0.339775 60.3727 0 60.7184 0 61.1406V68.612C0 69.0378 0.343389 69.3798 0.762685 69.3798H6.48463C6.86055 69.3798 7.17141 69.6564 7.23647 70.0276C7.55818 71.9564 8.06061 73.8197 8.72208 75.6066C8.85221 75.9596 8.71485 76.3563 8.39315 76.5455L3.43751 79.4278C3.07243 79.6389 2.94592 80.1084 3.15918 80.4759L6.86778 86.9465C7.07743 87.3141 7.54372 87.4415 7.90879 87.2268L12.8717 84.3445C13.197 84.1552 13.6018 84.2353 13.844 84.5264C15.0657 86.0112 16.4248 87.3796 17.8996 88.6097C18.1888 88.8499 18.2647 89.2611 18.0803 89.5886L15.2139 94.5853C15.0043 94.9529 15.1272 95.4224 15.4923 95.6335L21.9191 99.3673C22.2841 99.5784 22.7504 99.4547 22.9601 99.0871L25.8229 94.0977C26.0108 93.7701 26.4012 93.6355 26.7554 93.7665C28.5302 94.4325 30.3845 94.9383 32.2966 95.2622C32.6653 95.3241 32.94 95.6407 32.94 96.0192V101.78C32.94 102.206 33.2834 102.548 33.7027 102.548H41.1235C41.5465 102.548 41.8862 102.202 41.8862 101.78V96.0192C41.8862 95.6407 42.1609 95.3277 42.5296 95.2622C44.4454 94.9383 46.2961 94.4325 48.0708 93.7665C48.4215 93.6355 48.8155 93.7701 49.0034 94.0977L51.8662 99.0871C52.0758 99.4547 52.5421 99.582 52.9072 99.3673L59.334 95.6335C59.6991 95.4224 59.8256 94.9529 59.6123 94.5853L56.7459 89.5886C56.558 89.2611 56.6375 88.8535 56.9267 88.6097C58.4014 87.3796 59.7605 86.0112 60.9823 84.5264C61.2208 84.2353 61.6293 84.1589 61.9546 84.3445L66.9175 87.2268C67.2826 87.4378 67.7489 87.3141 67.9585 86.9465L71.6671 80.4759C71.8768 80.1084 71.7539 79.6389 71.3888 79.4278L66.4331 76.5455C66.1078 76.3563 65.9741 75.9633 66.1042 75.6066C66.7657 73.8197 67.2681 71.9528 67.5898 70.0276C67.6513 69.6564 67.9657 69.3798 68.3417 69.3798H74.0636C74.4793 69.3835 74.8227 69.0414 74.8227 68.6156Z" fill="url(#paint30_linear_8_547)"/>
<path d="M37.4116 89.5776C50.9585 89.5776 61.9404 78.5208 61.9404 64.8816C61.9404 51.2423 50.9585 40.1855 37.4116 40.1855C23.8647 40.1855 12.8828 51.2423 12.8828 64.8816C12.8828 78.5208 23.8647 89.5776 37.4116 89.5776Z" stroke="#EAEBF0" stroke-width="1.0556" stroke-miterlimit="10"/>
<path d="M37.4113 88.1257C50.1617 88.1257 60.4979 77.719 60.4979 64.8818C60.4979 52.0445 50.1617 41.6378 37.4113 41.6378C24.6609 41.6378 14.3247 52.0445 14.3247 64.8818C14.3247 77.719 24.6609 88.1257 37.4113 88.1257Z" fill="#FAFAFA"/>
<path d="M35.8354 66.4101L36.3703 66.1808C36.5908 66.0862 36.6957 65.8278 36.5981 65.6058L36.1932 64.6487C36.0992 64.4267 35.8426 64.3212 35.6221 64.4194L35.0329 64.6742C34.9426 64.7142 34.8414 64.6851 34.7799 64.6087C34.563 64.3466 34.3136 64.1137 34.0461 63.9099C33.963 63.8481 33.9305 63.7425 33.9702 63.6479L34.198 63.1093C34.2919 62.8873 34.1907 62.6289 33.9666 62.5343L33.016 62.1267C32.7955 62.0321 32.5388 62.134 32.4449 62.3596L32.1955 62.9528C32.1593 63.0438 32.0653 63.0947 31.9677 63.0838C31.6352 63.0438 31.2954 63.0438 30.9593 63.0875C30.858 63.0984 30.7605 63.0438 30.7243 62.9492L30.5183 62.4033C30.4351 62.1776 30.1821 62.0612 29.958 62.1485L28.9929 62.5161C28.7688 62.5998 28.6531 62.8545 28.7399 63.0802L28.9676 63.6843C29.0037 63.7753 28.9712 63.8772 28.8917 63.939C28.5411 64.2083 28.2374 64.5286 27.9916 64.8816C27.9338 64.9653 27.8254 65.0017 27.7278 64.9617L27.1494 64.7251C26.9253 64.6341 26.6723 64.7397 26.5819 64.9653L26.1916 65.9261C26.1012 66.1517 26.206 66.4065 26.4301 66.4974L27.088 66.7667C27.1784 66.8031 27.229 66.8941 27.2217 66.9924C27.182 67.4691 27.2217 67.9604 27.3446 68.4444C27.3699 68.5427 27.3302 68.6482 27.2398 68.6955L26.7265 68.9721C26.5133 69.0849 26.4337 69.3506 26.5494 69.5653L27.0374 70.4824C27.1494 70.6971 27.4133 70.7772 27.6266 70.6644L28.1905 70.3587C28.2772 70.3114 28.382 70.3296 28.4507 70.4024C28.6893 70.6462 28.9531 70.8573 29.2387 71.0356C29.3254 71.0902 29.3652 71.1921 29.3363 71.2903L29.1556 71.8435C29.0796 72.0728 29.2062 72.3202 29.4339 72.3967L30.4171 72.7206C30.6448 72.797 30.8906 72.6696 30.9665 72.4403L31.1653 71.8253C31.1942 71.7307 31.2846 71.6725 31.3822 71.6761C31.7147 71.687 32.0509 71.6579 32.387 71.5851C32.4846 71.5633 32.5895 71.6106 32.6328 71.7016L32.8822 72.2256C32.9871 72.444 33.2473 72.535 33.4642 72.4331L34.3931 71.9818C34.61 71.8763 34.7004 71.6142 34.5992 71.3959L34.3209 70.8136C34.2775 70.7262 34.3028 70.6207 34.3751 70.5552C34.6245 70.3259 34.8486 70.0675 35.0365 69.7873C35.0944 69.7036 35.1992 69.6672 35.2932 69.7036L35.839 69.9111C36.0631 69.9948 36.3161 69.8819 36.3993 69.6563L36.7607 68.681C36.8439 68.4554 36.7318 68.2006 36.5077 68.1169L35.9077 67.8913C35.8173 67.8585 35.7631 67.7675 35.7703 67.6693C35.792 67.3345 35.7775 66.996 35.7197 66.6576C35.6908 66.5484 35.745 66.4501 35.8354 66.4101ZM32.275 68.7465C31.2159 69.3615 29.8893 68.761 29.6471 67.5528C29.4989 66.8213 29.8423 66.0571 30.4857 65.6822C31.5448 65.0672 32.8714 65.6677 33.1136 66.8759C33.2618 67.6074 32.9184 68.3717 32.275 68.7465Z" fill="url(#paint31_linear_8_547)"/>
<path d="M42.3993 72.7426C42.3342 72.7426 42.2656 72.7317 42.2005 72.7099L41.2209 72.386C41.0583 72.3314 40.9282 72.2186 40.8523 72.0657C40.7763 71.9129 40.7619 71.7382 40.8161 71.578L40.9968 71.0249C40.686 70.8174 40.4077 70.5918 40.1582 70.3407L39.5691 70.6391C39.2618 70.8065 38.8751 70.6864 38.7088 70.3771L38.2244 69.46C38.1449 69.3108 38.1268 69.1361 38.1774 68.9723C38.228 68.8086 38.3365 68.6739 38.4847 68.5938L38.998 68.3173C38.8751 67.7932 38.8317 67.2837 38.8751 66.7742L38.2064 66.4831C38.0473 66.4176 37.9244 66.2975 37.8593 66.1373C37.7943 65.9809 37.7943 65.8062 37.8593 65.6461L38.2497 64.6853C38.3148 64.5288 38.4341 64.4051 38.5931 64.3359C38.7522 64.2704 38.922 64.2704 39.0811 64.3323L39.6594 64.5688C39.945 64.1831 40.2631 63.8519 40.6281 63.5717L40.4113 62.9421C40.2884 62.6109 40.4546 62.2433 40.78 62.116L41.7451 61.7484C42.0704 61.6247 42.4391 61.7921 42.5656 62.1196L42.768 62.6655C43.1403 62.6327 43.4945 62.6291 43.8488 62.6728L44.1199 62.0687C44.2572 61.7448 44.6332 61.5919 44.9549 61.7302L45.9055 62.1378C46.2272 62.2761 46.379 62.6509 46.2417 62.9785L46.0139 63.5171C46.3067 63.7536 46.567 63.9975 46.7911 64.2704L47.402 64.0266C47.7237 63.8883 48.0996 64.0375 48.2369 64.3614L48.6418 65.3185C48.7104 65.475 48.7104 65.6497 48.649 65.8098C48.5876 65.9699 48.4647 66.0937 48.3092 66.1592L47.7743 66.3885C47.7634 66.3921 47.7634 66.4103 47.7634 66.4139C47.8213 66.7633 47.8393 67.12 47.8176 67.473L48.4285 67.7204C48.7574 67.8442 48.9237 68.2154 48.8008 68.5429L48.4357 69.5182C48.3779 69.6784 48.2586 69.8057 48.1032 69.8749C47.9478 69.9477 47.7743 69.9513 47.6152 69.8931L47.0694 69.6856C46.8489 69.9877 46.6176 70.2606 46.3537 70.4972L46.6248 71.1049C46.6971 71.2578 46.7079 71.4325 46.6501 71.5926C46.5923 71.7527 46.4766 71.8837 46.3248 71.9565L45.3958 72.4078C45.244 72.4842 45.0705 72.4915 44.9115 72.4333C44.7524 72.375 44.6223 72.2622 44.55 72.1057L44.3006 71.5817C43.9355 71.6472 43.5813 71.6799 43.2271 71.669L43.0066 72.295C42.9162 72.5716 42.6668 72.7426 42.3993 72.7426ZM40.1402 69.9295C40.2486 69.9295 40.357 69.9731 40.4402 70.0568C40.6679 70.2861 40.9209 70.4899 41.192 70.661C41.3583 70.7665 41.4306 70.9666 41.3728 71.1522L41.192 71.7054C41.174 71.7673 41.1776 71.8292 41.2065 71.8874C41.2354 71.9456 41.2824 71.9856 41.3438 72.0075L42.3234 72.3314C42.4499 72.375 42.58 72.3023 42.6234 72.1785L42.8222 71.5635C42.8801 71.3852 43.0427 71.2687 43.2343 71.276C43.5596 71.2833 43.8813 71.2541 44.1922 71.1886C44.3801 71.1486 44.5753 71.2396 44.6585 71.4179L44.9079 71.942C44.9368 72.0002 44.9838 72.0439 45.0416 72.0621C45.0994 72.0839 45.1645 72.0803 45.2223 72.0511L46.1513 71.5999C46.2091 71.5708 46.2525 71.5235 46.2742 71.4652C46.2959 71.407 46.2923 71.3415 46.2633 71.2833L45.985 70.701C45.9055 70.5336 45.9453 70.3334 46.0826 70.206C46.3212 69.9877 46.5308 69.7439 46.7116 69.4746C46.8236 69.3108 47.026 69.2453 47.2068 69.3144L47.7526 69.5219C47.8104 69.5437 47.8755 69.5437 47.9333 69.5146C47.9911 69.4891 48.0345 69.4418 48.0562 69.3799L48.4213 68.4082C48.4683 68.2845 48.4032 68.1462 48.2839 68.1026L47.6803 67.8769C47.5068 67.8114 47.3983 67.6404 47.4128 67.4511C47.4345 67.1309 47.4164 66.807 47.3658 66.4867C47.3333 66.2902 47.4345 66.101 47.6116 66.0245L48.1466 65.7953C48.2658 65.7443 48.3237 65.6024 48.2695 65.4823L47.8646 64.5252C47.814 64.4051 47.6731 64.3468 47.5538 64.4014L46.9646 64.6562C46.7947 64.729 46.5995 64.6816 46.4802 64.5361C46.2778 64.2886 46.0392 64.0666 45.779 63.8737C45.6199 63.7536 45.5657 63.5498 45.6416 63.3679L45.8694 62.8329C45.92 62.7128 45.8657 62.5709 45.7428 62.5199L44.7922 62.1123C44.6729 62.0614 44.5319 62.116 44.4813 62.2397L44.2319 62.8329C44.1596 63.004 43.9897 63.1058 43.7982 63.084C43.4765 63.0476 43.1512 63.0476 42.8367 63.0877C42.6451 63.1131 42.4608 63.0039 42.3921 62.822L42.1897 62.2797C42.1427 62.156 42.0053 62.0941 41.886 62.1414L40.9209 62.509C40.798 62.5563 40.7366 62.6946 40.7836 62.8147L41.0113 63.4188C41.0764 63.5935 41.0221 63.79 40.8703 63.9028C40.5378 64.1576 40.2522 64.4597 40.0137 64.8017C39.898 64.9655 39.6956 65.0274 39.5112 64.951L38.9329 64.7144C38.8751 64.6889 38.81 64.6926 38.7522 64.7144C38.6943 64.7399 38.6473 64.7835 38.6256 64.8454L38.2353 65.8062C38.21 65.8644 38.21 65.9299 38.2353 65.9881C38.2606 66.0464 38.3039 66.0937 38.3654 66.1155L39.0233 66.3848C39.1931 66.454 39.298 66.6286 39.2799 66.8143C39.2401 67.2764 39.2799 67.7423 39.3992 68.1972C39.4498 68.3864 39.363 68.5829 39.1931 68.6776L38.6799 68.9541C38.6256 68.9833 38.5823 69.0342 38.5642 69.0961C38.5461 69.1579 38.5534 69.2198 38.5823 69.278L39.0666 70.1951C39.1281 70.3116 39.2691 70.3553 39.3883 70.2934L39.9522 69.9877C40.0064 69.9477 40.0751 69.9295 40.1402 69.9295ZM47.6911 66.2065H47.6947H47.6911ZM43.2379 68.9905C42.9632 68.9905 42.6885 68.9323 42.4318 68.8122C41.8463 68.5465 41.4378 68.0261 41.3113 67.3856C41.1487 66.5741 41.5354 65.7152 42.2475 65.3003C42.8078 64.9728 43.4656 64.94 44.0512 65.2057C44.6368 65.4714 45.0452 65.9918 45.1717 66.6323C45.3344 67.4438 44.9476 68.3027 44.2355 68.7176C43.9211 68.8996 43.5777 68.9905 43.2379 68.9905ZM43.2379 65.435C42.9632 65.435 42.6921 65.5078 42.4427 65.6533C41.8752 65.9845 41.5716 66.665 41.6981 67.3092C41.7993 67.8223 42.1282 68.2372 42.5909 68.4483C43.0572 68.6594 43.5813 68.6302 44.0295 68.3719L44.1307 68.5465L44.0295 68.3719C44.597 68.0407 44.9006 67.3601 44.7741 66.716C44.6729 66.2029 44.344 65.788 43.8813 65.5769C43.6753 65.4823 43.4548 65.435 43.2379 65.435Z" fill="url(#paint32_linear_8_547)"/>
<path d="M41.4524 57.4722L41.9873 57.243C42.2078 57.1483 42.3127 56.8899 42.2151 56.6679L41.8102 55.7108C41.7162 55.4888 41.4596 55.3833 41.2391 55.4815L40.6499 55.7363C40.5596 55.7763 40.4584 55.7472 40.3969 55.6708C40.18 55.4088 39.9306 55.1759 39.6631 54.9721C39.58 54.9102 39.5511 54.8046 39.5908 54.71L39.8186 54.1714C39.9125 53.9494 39.8113 53.691 39.5872 53.5964L38.6366 53.1888C38.4161 53.0942 38.1595 53.1961 38.0655 53.4217L37.8161 54.0149C37.7763 54.1059 37.6859 54.1569 37.5883 54.1459C37.2558 54.1096 36.9196 54.1096 36.5799 54.1496C36.4787 54.1641 36.3811 54.1059 36.3449 54.0113L36.1425 53.469C36.0557 53.2434 35.8063 53.127 35.5786 53.2143L34.6135 53.5819C34.3894 53.6692 34.2737 53.9203 34.3605 54.1496L34.5882 54.7537C34.6243 54.8447 34.5918 54.9466 34.5123 55.0085C34.1617 55.2778 33.858 55.598 33.6123 55.951C33.5544 56.0347 33.446 56.0711 33.3484 56.0311L32.77 55.7945C32.5459 55.7035 32.2929 55.8091 32.2026 56.0347L31.8122 56.9955C31.7218 57.2211 31.8266 57.4759 32.0507 57.5668L32.7086 57.8361C32.799 57.8725 32.8496 57.9635 32.8423 58.0618C32.8026 58.5385 32.8423 59.0298 32.9652 59.5138C32.9905 59.6121 32.9472 59.7176 32.8604 59.765L32.3471 60.0415C32.1339 60.1544 32.0544 60.4237 32.1664 60.6347L32.6544 61.5518C32.77 61.7665 33.0339 61.8466 33.2436 61.7301L33.8074 61.4245C33.8942 61.3771 33.999 61.3953 34.0677 61.4681C34.3063 61.712 34.5737 61.923 34.8557 62.1014C34.9424 62.1559 34.9822 62.2615 34.9497 62.3561L34.7689 62.9093C34.693 63.1385 34.8195 63.3897 35.0473 63.4624L36.0304 63.7863C36.2582 63.8628 36.504 63.7354 36.5799 63.5061L36.7787 62.8911C36.8076 62.7964 36.8979 62.7382 36.9955 62.7419C37.3281 62.7528 37.6642 62.7237 38.0004 62.6509C38.098 62.629 38.2028 62.6764 38.2462 62.7673L38.4956 63.2914C38.6004 63.5097 38.8607 63.6007 39.0776 63.4988L40.0101 63.0476C40.227 62.942 40.3174 62.68 40.2162 62.4616L39.9378 61.8794C39.8945 61.792 39.9198 61.6865 39.9921 61.621C40.2451 61.3917 40.4656 61.1333 40.6535 60.8531C40.7114 60.7694 40.8162 60.733 40.9102 60.7694L41.456 60.9768C41.6801 61.0605 41.9331 60.9477 42.0163 60.7184L42.3813 59.7468C42.4645 59.5211 42.3524 59.2664 42.1247 59.1827L41.5247 58.9534C41.4343 58.9206 41.3801 58.8297 41.3837 58.7314C41.4054 58.3966 41.3909 58.0581 41.3331 57.7197C41.3078 57.6142 41.3584 57.5123 41.4524 57.4722ZM37.892 59.8123C36.8329 60.4273 35.5063 59.8268 35.2641 58.6186C35.1196 57.8871 35.4629 57.1229 36.1027 56.748C37.1618 56.133 38.4884 56.7335 38.7306 57.9417C38.8788 58.6732 38.5354 59.4374 37.892 59.8123Z" fill="url(#paint33_linear_8_547)"/>
<defs>
<linearGradient id="paint0_linear_8_547" x1="46.7286" y1="16.8474" x2="47.2782" y2="27.037" gradientUnits="userSpaceOnUse">
<stop stop-color="#FF839D"/>
<stop offset="1" stop-color="#F50B9A"/>
</linearGradient>
<linearGradient id="paint1_linear_8_547" x1="46.7284" y1="16.8475" x2="47.278" y2="27.037" gradientUnits="userSpaceOnUse">
<stop stop-color="#FF839D"/>
<stop offset="1" stop-color="#F50B9A"/>
</linearGradient>
<linearGradient id="paint2_linear_8_547" x1="22.357" y1="101.901" x2="23.5713" y2="113.56" gradientUnits="userSpaceOnUse">
<stop stop-color="#FF63DE"/>
<stop offset="1" stop-color="#B122E5"/>
</linearGradient>
<linearGradient id="paint3_linear_8_547" x1="22.3569" y1="101.901" x2="23.5712" y2="113.56" gradientUnits="userSpaceOnUse">
<stop stop-color="#FF63DE"/>
<stop offset="1" stop-color="#B122E5"/>
</linearGradient>
<linearGradient id="paint4_linear_8_547" x1="81.2867" y1="123.323" x2="82.5688" y2="132.964" gradientUnits="userSpaceOnUse">
<stop stop-color="#9C27B0"/>
<stop offset="1" stop-color="#4A148C"/>
</linearGradient>
<linearGradient id="paint5_linear_8_547" x1="81.2867" y1="123.323" x2="82.5688" y2="132.964" gradientUnits="userSpaceOnUse">
<stop stop-color="#9C27B0"/>
<stop offset="1" stop-color="#4A148C"/>
</linearGradient>
<linearGradient id="paint6_linear_8_547" x1="126.99" y1="68.876" x2="128.822" y2="78.8796" gradientUnits="userSpaceOnUse">
<stop stop-color="#FDC830"/>
<stop offset="1" stop-color="#F37335"/>
</linearGradient>
<linearGradient id="paint7_linear_8_547" x1="126.99" y1="68.8762" x2="128.822" y2="78.8798" gradientUnits="userSpaceOnUse">
<stop stop-color="#FDC830"/>
<stop offset="1" stop-color="#F37335"/>
</linearGradient>
<linearGradient id="paint8_linear_8_547" x1="76.0217" y1="71.4685" x2="77.6159" y2="80.177" gradientUnits="userSpaceOnUse">
<stop stop-color="#FF839D"/>
<stop offset="1" stop-color="#F50B9A"/>
</linearGradient>
<linearGradient id="paint9_linear_8_547" x1="76.0216" y1="71.4684" x2="77.6157" y2="80.177" gradientUnits="userSpaceOnUse">
<stop stop-color="#FF839D"/>
<stop offset="1" stop-color="#F50B9A"/>
</linearGradient>
<linearGradient id="paint10_linear_8_547" x1="100.139" y1="18.3175" x2="100.139" y2="28.7141" gradientUnits="userSpaceOnUse">
<stop stop-color="#8E2DE2"/>
<stop offset="1" stop-color="#4A00E0"/>
</linearGradient>
<linearGradient id="paint11_linear_8_547" x1="100.139" y1="18.3176" x2="100.139" y2="28.7142" gradientUnits="userSpaceOnUse">
<stop stop-color="#8E2DE2"/>
<stop offset="1" stop-color="#4A00E0"/>
</linearGradient>
<linearGradient id="paint12_linear_8_547" x1="46.6232" y1="103.467" x2="53.9489" y2="149.852" gradientUnits="userSpaceOnUse">
<stop stop-color="#FF63DE"/>
<stop offset="1" stop-color="#B122E5"/>
</linearGradient>
<linearGradient id="paint13_linear_8_547" x1="44.881" y1="113.444" x2="54.5093" y2="135.839" gradientUnits="userSpaceOnUse">
<stop stop-color="#FF63DE"/>
<stop offset="1" stop-color="#B122E5"/>
</linearGradient>
<linearGradient id="paint14_linear_8_547" x1="116.558" y1="78.7102" x2="119.855" y2="100.63" gradientUnits="userSpaceOnUse">
<stop stop-color="#FF839D"/>
<stop offset="1" stop-color="#F50B9A"/>
</linearGradient>
<linearGradient id="paint15_linear_8_547" x1="117.928" y1="86.5145" x2="118.538" y2="91.9118" gradientUnits="userSpaceOnUse">
<stop stop-color="#FF839D"/>
<stop offset="1" stop-color="#F50B9A"/>
</linearGradient>
<linearGradient id="paint16_linear_8_547" x1="117.427" y1="86.5712" x2="118.038" y2="91.9685" gradientUnits="userSpaceOnUse">
<stop stop-color="#FF839D"/>
<stop offset="1" stop-color="#F50B9A"/>
</linearGradient>
<linearGradient id="paint17_linear_8_547" x1="84.7599" y1="81.275" x2="91.1699" y2="121.566" gradientUnits="userSpaceOnUse">
<stop stop-color="#9C27B0"/>
<stop offset="1" stop-color="#4A148C"/>
</linearGradient>
<linearGradient id="paint18_linear_8_547" x1="84.4784" y1="92.6265" x2="90.4572" y2="113.956" gradientUnits="userSpaceOnUse">
<stop stop-color="#9C27B0"/>
<stop offset="1" stop-color="#4A148C"/>
</linearGradient>
<linearGradient id="paint19_linear_8_547" x1="84.4957" y1="92.6216" x2="90.4745" y2="113.951" gradientUnits="userSpaceOnUse">
<stop stop-color="#9C27B0"/>
<stop offset="1" stop-color="#4A148C"/>
</linearGradient>
<linearGradient id="paint20_linear_8_547" x1="90.2877" y1="90.9979" x2="96.2665" y2="112.327" gradientUnits="userSpaceOnUse">
<stop stop-color="#9C27B0"/>
<stop offset="1" stop-color="#4A148C"/>
</linearGradient>
<linearGradient id="paint21_linear_8_547" x1="98.7014" y1="31.2769" x2="102.915" y2="80.8571" gradientUnits="userSpaceOnUse">
<stop stop-color="#FDC830"/>
<stop offset="1" stop-color="#F37335"/>
</linearGradient>
<linearGradient id="paint22_linear_8_547" x1="92.4613" y1="55.4552" x2="108.995" y2="55.4552" gradientUnits="userSpaceOnUse">
<stop stop-color="#FDC830"/>
<stop offset="1" stop-color="#F37335"/>
</linearGradient>
<linearGradient id="paint23_linear_8_547" x1="94.1943" y1="55.4549" x2="107.263" y2="55.4549" gradientUnits="userSpaceOnUse">
<stop stop-color="#FDC830"/>
<stop offset="1" stop-color="#F37335"/>
</linearGradient>
<linearGradient id="paint24_linear_8_547" x1="63.9282" y1="2.42249" x2="83.6483" y2="36.3474" gradientUnits="userSpaceOnUse">
<stop stop-color="#8E2DE2"/>
<stop offset="1" stop-color="#4A00E0"/>
</linearGradient>
<linearGradient id="paint25_linear_8_547" x1="66.5697" y1="20.8117" x2="80.6921" y2="20.8117" gradientUnits="userSpaceOnUse">
<stop stop-color="#8E2DE2"/>
<stop offset="1" stop-color="#4A00E0"/>
</linearGradient>
<linearGradient id="paint26_linear_8_547" x1="71.9358" y1="12.5602" x2="75.2227" y2="12.5602" gradientUnits="userSpaceOnUse">
<stop stop-color="#8E2DE2"/>
<stop offset="1" stop-color="#4A00E0"/>
</linearGradient>
<linearGradient id="paint27_linear_8_547" x1="81.305" y1="20.8118" x2="81.7147" y2="20.8118" gradientUnits="userSpaceOnUse">
<stop stop-color="#8E2DE2"/>
<stop offset="1" stop-color="#4A00E0"/>
</linearGradient>
<linearGradient id="paint28_linear_8_547" x1="65.5479" y1="20.8118" x2="65.9576" y2="20.8118" gradientUnits="userSpaceOnUse">
<stop stop-color="#8E2DE2"/>
<stop offset="1" stop-color="#4A00E0"/>
</linearGradient>
<linearGradient id="paint29_linear_8_547" x1="68.0586" y1="20.8117" x2="79.2048" y2="20.8117" gradientUnits="userSpaceOnUse">
<stop stop-color="#8E2DE2"/>
<stop offset="1" stop-color="#4A00E0"/>
</linearGradient>
<linearGradient id="paint30_linear_8_547" x1="19.0929" y1="32.9348" x2="55.6249" y2="95.7818" gradientUnits="userSpaceOnUse">
<stop stop-color="#FF839D"/>
<stop offset="1" stop-color="#F50B9A"/>
</linearGradient>
<linearGradient id="paint31_linear_8_547" x1="27.4937" y1="57.468" x2="35.5005" y2="77.0656" gradientUnits="userSpaceOnUse">
<stop stop-color="#FF839D"/>
<stop offset="1" stop-color="#F50B9A"/>
</linearGradient>
<linearGradient id="paint32_linear_8_547" x1="37.742" y1="53.281" x2="45.7488" y2="72.8786" gradientUnits="userSpaceOnUse">
<stop stop-color="#FF839D"/>
<stop offset="1" stop-color="#F50B9A"/>
</linearGradient>
<linearGradient id="paint33_linear_8_547" x1="35.408" y1="54.2346" x2="43.4148" y2="73.8322" gradientUnits="userSpaceOnUse">
<stop stop-color="#FF839D"/>
<stop offset="1" stop-color="#F50B9A"/>
</linearGradient>
</defs>
</svg>
