<svg width="22" height="22" viewBox="0 0 22 22" fill="none" xmlns="http://www.w3.org/2000/svg">
<path d="M18.3333 3.88447V1.83333C18.3321 0.821333 17.512 0.00128333 16.5 0H1.83333C0.821333 0.00128333 0.00128333 0.821333 0 1.83333V9.9C0.00284167 10.8364 0.712617 11.6195 1.64413 11.7144L3.02243 15.2923C3.38653 16.237 4.44748 16.7076 5.39229 16.344L13.9993 13.0284C13.4046 14.5819 13.5738 16.3246 14.456 17.7347L14.6667 18.0715V21.6333C14.6667 21.8359 14.8308 22 15.0333 22H21.6333C21.8359 22 22 21.8359 22 21.6333V9.53013C21.9965 8.2621 21.4917 7.04715 20.5952 6.15038L18.3333 3.88447ZM18.3333 6.07732L19.4462 8.9661C19.6642 9.53315 19.3816 10.1694 18.8147 10.3877L18.1786 10.6333C18.2802 10.4022 18.3328 10.1523 18.3333 9.9V6.07732ZM0.733333 9.9V1.83333C0.733333 1.22595 1.22595 0.733333 1.83333 0.733333H16.5C17.1074 0.733333 17.6 1.22595 17.6 1.83333V4.16387H17.5968L17.6 4.17221V9.9C17.5972 9.96398 17.5888 10.0274 17.5751 10.0899L14.2164 6.7309C13.4614 5.99335 12.2579 5.98767 11.4961 6.71752C10.7342 7.44782 10.6884 8.65049 11.3931 9.43608L12.8249 11H1.83333C1.22595 11 0.733333 10.5074 0.733333 9.9ZM5.4307 11.7333L2.82333 12.7372L2.4376 11.7333H5.4307ZM5.12857 15.6595C4.5617 15.878 3.92508 15.5954 3.70663 15.0286L3.08807 13.42L7.46497 11.7333V11.7311H13.497L13.9736 12.2507L5.12857 15.6595ZM21.2667 21.2667H15.4V18.3333H21.2667V21.2667ZM21.2667 17.6H15.2368L15.0778 17.3459C14.1838 15.9172 14.1482 14.1126 14.9849 12.65C15.0641 12.5116 15.0447 12.3378 14.9369 12.2203L11.9322 8.94227C11.4841 8.45185 11.5093 7.69368 11.989 7.23433C12.4689 6.7749 13.2274 6.78242 13.6978 7.25102L19.5408 13.0926L20.0592 12.5741L18.7026 11.2174L19.0788 11.0708C20.0228 10.7066 20.4932 9.64654 20.13 8.70201L18.8889 5.47937L20.0767 6.66967C20.8357 7.42848 21.2637 8.4568 21.2667 9.53013V17.6Z" fill="#489494"/>
<path d="M4.18013 5.13335C4.70667 5.13335 5.13347 4.70654 5.13347 4.18001V2.42001C5.13347 1.89348 4.70667 1.46667 4.18013 1.46667H2.42013C1.8936 1.46667 1.4668 1.89348 1.4668 2.42001V4.18001C1.4668 4.70654 1.8936 5.13335 2.42013 5.13335H4.18013ZM2.20013 4.18001V3.66668H2.93347V2.93334H2.20013V2.42001C2.20013 2.29855 2.29867 2.20001 2.42013 2.20001H4.18013C4.30159 2.20001 4.40013 2.29855 4.40013 2.42001V2.93334H3.6668V3.66668H4.40013V4.18001C4.40013 4.30147 4.30159 4.40001 4.18013 4.40001H2.42013C2.29867 4.40001 2.20013 4.30147 2.20013 4.18001Z" fill="#489494"/>
<path d="M1.8335 6.23334H3.30016V6.96667H1.8335V6.23334Z" fill="#489494"/>
<path d="M1.8335 8.43335H3.30016V9.16668H1.8335V8.43335Z" fill="#489494"/>
<path d="M8.43311 8.43335H9.89977V9.16668H8.43311V8.43335Z" fill="#489494"/>
<path d="M4.0332 6.23334H5.49987V6.96667H4.0332V6.23334Z" fill="#489494"/>
<path d="M6.2334 6.23334H7.70007V6.96667H6.2334V6.23334Z" fill="#489494"/>
<path d="M8.43311 6.23334H9.89977V6.96667H8.43311V6.23334Z" fill="#489494"/>
<path d="M15.3999 1.83331H16.1332V2.93331H15.3999V1.83331Z" fill="#489494"/>
<path d="M13.9331 1.83331H14.6664V2.93331H13.9331V1.83331Z" fill="#489494"/>
<path d="M12.4668 1.83331H13.2001V2.93331H12.4668V1.83331Z" fill="#489494"/>
<path d="M11 1.83331H11.7333V2.93331H11V1.83331Z" fill="#489494"/>
<path d="M16.1333 19.0667H16.8666V19.8H16.1333V19.0667Z" fill="#489494"/>
</svg>
