<svg width="22" height="22" viewBox="0 0 22 22" fill="none" xmlns="http://www.w3.org/2000/svg">
<path d="M19.7705 20.3649H2.22991C2.15107 20.3649 2.07545 20.3336 2.01969 20.2778C1.96394 20.2221 1.93262 20.1465 1.93262 20.0676V9.76031C1.93262 9.68146 1.96394 9.60584 2.01969 9.55009C2.07545 9.49434 2.15107 9.46301 2.22991 9.46301C2.30876 9.46301 2.38438 9.49434 2.44014 9.55009C2.49589 9.60584 2.52721 9.68146 2.52721 9.76031V19.7703H19.4732V9.76031C19.4732 9.68146 19.5045 9.60584 19.5602 9.55009C19.616 9.49434 19.6916 9.46301 19.7705 9.46301C19.8493 9.46301 19.9249 9.49434 19.9807 9.55009C20.0364 9.60584 20.0678 9.68146 20.0678 9.76031V20.0676C20.0678 20.1465 20.0364 20.2221 19.9807 20.2778C19.9249 20.3336 19.8493 20.3649 19.7705 20.3649Z" fill="#79B0B0"/>
<path d="M21.1078 7.28384H0.891598C0.841634 7.28361 0.792536 7.27078 0.748839 7.24655C0.705142 7.22232 0.668256 7.18747 0.641589 7.14522C0.614921 7.10297 0.599333 7.05468 0.596265 7.00481C0.593196 6.95494 0.602745 6.9051 0.62403 6.85989L3.00241 1.80584C3.02633 1.75503 3.06416 1.71203 3.11152 1.68183C3.15887 1.65163 3.21381 1.63546 3.26998 1.63519H18.7294C18.7859 1.63518 18.8411 1.65121 18.8888 1.68143C18.9364 1.71165 18.9745 1.7548 18.9985 1.80584L21.3769 6.85989C21.3982 6.90521 21.4078 6.95519 21.4046 7.00518C21.4015 7.05517 21.3858 7.10356 21.3589 7.14585C21.3321 7.18814 21.295 7.22296 21.2511 7.24709C21.2072 7.27121 21.1579 7.28385 21.1078 7.28384ZM1.36014 6.68925H20.6393L18.5407 2.22979H3.45876L1.36014 6.68925Z" fill="#79B0B0"/>
<path d="M19.4232 10.0944C18.8977 10.0938 18.394 9.88472 18.0224 9.51314C17.6509 9.14155 17.442 8.63777 17.4414 8.11231V6.98645C17.4414 6.9076 17.4727 6.83198 17.5285 6.77622C17.5842 6.72047 17.6599 6.68915 17.7387 6.68915H21.108C21.1868 6.68915 21.2624 6.72047 21.3182 6.77622C21.374 6.83198 21.4053 6.9076 21.4053 6.98645V8.11231C21.4046 8.6378 21.1956 9.14158 20.824 9.51316C20.4525 9.88473 19.9487 10.0938 19.4232 10.0944ZM18.036 7.28374V8.11231C18.0333 8.29621 18.0672 8.4788 18.1357 8.64948C18.2042 8.82016 18.306 8.97552 18.4351 9.10651C18.5642 9.23751 18.718 9.34153 18.8877 9.41254C19.0573 9.48354 19.2394 9.5201 19.4233 9.5201C19.6073 9.5201 19.7893 9.48354 19.959 9.41254C20.1287 9.34153 20.2825 9.23751 20.4116 9.10651C20.5407 8.97552 20.6425 8.82016 20.711 8.64948C20.7795 8.4788 20.8134 8.29621 20.8107 8.11231V7.28374H18.036Z" fill="#79B0B0"/>
<path d="M16.0539 10.0944C15.5284 10.0938 15.0246 9.88473 14.653 9.51316C14.2814 9.14158 14.0724 8.6378 14.0718 8.11231V6.98645C14.0718 6.9076 14.1031 6.83198 14.1589 6.77622C14.2146 6.72047 14.2902 6.68915 14.3691 6.68915H17.7386C17.8175 6.68915 17.8931 6.72047 17.9489 6.77622C18.0046 6.83198 18.0359 6.9076 18.0359 6.98645V8.11231C18.0353 8.6378 17.8263 9.14158 17.4547 9.51316C17.0831 9.88473 16.5793 10.0938 16.0539 10.0944ZM14.6664 7.28374V8.11231C14.6664 8.48029 14.8126 8.83321 15.0728 9.09341C15.333 9.35361 15.6859 9.49979 16.0539 9.49979C16.4218 9.49979 16.7748 9.35361 17.035 9.09341C17.2952 8.83321 17.4413 8.48029 17.4413 8.11231V7.28374H14.6664Z" fill="#79B0B0"/>
<path d="M12.6847 10.0944C12.1592 10.0938 11.6554 9.88473 11.2839 9.51316C10.9123 9.14158 10.7033 8.6378 10.7026 8.11231V6.98645C10.7026 6.9076 10.734 6.83198 10.7897 6.77622C10.8455 6.72047 10.9211 6.68915 10.9999 6.68915H14.3692C14.4481 6.68915 14.5237 6.72047 14.5794 6.77622C14.6352 6.83198 14.6665 6.9076 14.6665 6.98645V8.11231C14.666 8.63777 14.457 9.14155 14.0855 9.51314C13.7139 9.88472 13.2102 10.0938 12.6847 10.0944ZM11.2972 7.28374V8.11231C11.2945 8.29621 11.3284 8.4788 11.3969 8.64948C11.4655 8.82016 11.5672 8.97552 11.6963 9.10651C11.8254 9.23751 11.9793 9.34153 12.1489 9.41254C12.3186 9.48354 12.5007 9.5201 12.6846 9.5201C12.8685 9.5201 13.0506 9.48354 13.2202 9.41254C13.3899 9.34153 13.5437 9.23751 13.6728 9.10651C13.8019 8.97552 13.9037 8.82016 13.9722 8.64948C14.0407 8.4788 14.0746 8.29621 14.0719 8.11231V7.28374H11.2972Z" fill="#79B0B0"/>
<path d="M9.31528 10.0944C8.78982 10.0938 8.28607 9.88472 7.91454 9.51314C7.54301 9.14155 7.33405 8.63777 7.3335 8.11231V6.98645C7.3335 6.9076 7.36482 6.83198 7.42057 6.77622C7.47633 6.72047 7.55195 6.68915 7.63079 6.68915H11.0001C11.0789 6.68915 11.1545 6.72047 11.2103 6.77622C11.266 6.83198 11.2974 6.9076 11.2974 6.98645V8.11231C11.2967 8.6378 11.0877 9.14158 10.7161 9.51316C10.3446 9.88473 9.84077 10.0938 9.31528 10.0944ZM7.92809 7.28374V8.11231C7.9254 8.29621 7.95929 8.4788 8.02781 8.64948C8.09632 8.82016 8.19808 8.97552 8.32717 9.10651C8.45627 9.23751 8.61012 9.34153 8.77977 9.41254C8.94943 9.48354 9.13151 9.5201 9.31543 9.5201C9.49935 9.5201 9.68143 9.48354 9.85109 9.41254C10.0207 9.34153 10.1746 9.23751 10.3037 9.10651C10.4328 8.97552 10.5345 8.82016 10.6031 8.64948C10.6716 8.4788 10.7055 8.29621 10.7028 8.11231V7.28374H7.92809Z" fill="#79B0B0"/>
<path d="M5.94595 10.0944C5.42046 10.0938 4.91668 9.88473 4.5451 9.51316C4.17352 9.14158 3.9645 8.6378 3.96387 8.11231V6.98645C3.96387 6.9076 3.99519 6.83198 4.05094 6.77622C4.1067 6.72047 4.18232 6.68915 4.26116 6.68915H7.63073C7.70958 6.68915 7.7852 6.72047 7.84095 6.77622C7.89671 6.83198 7.92803 6.9076 7.92803 6.98645V8.11231C7.9274 8.6378 7.71837 9.14158 7.3468 9.51316C6.97522 9.88473 6.47144 10.0938 5.94595 10.0944ZM4.55846 7.28374V8.11231C4.55846 8.48029 4.70464 8.83321 4.96485 9.09341C5.22505 9.35361 5.57796 9.49979 5.94595 9.49979C6.31393 9.49979 6.66685 9.35361 6.92705 9.09341C7.18725 8.83321 7.33344 8.48029 7.33344 8.11231V7.28374H4.55846Z" fill="#79B0B0"/>
<path d="M2.57681 10.0944C2.05132 10.0938 1.54754 9.88473 1.17596 9.51316C0.804384 9.14158 0.595356 8.6378 0.594727 8.11231V6.98645C0.594727 6.9076 0.626049 6.83198 0.681803 6.77622C0.737557 6.72047 0.813176 6.68915 0.892024 6.68915H4.26129C4.34014 6.68915 4.41576 6.72047 4.47152 6.77622C4.52727 6.83198 4.55859 6.9076 4.55859 6.98645V8.11231C4.55804 8.63777 4.34908 9.14155 3.97755 9.51314C3.60602 9.88472 3.10227 10.0938 2.57681 10.0944ZM1.18932 7.28374V8.11231C1.18663 8.29621 1.22052 8.4788 1.28904 8.64948C1.35755 8.82016 1.45931 8.97552 1.5884 9.10651C1.7175 9.23751 1.87135 9.34153 2.041 9.41254C2.21066 9.48354 2.39274 9.5201 2.57666 9.5201C2.76058 9.5201 2.94266 9.48354 3.11231 9.41254C3.28197 9.34153 3.43582 9.23751 3.56491 9.10651C3.69401 8.97552 3.79577 8.82016 3.86428 8.64948C3.93279 8.4788 3.96669 8.29621 3.964 8.11231V7.28374H1.18932Z" fill="#79B0B0"/>
<path d="M8.62151 20.3648H4.65765C4.5788 20.3648 4.50318 20.3335 4.44743 20.2778C4.39167 20.222 4.36035 20.1464 4.36035 20.0675V14.7162C4.36035 14.6373 4.39167 14.5617 4.44743 14.506C4.50318 14.4502 4.5788 14.4189 4.65765 14.4189H8.62151C8.70036 14.4189 8.77598 14.4502 8.83174 14.506C8.88749 14.5617 8.91881 14.6373 8.91881 14.7162V20.0675C8.91881 20.1464 8.88749 20.222 8.83174 20.2778C8.77598 20.3335 8.70036 20.3648 8.62151 20.3648ZM4.95495 19.7702H8.32422V15.0135H4.95495V19.7702Z" fill="#79B0B0"/>
<path d="M17.0819 16.7881H11.2353C11.1564 16.7881 11.0808 16.7568 11.0251 16.701C10.9693 16.6453 10.938 16.5696 10.938 16.4908V12.6946C10.9381 12.5727 10.9865 12.4558 11.0727 12.3696C11.1588 12.2834 11.2757 12.2348 11.3976 12.2347H16.9196C17.0415 12.2348 17.1584 12.2834 17.2445 12.3696C17.3307 12.4558 17.3792 12.5727 17.3792 12.6946V16.4908C17.3792 16.5696 17.3479 16.6453 17.2922 16.701C17.2364 16.7568 17.1608 16.7881 17.0819 16.7881ZM11.5326 16.1935H16.7846V12.8302H11.5326V16.1935Z" fill="#79B0B0"/>
<path d="M17.6769 16.7881H10.641C10.5622 16.7881 10.4866 16.7568 10.4308 16.701C10.3751 16.6452 10.3438 16.5696 10.3438 16.4908C10.3438 16.4119 10.3751 16.3363 10.4308 16.2806C10.4866 16.2248 10.5622 16.1935 10.641 16.1935H17.6769C17.7557 16.1935 17.8313 16.2248 17.8871 16.2806C17.9429 16.3363 17.9742 16.4119 17.9742 16.4908C17.9742 16.5696 17.9429 16.6452 17.8871 16.701C17.8313 16.7568 17.7557 16.7881 17.6769 16.7881Z" fill="#79B0B0"/>
<path d="M17.7394 7.2838C17.6721 7.28371 17.6067 7.26075 17.5541 7.21867C17.5015 7.1766 17.4648 7.1179 17.4499 7.0522L16.3023 1.99815C16.2869 1.92203 16.3019 1.84291 16.344 1.7777C16.3862 1.71249 16.4522 1.66637 16.528 1.6492C16.6037 1.63203 16.6831 1.64518 16.7493 1.68584C16.8155 1.72649 16.8631 1.79142 16.882 1.86674L18.0296 6.92079C18.0395 6.96433 18.0394 7.00954 18.0294 7.05304C18.0194 7.09655 17.9997 7.13725 17.9719 7.17213C17.944 7.207 17.9086 7.23514 17.8684 7.25447C17.8282 7.27381 17.7841 7.28383 17.7394 7.2838Z" fill="#79B0B0"/>
<path d="M14.3053 7.28386C14.2355 7.28376 14.168 7.25913 14.1146 7.21429C14.0612 7.16946 14.0252 7.10726 14.013 7.03859L13.1119 1.98454C13.0991 1.90734 13.1173 1.82821 13.1624 1.76431C13.2076 1.70041 13.2761 1.6569 13.3532 1.6432C13.4302 1.62951 13.5096 1.64674 13.574 1.69116C13.6384 1.73558 13.6827 1.80361 13.6973 1.88048L14.5981 6.93454C14.6119 7.01212 14.5942 7.09199 14.5492 7.1566C14.5041 7.2212 14.4352 7.26527 14.3576 7.27911C14.3403 7.2823 14.3228 7.28389 14.3053 7.28386Z" fill="#79B0B0"/>
<path d="M4.26089 7.28377C4.21625 7.2838 4.17217 7.27378 4.13193 7.25445C4.09169 7.23511 4.05633 7.20697 4.02845 7.1721C4.00058 7.13723 3.98092 7.09653 3.97092 7.05302C3.96093 7.00951 3.96086 6.96431 3.97073 6.92077L5.1183 1.86671C5.12616 1.82788 5.1417 1.79101 5.16402 1.75827C5.18633 1.72554 5.21497 1.69759 5.24824 1.67607C5.2815 1.65456 5.31874 1.63991 5.35775 1.63299C5.39676 1.62607 5.43676 1.62701 5.4754 1.63577C5.51404 1.64453 5.55054 1.66092 5.58275 1.68399C5.61497 1.70705 5.64224 1.73633 5.66299 1.77008C5.68373 1.80384 5.69751 1.8414 5.70353 1.88056C5.70954 1.91972 5.70767 1.95969 5.69803 1.99812L4.55046 7.05217C4.53557 7.11787 4.49881 7.17657 4.4462 7.21864C4.3936 7.26072 4.32826 7.28368 4.26089 7.28377Z" fill="#79B0B0"/>
<path d="M7.69438 7.28386C7.67682 7.28389 7.65931 7.2823 7.64205 7.27911C7.56449 7.26527 7.49559 7.2212 7.45049 7.1566C7.40539 7.09199 7.38779 7.01212 7.40154 6.93454L8.30235 1.88048C8.31694 1.80361 8.36125 1.73558 8.42567 1.69116C8.49009 1.64674 8.56942 1.62951 8.64646 1.6432C8.72351 1.6569 8.79204 1.70041 8.83721 1.76431C8.88237 1.82821 8.90053 1.90734 8.88773 1.98454L7.98662 7.03859C7.97441 7.10726 7.93845 7.16946 7.88503 7.21429C7.83161 7.25913 7.76412 7.28376 7.69438 7.28386Z" fill="#79B0B0"/>
<path d="M10.9999 7.28384C10.9211 7.28384 10.8455 7.25252 10.7897 7.19676C10.734 7.14101 10.7026 7.06539 10.7026 6.98654V1.93249C10.7026 1.85364 10.734 1.77802 10.7897 1.72227C10.8455 1.66652 10.9211 1.63519 10.9999 1.63519C11.0788 1.63519 11.1544 1.66652 11.2102 1.72227C11.2659 1.77802 11.2972 1.85364 11.2972 1.93249V6.98654C11.2972 7.06539 11.2659 7.14101 11.2102 7.19676C11.1544 7.25252 11.0788 7.28384 10.9999 7.28384Z" fill="#79B0B0"/>
</svg>
