<svg width="22" height="22" viewBox="0 0 22 22" fill="none" xmlns="http://www.w3.org/2000/svg">
<g clip-path="url(#clip0_701_6)">
<path d="M21.971 13.1766L21.4379 10.2425C21.406 10.0669 21.2376 9.95062 21.0623 9.9824C20.8868 10.0143 20.7704 10.1824 20.8023 10.3579L21.3356 13.2926C21.3874 13.5754 21.3261 13.8614 21.1627 14.0982C20.9994 14.3349 20.7537 14.4939 20.4698 14.546L18.3906 14.9353C18.2152 14.9682 18.0997 15.1369 18.1325 15.3122C18.1616 15.4675 18.2972 15.5758 18.4496 15.5758C18.4693 15.5758 20.5876 15.1811 20.5876 15.1811C21.04 15.098 21.4331 14.8437 21.6945 14.465C21.9558 14.0863 22.054 13.6285 21.971 13.1766Z" fill="#79B0B0"/>
<path d="M16.8675 15.2073L9.70951 16.5208C9.1254 16.6279 8.563 16.2401 8.45585 15.6562L7.37145 9.74623C7.26426 9.16213 7.65215 8.59973 8.23609 8.49258L18.9979 6.51757C19.2805 6.46572 19.5666 6.527 19.8035 6.69039C20.0402 6.85374 20.1992 7.09944 20.2511 7.38216L20.5258 8.88C20.558 9.0555 20.7262 9.17152 20.9018 9.13943C21.0773 9.10722 21.1934 8.93892 21.1612 8.76347L20.8864 7.26558C20.8034 6.81313 20.549 6.42003 20.1703 6.15866C19.7915 5.89733 19.3337 5.7991 18.8812 5.88217L18.8507 5.88777L18.8018 5.62158C18.7266 5.21159 18.4962 4.85552 18.1531 4.61892C17.8101 4.38235 17.3954 4.29351 16.9855 4.3687L5.90415 6.40202C5.05807 6.55723 4.49602 7.37204 4.65127 8.21834L5.79433 14.4481C5.93218 15.1995 6.5901 15.7268 7.32834 15.7268C7.42145 15.7268 7.51589 15.7184 7.61068 15.701L7.80082 15.6661L7.82041 15.7727C7.97265 16.6024 8.69909 17.1846 9.51429 17.1846C9.61709 17.1846 9.72139 17.1753 9.82604 17.1561L16.984 15.8426C17.1595 15.8104 17.2756 15.6421 17.2434 15.4667C17.2112 15.2912 17.0426 15.175 16.8675 15.2073ZM7.4941 15.0656C6.99815 15.1567 6.52068 14.8273 6.42977 14.3316L5.28671 8.1018C5.19575 7.60585 5.52504 7.12838 6.02077 7.03746L17.1021 5.00414C17.3423 4.96 17.5855 5.01211 17.7864 5.15074C17.9874 5.28937 18.1224 5.49798 18.1664 5.73825L18.2153 6.00444L8.11946 7.85723C7.18519 8.02863 6.56461 8.92837 6.73601 9.86286L7.68424 15.0307L7.4941 15.0656Z" fill="#79B0B0"/>
<path d="M11.499 11.5192C11.499 13.093 12.7794 14.3734 14.3532 14.3734C15.927 14.3734 17.2074 13.093 17.2074 11.5192C17.2074 9.94544 15.927 8.66504 14.3532 8.66504C12.7794 8.66504 11.499 9.94544 11.499 11.5192ZM16.5614 11.5192C16.5614 12.7368 15.5708 13.7275 14.3532 13.7275C13.1356 13.7275 12.145 12.7368 12.145 11.5192C12.145 10.3016 13.1356 9.31103 14.3532 9.31103C15.5708 9.31103 16.5614 10.3016 16.5614 11.5192Z" fill="#79B0B0"/>
<path d="M0.399785 13.5572L2.34758 13.0811C2.52088 13.0387 2.62699 12.8639 2.58466 12.6907C2.54232 12.5174 2.36747 12.4114 2.19422 12.4536L0.246384 12.9297C0.0730859 12.9721 -0.0330289 13.1469 0.00930502 13.3202C0.0453513 13.4677 0.177435 13.5665 0.322826 13.5665C0.348192 13.5665 0.374032 13.5635 0.399785 13.5572Z" fill="#79B0B0"/>
<path d="M4.71908 15.9308L2.77129 16.4069C2.59799 16.4493 2.49187 16.6241 2.53421 16.7973C2.57025 16.9449 2.70234 17.0437 2.84773 17.0437C2.87309 17.0437 2.89893 17.0407 2.92469 17.0344L4.87248 16.5583C5.04577 16.5159 5.15189 16.3411 5.10956 16.1678C5.06722 15.9946 4.89237 15.8886 4.71908 15.9308Z" fill="#79B0B0"/>
<path d="M3.79205 13.9695L0.762177 14.7486C0.589396 14.7931 0.485349 14.9691 0.529793 15.1419C0.567303 15.2876 0.698483 15.3845 0.842366 15.3845C0.868981 15.3845 0.89607 15.3812 0.923029 15.3742L3.9529 14.5951C4.12568 14.5507 4.22973 14.3746 4.18528 14.2019C4.14084 14.0291 3.9647 13.925 3.79205 13.9695Z" fill="#79B0B0"/>
<path d="M3.82868 12.7442C3.85331 12.7442 3.87829 12.7414 3.90327 12.7355L4.31261 12.6386C4.48621 12.5976 4.59366 12.4236 4.55262 12.25C4.51153 12.0764 4.33746 11.9689 4.16395 12.01L3.75461 12.1068C3.58101 12.1479 3.47356 12.3218 3.5146 12.4954C3.54978 12.6441 3.68234 12.7442 3.82868 12.7442Z" fill="#79B0B0"/>
<path d="M1.20856 16.8466L0.472733 17.0198C0.299091 17.0607 0.191425 17.2346 0.232295 17.4082C0.267308 17.557 0.399951 17.6573 0.546419 17.6573C0.570924 17.6573 0.595773 17.6545 0.620665 17.6486L1.35649 17.4755C1.53013 17.4346 1.6378 17.2607 1.59693 17.0871C1.55606 16.9134 1.3822 16.8059 1.20856 16.8466Z" fill="#79B0B0"/>
</g>
<defs>
<clipPath id="clip0_701_6">
<rect width="22" height="22" fill="white"/>
</clipPath>
</defs>
</svg>
