<svg width="22" height="22" viewBox="0 0 22 22" fill="none" xmlns="http://www.w3.org/2000/svg">
<g clip-path="url(#clip0_701_44)">
<path d="M16.857 3.64737C16.8666 3.64806 16.8762 3.64876 16.8859 3.64876C16.9025 3.64876 16.919 3.64737 16.9352 3.64511C17.3684 3.65398 17.7151 4.00728 17.7156 4.44047C17.7156 4.63731 17.8752 4.7969 18.072 4.7969C18.2689 4.7969 18.4285 4.63731 18.4285 4.44047C18.4276 3.73195 17.9344 3.11898 17.2424 2.96652V2.62401C17.2424 2.42717 17.0828 2.26758 16.8859 2.26758C16.6891 2.26758 16.5295 2.42717 16.5295 2.62401V2.98271C15.7978 3.17833 15.3245 3.88615 15.4231 4.63713C15.5218 5.38812 16.1619 5.94957 16.9194 5.94957C17.3592 5.94957 17.7156 6.30618 17.7156 6.74598C17.7156 7.1856 17.3592 7.54221 16.9194 7.54221C16.4796 7.54221 16.1231 7.1856 16.1231 6.74598C16.1231 6.54914 15.9635 6.38954 15.7667 6.38954C15.5698 6.38954 15.4103 6.54914 15.4103 6.74598C15.4111 7.42891 15.8699 8.02639 16.5295 8.20374V8.59428C16.5295 8.79112 16.6891 8.95072 16.8859 8.95072C17.0828 8.95072 17.2424 8.79112 17.2424 8.59428V8.2201C17.9951 8.05528 18.5028 7.34972 18.4198 6.5836C18.3369 5.81747 17.69 5.23688 16.9194 5.23705C16.4917 5.23722 16.1404 4.89959 16.1235 4.47232C16.1068 4.04505 16.4306 3.68078 16.857 3.64754V3.64737Z" fill="#79B0B0"/>
<path d="M16.9399 0.524841C14.7471 0.524841 12.8758 1.95562 12.1748 3.87146H3.32817C3.1322 3.87146 2.97313 4.04811 2.97174 4.2439L2.8875 16.7476H0.365832C0.168993 16.7476 0 16.8902 0 17.0874V18.6741C0.00452502 20.1679 1.18104 21.395 2.67326 21.4626V21.4704H13.6782V21.4599C13.7673 21.4633 13.804 21.4704 13.8604 21.4704H13.868C15.4125 21.468 16.6633 20.2152 16.6633 18.6708V10.6482C16.7524 10.6531 16.8467 10.6557 16.939 10.6557C19.7294 10.6557 22.0001 8.38066 22.0001 5.5901C22.0001 2.79972 19.7304 0.524841 16.9399 0.524841ZM2.80883 20.7575H2.80657C1.65356 20.756 0.71809 19.8236 0.712869 18.6704V17.4605H11.0495V18.6654C11.05 19.4092 11.3471 20.1223 11.8748 20.6467C11.9122 20.6841 11.9586 20.713 11.9978 20.7575H2.80883ZM15.9504 18.6704C15.9506 19.8215 15.0186 20.7553 13.8677 20.7575H13.8609C12.7053 20.7554 11.7681 19.8212 11.7623 18.6657V17.0874C11.7653 16.9962 11.7305 16.9079 11.6659 16.8435C11.6013 16.7791 11.5131 16.7445 11.4221 16.7476H3.60037L3.68217 4.58433H11.9769C11.9137 4.91065 11.881 5.24202 11.8793 5.57427C11.8786 6.27687 12.0251 6.97163 12.3095 7.61401H8.94288C8.74587 7.61401 8.58645 7.77361 8.58645 7.97045C8.58645 8.16729 8.74587 8.32688 8.94288 8.32688H12.6962C13.4316 9.4832 14.607 10.2894 15.9504 10.5591V18.6704ZM16.9399 9.94302C14.5388 9.94302 12.5922 7.99655 12.5923 5.59532C12.5923 3.19409 14.5388 1.24763 16.94 1.24763C19.3411 1.24763 21.2875 3.19427 21.2875 5.59532C21.2849 7.99534 19.34 9.94041 16.9399 9.94302Z" fill="#79B0B0"/>
<path d="M6.65499 9.98621C6.02584 9.98621 5.51416 10.4817 5.51416 11.0908C5.51416 11.7 6.02584 12.1955 6.65499 12.1955C7.28415 12.1955 7.796 11.7 7.796 11.0908C7.796 10.4817 7.28415 9.98621 6.65499 9.98621ZM6.65499 11.4826C6.41882 11.4826 6.22703 11.3068 6.22703 11.0908C6.22703 10.8747 6.419 10.6991 6.65499 10.6991C6.89099 10.6991 7.08313 10.8749 7.08313 11.0908C7.08313 11.3068 6.89099 11.4826 6.65499 11.4826Z" fill="#79B0B0"/>
<path d="M8.58643 11.0893C8.58643 11.2861 8.74585 11.4457 8.94286 11.4457H13.6949C13.8917 11.4457 14.0513 11.2861 14.0513 11.0893C14.0513 10.8924 13.8917 10.7328 13.6949 10.7328H8.94286C8.74585 10.7328 8.58643 10.8924 8.58643 11.0893Z" fill="#79B0B0"/>
<path d="M6.65499 6.88782C6.02584 6.88782 5.51416 7.38348 5.51416 7.99262C5.51416 8.60177 6.02584 9.09726 6.65499 9.09726C7.28415 9.09726 7.796 8.60177 7.796 7.99262C7.796 7.38348 7.28415 6.88782 6.65499 6.88782ZM6.65499 8.38439C6.41882 8.38439 6.22703 8.20861 6.22703 7.99262C6.22703 7.77664 6.419 7.60069 6.65499 7.60069C6.89099 7.60069 7.08313 7.77647 7.08313 7.99262C7.08313 8.20861 6.89099 8.38456 6.65499 8.38456V8.38439Z" fill="#79B0B0"/>
<path d="M6.65499 13.0843C6.02584 13.0843 5.51416 13.5798 5.51416 14.1889C5.51416 14.7981 6.02584 15.2935 6.65499 15.2935C7.28415 15.2935 7.796 14.7981 7.796 14.1889C7.796 13.5798 7.28415 13.0843 6.65499 13.0843ZM6.65499 14.5807C6.41882 14.5807 6.22703 14.4051 6.22703 14.1889C6.22703 13.9729 6.419 13.7972 6.65499 13.7972C6.89099 13.7972 7.08313 13.9729 7.08313 14.1889C7.08313 14.4049 6.89099 14.5807 6.65499 14.5807Z" fill="#79B0B0"/>
<path d="M13.6949 13.8516H8.94286C8.74585 13.8516 8.58643 14.0112 8.58643 14.2081C8.58643 14.4049 8.74585 14.5645 8.94286 14.5645H13.6949C13.8917 14.5645 14.0513 14.4049 14.0513 14.2081C14.0513 14.0112 13.8917 13.8516 13.6949 13.8516Z" fill="#79B0B0"/>
</g>
<defs>
<clipPath id="clip0_701_44">
<rect width="22" height="22" fill="white"/>
</clipPath>
</defs>
</svg>
